<svg width="71" height="64" viewBox="0 0 71 64" fill="none" xmlns="http://www.w3.org/2000/svg">
<path d="M5.12067 0.0808105C2.83686 0.0808105 0.953125 1.96454 0.953125 4.24836V45.9238C0.953125 48.2076 2.83686 50.0914 5.12067 50.0914H26.3557C27.3198 52.5974 27.142 54.4423 26.2501 56.1482C25.3222 57.9319 23.5051 59.5934 21.3241 61.2048H16.2341C15.8667 61.2137 15.5164 61.3624 15.2547 61.6205C14.993 61.8786 14.8395 62.2267 14.8255 62.594C14.8395 62.9613 14.993 63.3094 15.2547 63.5675C15.5164 63.8256 15.8667 63.9742 16.2341 63.9832H55.1312C55.4987 63.9742 55.8489 63.8256 56.1106 63.5675C56.3723 63.3094 56.5258 62.9613 56.5398 62.594C56.5258 62.2267 56.3723 61.8786 56.1106 61.6205C55.8489 61.3624 55.4987 61.2137 55.1312 61.2048H50.0746C48.2353 59.7434 46.5127 58.3903 45.5459 56.7455C44.6096 55.1452 44.2623 53.1726 45.1097 50.0914H66.2447C68.5285 50.0914 70.4122 48.2076 70.4122 45.9238V4.24836C70.4122 1.96454 68.5285 0.0808105 66.2447 0.0808105H5.12067ZM5.12067 2.85917H66.2447C67.0393 2.85917 67.6339 3.45374 67.6339 4.24836V36.1995H3.73149V4.24836C3.73149 3.45374 4.32606 2.85917 5.12067 2.85917ZM17.6817 13.9726V27.8644H20.46V22.3077H26.0167V27.8644H28.7951V13.9726H17.6817ZM31.5735 13.9726V27.8644H42.6869V13.9726H31.5735ZM45.482 13.9726V22.3077H53.8782V25.0861H45.457V27.8644H56.6538V19.5294H48.2631V16.751H56.6176V13.9726H45.482ZM20.46 16.751H26.0167V19.5294H20.46V16.751ZM34.3518 16.751H39.9086V25.0861H34.3518V16.751ZM3.73149 38.9779H67.6339V45.9238C67.6339 46.7184 67.0393 47.313 66.2447 47.313H5.12067C4.93699 47.3176 4.7543 47.2848 4.58369 47.2166C4.41308 47.1484 4.25811 47.0462 4.12819 46.9163C3.99827 46.7864 3.89611 46.6314 3.82791 46.4608C3.75972 46.2902 3.72691 46.1075 3.73149 45.9238V38.9779ZM35.6827 41.3867C35.1318 41.3925 34.6052 41.6139 34.2156 42.0035C33.8261 42.393 33.6047 42.9197 33.5989 43.4705C33.5989 44.6041 34.5491 45.5543 35.6827 45.5543C36.8162 45.5543 37.7664 44.6041 37.7664 43.4705C37.7607 42.9197 37.5393 42.393 37.1497 42.0035C36.7602 41.6139 36.2335 41.3925 35.6827 41.3867ZM29.0702 50.1386H42.4285C41.7451 53.3809 41.9673 56.1204 43.1537 58.1431C43.94 59.4822 45.1347 60.2463 46.221 61.2048H25.0499C26.3779 60.0129 27.9144 58.9682 28.7173 57.4346C29.787 55.3786 29.8175 52.8503 29.0674 50.1414L29.0702 50.1386Z" fill="#161725"/>
<path d="M17.6797 13.9727V27.8645H20.4581V22.3077H26.0148V27.8645H28.7931V13.9727H17.6797ZM31.5715 13.9727V27.8645H42.685V13.9727H31.5715ZM45.48 13.9727V22.3077H53.8762V25.0861H45.455V27.8645H56.6518V19.5294H48.2611V16.751H56.6157V13.9727H45.48ZM20.4581 16.751H26.0148V19.5294H20.4581V16.751ZM34.3499 16.751H39.9066V25.0861H34.3499V16.751Z" fill="url(#paint0_linear_133_308)"/>
<defs>
<linearGradient id="paint0_linear_133_308" x1="54.037" y1="15.3595" x2="44.2792" y2="39.2774" gradientUnits="userSpaceOnUse">
<stop stop-color="#FF37D1"/>
<stop offset="1" stop-color="#3B35FF"/>
</linearGradient>
</defs>
</svg>
