<svg width="60" height="62" viewBox="0 0 60 62" fill="none" xmlns="http://www.w3.org/2000/svg">
<path d="M34.7587 7.29456L45.0652 44.756L24.829 39.8381L19.9708 22.0951L34.7587 7.29456ZM8.477 25.4254L15.7952 23.3787C15.891 23.7599 16.0275 24.2573 16.2155 24.9308C16.3323 25.3491 16.4713 25.8434 16.6367 26.4311C17.3603 29.0032 18.5872 33.3645 20.6534 40.9767L13.329 43.0251L13.2114 43.058L13.1864 43.0706C13.1607 43.0725 13.1267 43.0741 13.0815 43.0751C13.026 43.0763 12.9669 43.0763 12.8917 43.0763C12.2474 43.0763 11.6481 42.7139 11.3989 42.2119L10.9698 41.348L10.0242 41.5384C9.67702 41.6083 9.40524 41.6113 8.91434 41.6113C5.88111 41.6113 3.18756 39.6369 2.36832 36.5851L2.36496 36.5725L2.36133 36.5601C1.38554 33.2034 3.26275 29.6462 6.37156 28.4107L7.16474 28.0954V27.2419C7.16474 26.8149 7.23082 26.5658 7.37548 26.3231L7.3823 26.3116L7.38888 26.3C7.63744 25.8621 8.05693 25.5316 8.44525 25.4338L8.46118 25.4298L8.477 25.4254ZM18.7598 57.866L15.6999 46.8634L22.6014 44.9091L25.7438 55.8947C26.2562 57.9158 25.1309 59.9062 23.255 60.4019C21.1193 60.9153 19.26 59.6648 18.7598 57.866Z" stroke="#161725" stroke-width="2.51533"/>
<path d="M58.1725 20.845C59.6901 24.4705 57.2358 28.7851 53.3998 29.975L56.5103 41.5738C57.0254 43.1976 55.8858 44.9213 53.9298 45.2617C51.9738 45.6021 50.0773 44.5113 49.6591 42.8915L39.4528 5.78184C39.0346 4.16211 40.1707 2.52261 42.1302 2.09801C43.9893 1.75358 45.8893 2.7602 46.4009 4.46815L49.6083 16.0709C53.7037 15.6507 57.2532 17.2648 58.1725 20.845Z" stroke="url(#paint0_linear_133_264)" stroke-width="2.51533"/>
<defs>
<linearGradient id="paint0_linear_133_264" x1="56.894" y1="1.88745" x2="30.5052" y2="36.4818" gradientUnits="userSpaceOnUse">
<stop stop-color="#FF37D1"/>
<stop offset="1" stop-color="#4A35FC"/>
</linearGradient>
</defs>
</svg>
