<svg width="77" height="76" viewBox="0 0 77 76" fill="none" xmlns="http://www.w3.org/2000/svg">
<path d="M73.8506 33.2494L73.8505 33.2387C73.8034 25.5416 70.8543 17.86 64.9965 12.0008C59.2744 6.27725 51.667 3.12554 43.575 3.12554C35.4825 3.12554 27.8757 6.27725 22.1535 12.0008L22.1535 12.0008C16.2952 17.86 13.3461 25.5425 13.299 33.2401L13.299 33.2508L13.2978 33.2615C13.2944 33.2909 13.2912 33.314 13.2885 33.3337C13.2835 33.3697 13.2801 33.3946 13.2801 33.4266C13.2801 33.4589 13.2836 33.4842 13.2886 33.5208C13.2913 33.5403 13.2945 33.563 13.2977 33.5916L13.299 33.6023L13.299 33.6131C13.3306 38.7702 14.6654 43.9187 17.3049 48.518C17.3456 48.4896 17.387 48.4614 17.429 48.4343L17.429 48.4342C18.6322 47.6574 20.0334 47.2625 21.4789 47.3101C22.3183 47.3334 23.1512 47.5082 23.9312 47.8219L25.4467 46.3879H19.5802H19.4599L19.4036 46.2817C17.5448 42.781 16.5024 38.9598 16.268 35.0974L16.2551 34.8853H16.4676H22.5912C22.5263 33.9129 22.5305 32.9377 22.5986 31.967H16.4681H16.2556L16.2685 31.7549C16.5024 27.8925 17.5453 24.0712 19.404 20.5706L19.4604 20.4643H19.5807H26.9662C27.6071 19.6388 28.3134 18.8506 29.0924 18.1133C29.4332 17.7908 29.7846 17.4868 30.1398 17.1921C30.1398 17.1921 30.1399 17.1921 30.1399 17.1921L30.2676 17.346C31.1863 16.5833 32.1581 15.9054 33.1758 15.3181L73.8506 33.2494ZM73.8506 33.2494L73.8518 33.2601C73.8552 33.2901 73.8585 33.3138 73.8613 33.3342C73.8662 33.3696 73.8698 33.3954 73.8704 33.428C73.8703 33.4596 73.8668 33.4848 73.8619 33.521C73.8592 33.5408 73.856 33.564 73.8527 33.5934L73.8515 33.6039L73.8514 33.6145C73.8039 41.3117 70.8553 48.9932 64.9975 54.8524C59.281 60.5694 51.6835 63.7197 43.6004 63.7263C43.5904 63.7263 43.5813 63.7268 43.5775 63.727L43.5767 63.7271L43.5755 63.7271C43.5751 63.7271 43.5747 63.7271 43.5743 63.7271C43.571 63.7269 43.5613 63.7263 43.5505 63.7263C37.5997 63.7212 31.9142 62.0108 27.0475 58.8292M73.8506 33.2494L27.0475 58.8292M58.8856 18.9413C58.293 18.3143 57.6656 17.7347 57.0136 17.1927L56.8857 17.3465L57.0136 17.1927C56.1029 16.4357 55.139 15.7571 54.1261 15.1696C51.8782 10.4097 48.7697 7.0868 45.2811 6.25411L45.0346 6.19529V6.44865V12.3988C44.7441 12.3788 44.4522 12.3639 44.1588 12.3559L44.1588 12.3559C43.4725 12.3373 42.7913 12.3539 42.1163 12.4003V6.44817V6.19482L41.8699 6.25364C38.3793 7.08681 35.2694 10.4126 33.0215 15.1763L58.7402 19.0787M58.8856 18.9413L58.7402 19.0787M58.8856 18.9413C58.8856 18.9413 58.8855 18.9412 58.8855 18.9412L58.7402 19.0787M58.8856 18.9413C59.3508 19.433 59.7864 19.942 60.1948 20.4648M58.7402 19.0787C59.2237 19.5897 59.675 20.1197 60.0969 20.6648M60.1948 20.4648H60.0969V20.6648M60.1948 20.4648H67.5698H67.6901L67.7464 20.571C69.6052 24.0722 70.6481 27.8935 70.882 31.7554L70.8949 31.9675H70.6824H64.5872C64.6542 32.9394 64.6557 33.9142 64.5891 34.8858L60.0969 20.6648M60.1948 20.4648C60.215 20.4907 60.2351 20.5165 60.2551 20.5424L60.0969 20.6648M27.0475 58.8292C27.6536 58.0245 28.0722 57.1078 28.2943 56.1472C29.9959 57.2972 31.8124 58.244 33.714 58.9775L33.9382 58.6612C32.1903 56.6095 30.6771 53.998 29.4708 50.9618L30.5186 49.9706C31.3115 50.5978 32.1473 51.1627 33.0163 51.6657C35.2647 56.4345 38.3764 59.765 41.8694 60.5987L42.1158 60.6575V60.4041V54.4518C42.406 54.4729 42.6976 54.4893 42.991 54.4974C42.991 54.4974 42.9911 54.4974 42.9912 54.4974L42.9967 54.2975M27.0475 58.8292L45.2342 54.4398C45.1675 54.4449 45.1009 54.4498 45.0342 54.4544V54.2539C44.3598 54.3006 43.6804 54.3169 42.9967 54.2975M42.9967 54.2975C42.7021 54.2893 42.4087 54.2728 42.1158 54.2512L42.9967 54.2975ZM70.482 31.7675H64.5725L67.5698 20.6648C69.3827 24.0796 70.4139 27.8015 70.6695 31.5675H70.6824V31.7675L70.4828 31.7796C70.4825 31.7755 70.4823 31.7715 70.482 31.7675ZM28.7141 17.5465H28.8563L28.903 17.4122C30.1862 13.7212 31.9045 10.5788 33.9387 8.19105L33.7145 7.87475C30.1948 9.232 26.9637 11.3166 24.2171 14.0641L24.2171 14.0641C23.2182 15.0635 22.3124 16.1221 21.5001 17.2281L21.2662 17.5465H21.6613H28.7141ZM58.247 17.4122L58.2937 17.5465H58.4359H65.4883H65.8832L65.6495 17.2282C64.8376 16.1221 63.9318 15.0634 62.9324 14.064C60.1858 11.3166 56.9547 9.232 53.4356 7.87475L53.2113 8.19105C55.2455 10.5788 56.9633 13.7212 58.247 17.4122ZM53.2113 58.6617L53.4356 58.978C56.9547 57.6208 60.1858 55.5367 62.9324 52.7892L62.7909 52.6478L62.9324 52.7892C63.9318 51.7893 64.8372 50.7311 65.6495 49.6251L65.8833 49.3067H65.4883H58.4354H58.2932L58.2465 49.4411C56.9633 53.132 55.2455 56.274 53.2113 58.6617Z" fill="#161725" stroke="#232439" stroke-width="0.4"/>
<path d="M30.4649 48.1156C33.9283 51.2182 38.3289 52.9821 43.029 53.113C43.2163 53.1182 43.4031 53.1206 43.5894 53.1206C48.6408 53.1206 53.422 51.2196 57.1068 47.733C64.9945 40.2706 65.3405 27.7814 57.8795 19.8927C54.2654 16.071 49.3794 13.8861 44.1222 13.7401C38.8726 13.6003 33.8653 15.505 30.0449 19.1201C22.564 26.1985 21.8719 37.7965 28.1867 45.7041L24.1871 49.4884C23.3604 48.9997 22.4204 48.7223 21.4334 48.6949C19.898 48.6422 18.4445 49.2087 17.3315 50.2625L5.23048 61.7117C2.93326 63.8852 2.83228 67.523 5.00626 69.8212L5.10534 69.926C6.15819 71.0395 7.58175 71.6752 9.1134 71.7179C9.16791 71.7193 9.22195 71.7202 9.276 71.7202C10.7479 71.7202 12.1411 71.1661 13.2153 70.1497L25.3158 58.7006C27.2134 56.9053 27.6078 54.1127 26.4649 51.9004L30.4649 48.1156ZM32.3251 21.5306C35.3888 18.6318 39.3637 17.0508 43.5638 17.0508C43.7188 17.0508 43.8738 17.0527 44.0293 17.0575C48.4009 17.1788 52.463 18.9954 55.468 22.1734C61.6723 28.7323 61.3841 39.1177 54.8262 45.323C51.6491 48.3289 47.4884 49.9288 43.1215 49.7961C38.7503 49.6747 34.6877 47.8582 31.6827 44.6806C25.4784 38.1208 25.7666 27.7358 32.3251 21.5306ZM23.0347 56.2905L10.9347 67.7397C10.4649 68.1838 9.85765 68.4285 9.20536 68.4005C8.55971 68.3829 7.95957 68.1142 7.51586 67.6449L7.51539 67.6444L7.41679 67.5401C6.50045 66.5716 6.54312 65.0381 7.5116 64.1213L19.6121 52.6721C20.0648 52.244 20.6517 52.0103 21.2722 52.0103C21.295 52.0103 21.3182 52.0108 21.3414 52.0113C21.9871 52.0293 22.5872 52.2976 23.0305 52.7664L23.13 52.8722C24.0459 53.8406 24.0032 55.3742 23.0347 56.2905Z" fill="url(#paint0_linear_133_299)"/>
<path d="M36.4409 34.2391L42.6593 44.9227C42.8492 45.2485 43.1979 45.449 43.575 45.449C43.9521 45.449 44.3008 45.2481 44.4907 44.9227L50.7091 34.2391C50.7151 34.2289 50.7206 34.2187 50.7261 34.2086C52.7798 30.8807 52.2862 26.6367 49.5138 23.8643C47.9278 22.2775 45.8186 21.4038 43.575 21.4038C41.3318 21.4038 39.2226 22.2779 37.6362 23.8643C34.8646 26.6363 34.3706 30.8786 36.4226 34.2056C36.4281 34.2166 36.4345 34.2281 36.4409 34.2391ZM39.1344 25.3622C40.3204 24.1758 41.8975 23.5224 43.575 23.5224C45.2525 23.5224 46.8296 24.1758 48.0156 25.3622C50.1011 27.4486 50.4621 30.6476 48.8939 33.1421C48.8753 33.1713 48.8583 33.2018 48.8431 33.2323L43.575 42.2838L38.3078 33.2353C38.2921 33.2039 38.2747 33.173 38.2556 33.1421C36.687 30.6472 37.0485 27.4486 39.1344 25.3622Z" fill="url(#paint1_linear_133_299)"/>
<path d="M43.576 34.0545C44.7111 34.0545 45.7785 33.6122 46.581 32.8096C48.2382 31.1525 48.2382 28.4559 46.581 26.7984C45.7785 25.9954 44.7111 25.5535 43.576 25.5535C42.4409 25.5535 41.3735 25.9958 40.571 26.7984C38.9138 28.4555 38.9138 31.1521 40.571 32.8096C41.3735 33.6122 42.4404 34.0545 43.576 34.0545ZM42.0688 28.2966C42.4714 27.8941 43.0065 27.6721 43.5756 27.6721C44.1446 27.6721 44.6798 27.8937 45.0827 28.2966C45.9141 29.128 45.9141 30.4805 45.0827 31.3118C44.6802 31.7143 44.1451 31.9364 43.5756 31.9364C43.0061 31.9364 42.4714 31.7147 42.0688 31.3118C41.2379 30.4805 41.2379 29.1275 42.0688 28.2966Z" fill="url(#paint2_linear_133_299)"/>
<defs>
<linearGradient id="paint0_linear_133_299" x1="59.2432" y1="19.5218" x2="1.32844" y2="71.7202" gradientUnits="userSpaceOnUse">
<stop stop-color="#FF37D1"/>
<stop offset="1" stop-color="#3B35FF"/>
</linearGradient>
<linearGradient id="paint1_linear_133_299" x1="50.8575" y1="23.8042" x2="5.00537" y2="45.2687" gradientUnits="userSpaceOnUse">
<stop stop-color="#FF37D1"/>
<stop offset="1" stop-color="#3B35FF"/>
</linearGradient>
<linearGradient id="paint2_linear_133_299" x1="43.576" y1="25.5535" x2="1.57684" y2="71.061" gradientUnits="userSpaceOnUse">
<stop stop-color="#FF37D1"/>
<stop offset="1" stop-color="#3B35FF"/>
</linearGradient>
</defs>
</svg>
