<svg width="79" height="79" viewBox="0 0 79 79" fill="none" xmlns="http://www.w3.org/2000/svg">
<path d="M5.45815 10.0456C5.61578 9.97739 5.78525 9.94095 5.95686 9.93822L5.45815 10.0456ZM5.45815 10.0456C5.30049 10.1139 5.15791 10.2126 5.0385 10.3359C4.91904 10.4593 4.82504 10.6049 4.76187 10.7646C4.69895 10.9237 4.66786 11.0936 4.67037 11.2647V69.0544C4.67037 69.4011 4.80809 69.7339 5.05331 69.9791L5.21307 69.8194M5.45815 10.0456L5.21307 69.8194M5.21307 69.8194L5.05331 69.9791C5.29857 70.2244 5.63115 70.3619 5.97781 70.3619M5.21307 69.8194L5.97781 70.3619M5.97781 70.3619H72.9941M5.97781 70.3619H72.9941M72.9941 70.3619C73.3408 70.3619 73.6733 70.2244 73.9186 69.9791M72.9941 70.3619L73.9186 69.9791M73.9186 69.9791C74.1638 69.7339 74.3015 69.4011 74.3015 69.0544M73.9186 69.9791L74.3015 69.0544M74.3015 69.0544C74.3015 68.7077 74.1638 68.3752 73.9186 68.13M74.3015 69.0544L73.9186 68.13M73.9186 68.13C73.6734 67.8848 73.3409 67.747 72.9941 67.747M73.9186 68.13L72.9941 67.747M72.9941 67.747H7.28525M72.9941 67.747H7.28525M7.28525 67.747V11.2647C7.28781 11.0901 7.25538 10.9168 7.18987 10.7549C7.12412 10.5925 7.02638 10.4449 6.90245 10.321C6.77855 10.197 6.63099 10.0993 6.46853 10.0335C6.30605 9.96774 6.13206 9.9354 5.95692 9.93822L7.28525 67.747Z" fill="#161725" stroke="#161725" stroke-width="0.452508"/>
<path fill-rule="evenodd" clip-rule="evenodd" d="M64.7992 10.1735C64.8469 10.168 64.8949 10.1657 64.9431 10.1666V10.1643C65.1522 10.1683 65.3557 10.233 65.5288 10.3503C65.7019 10.4676 65.8373 10.6326 65.9185 10.8253C65.9998 11.018 66.0234 11.2301 65.9865 11.4359C65.9861 11.4381 65.9858 11.4402 65.9854 11.4423V18.1958C65.9854 18.4825 65.8714 18.7577 65.6687 18.9605C65.4659 19.1632 65.1909 19.277 64.9042 19.277C64.6174 19.277 64.3424 19.1632 64.1397 18.9605C63.9369 18.7577 63.823 18.4825 63.823 18.1958V14.069L45.0407 34.8025C44.8897 34.97 44.6901 35.0861 44.4699 35.1346C44.2497 35.183 44.0198 35.1614 43.8124 35.0728L32.633 30.2724L14.6247 44.5461C14.3996 44.7242 14.113 44.8056 13.8279 44.7723C13.5428 44.7391 13.2826 44.5938 13.1046 44.3687C12.9265 44.1436 12.8451 43.8572 12.8784 43.5721C12.9116 43.287 13.0568 43.0266 13.2819 42.8486L31.7961 28.1726C31.9493 28.0519 32.1323 27.9749 32.3257 27.9498C32.5191 27.9247 32.7157 27.9525 32.8946 28.03L43.9573 32.7805L62.4784 12.3358H57.9738C57.687 12.3358 57.412 12.222 57.2093 12.0192C57.0065 11.8165 56.8926 11.5414 56.8926 11.2546C56.8926 10.9679 57.0065 10.6928 57.2093 10.4901C57.412 10.2873 57.687 10.1735 57.9738 10.1735H64.7992Z" fill="url(#paint0_linear_133_288)"/>
<path d="M14.0656 52.3689C13.7119 52.3689 13.3773 52.5229 13.134 52.789C12.8914 53.0545 12.7581 53.4105 12.7581 53.778V68.9525C12.7581 69.32 12.8914 69.676 13.134 69.9415C13.3773 70.2076 13.7119 70.3616 14.0656 70.3616C14.4193 70.3616 14.7538 70.2076 14.9971 69.9415C15.2397 69.676 15.373 69.32 15.373 68.9525V55.1872H22.0044V68.9525C22.0044 69.32 22.1377 69.676 22.3804 69.9415C22.6236 70.2076 22.9582 70.3616 23.3119 70.3616C23.6656 70.3616 24.0001 70.2076 24.2434 69.9415C24.4861 69.676 24.6193 69.32 24.6193 68.9525V53.778C24.6193 53.4105 24.4861 53.0545 24.2434 52.789C24.0001 52.5229 23.6656 52.3689 23.3119 52.3689H14.0656ZM27.9307 39.7214C27.5772 39.7214 27.2426 39.875 26.9992 40.1413C26.7565 40.4068 26.6233 40.7631 26.6233 41.1305V68.9525C26.6233 69.32 26.7565 69.676 26.9992 69.9415C27.2424 70.2076 27.577 70.3616 27.9307 70.3616C28.2844 70.3616 28.619 70.2076 28.8622 69.9415C29.1049 69.676 29.2381 69.32 29.2381 68.9525V42.5397H35.8696V68.9525C35.8696 69.32 36.0028 69.676 36.2455 69.9415C36.4888 70.2076 36.8233 70.3616 37.177 70.3616C37.5307 70.3616 37.8653 70.2076 38.1085 69.9415C38.3512 69.676 38.4845 69.32 38.4845 68.9525V41.1305C38.4845 40.7631 38.3512 40.4068 38.1085 40.1413C37.8652 39.875 37.5306 39.7214 37.177 39.7214H27.9307ZM41.7958 44.7816C41.4421 44.7816 41.1076 44.9357 40.8643 45.2018C40.6217 45.4673 40.4884 45.8233 40.4884 46.1908V68.9499C40.4884 69.3173 40.6216 69.6736 40.8643 69.9392C41.1077 70.2054 41.4423 70.359 41.7958 70.359C42.1494 70.359 42.484 70.2054 42.7274 69.9392C42.9701 69.6736 43.1033 69.3173 43.1033 68.9499V47.6H49.7347V68.9499C49.7347 69.3173 49.8679 69.6736 50.1106 69.9392C50.354 70.2054 50.6886 70.359 51.0422 70.359C51.3957 70.359 51.7303 70.2054 51.9737 69.9392C52.2164 69.6736 52.3496 69.3173 52.3496 68.9499V46.1908C52.3496 45.8233 52.2163 45.4673 51.9737 45.2018C51.7304 44.9357 51.3959 44.7816 51.0422 44.7816H41.7958ZM55.6631 29.6075C55.3094 29.6075 54.9749 29.7615 54.7316 30.0277C54.489 30.2931 54.3557 30.6491 54.3557 31.0166V68.9525C54.3557 69.32 54.489 69.676 54.7316 69.9415C54.9749 70.2076 55.3094 70.3616 55.6631 70.3616C56.0168 70.3616 56.3514 70.2076 56.5947 69.9415C56.8373 69.676 56.9706 69.32 56.9706 68.9525V32.4258H63.5999V68.9525C63.5999 69.32 63.7331 69.676 63.9758 69.9415C64.219 70.2076 64.5536 70.3616 64.9073 70.3616C65.261 70.3616 65.5956 70.2076 65.8388 69.9415C66.0815 69.676 66.2147 69.32 66.2147 68.9525V31.0166C66.2147 30.6491 66.0815 30.2931 65.8388 30.0277C65.5956 29.7615 65.261 29.6075 64.9073 29.6075H55.6631Z" fill="#161725" stroke="#161725" stroke-width="0.452508"/>
<defs>
<linearGradient id="paint0_linear_133_288" x1="62.4386" y1="13.62" x2="29.125" y2="58.2974" gradientUnits="userSpaceOnUse">
<stop stop-color="#FF37D1"/>
<stop offset="1" stop-color="#3B35FF"/>
</linearGradient>
</defs>
</svg>
