<svg width="66" height="68" viewBox="0 0 66 68" fill="none" xmlns="http://www.w3.org/2000/svg">
<g clip-path="url(#clip0_133_271)">
<path d="M8.91248 55.4227H5.37409C4.12284 55.4227 2.92284 54.9223 2.03807 54.0315C1.15331 53.1407 0.65625 51.9325 0.65625 50.6728V41.1728C0.65625 39.9131 1.15331 38.7049 2.03807 37.8141C2.92284 36.9233 4.12284 36.4229 5.37409 36.4229H8.91248C9.22529 36.4229 9.52529 36.548 9.74648 36.7707C9.96767 36.9934 10.0919 37.2954 10.0919 37.6103V54.2352C10.0919 54.5502 9.96767 54.8522 9.74648 55.0749C9.52529 55.2976 9.22529 55.4227 8.91248 55.4227ZM5.37409 38.7978C4.74847 38.7978 4.14847 39.0481 3.70608 39.4935C3.2637 39.9388 3.01517 40.5429 3.01517 41.1728V50.6728C3.01517 51.3026 3.2637 51.9067 3.70608 52.3521C4.14847 52.7975 4.74847 53.0477 5.37409 53.0477H7.73302V38.7978H5.37409Z" fill="#161725"/>
<path d="M12.4522 58.9852C11.201 58.9852 10.001 58.4847 9.1162 57.5939C8.23143 56.7032 7.73438 55.495 7.73438 54.2352V37.6103C7.73438 36.3506 8.23143 35.1424 9.1162 34.2516C10.001 33.3608 11.201 32.8604 12.4522 32.8604C13.7035 32.8604 14.9035 33.3608 15.7882 34.2516C16.673 35.1424 17.1701 36.3506 17.1701 37.6103V54.2352C17.1701 55.495 16.673 56.7032 15.7882 57.5939C14.9035 58.4847 13.7035 58.9852 12.4522 58.9852ZM12.4522 35.2353C11.8266 35.2353 11.2266 35.4856 10.7842 35.931C10.3418 36.3763 10.0933 36.9804 10.0933 37.6103V54.2352C10.0933 54.8651 10.3418 55.4692 10.7842 55.9146C11.2266 56.36 11.8266 56.6102 12.4522 56.6102C13.0778 56.6102 13.6778 56.36 14.1202 55.9146C14.5626 55.4692 14.8111 54.8651 14.8111 54.2352V37.6103C14.8111 36.9804 14.5626 36.3763 14.1202 35.931C13.6778 35.4856 13.0778 35.2353 12.4522 35.2353ZM61.9896 55.4227H58.4512C58.1384 55.4227 57.8384 55.2976 57.6172 55.0749C57.396 54.8522 57.2717 54.5502 57.2717 54.2352V37.6103C57.2717 37.2954 57.396 36.9933 57.6172 36.7706C57.8384 36.5479 58.1384 36.4228 58.4512 36.4228H61.9896C63.2408 36.4228 64.4408 36.9233 65.3256 37.8141C66.2104 38.7049 66.7074 39.913 66.7074 41.1728V50.6727C66.7074 51.9325 66.2104 53.1407 65.3256 54.0315C64.4408 54.9223 63.2408 55.4227 61.9896 55.4227ZM59.6307 53.0477H61.9896C62.6152 53.0477 63.2152 52.7975 63.6576 52.3521C64.1 51.9067 64.3485 51.3026 64.3485 50.6727V41.1728C64.3485 40.5429 64.1 39.9388 63.6576 39.4934C63.2152 39.048 62.6152 38.7978 61.9896 38.7978H59.6307V53.0477Z" fill="#161725"/>
<path d="M54.9128 58.9852C53.6615 58.9852 52.4615 58.4847 51.5767 57.5939C50.692 56.7032 50.1949 55.495 50.1949 54.2352V37.6103C50.1949 36.3506 50.692 35.1424 51.5767 34.2516C52.4615 33.3608 53.6615 32.8604 54.9128 32.8604C56.164 32.8604 57.364 33.3608 58.2488 34.2516C59.1336 35.1424 59.6306 36.3506 59.6306 37.6103V54.2352C59.6306 55.495 59.1336 56.7032 58.2488 57.5939C57.364 58.4847 56.164 58.9852 54.9128 58.9852ZM54.9128 35.2353C54.2871 35.2353 53.6871 35.4856 53.2448 35.931C52.8024 36.3763 52.5538 36.9804 52.5538 37.6103V54.2352C52.5538 54.8651 52.8024 55.4692 53.2448 55.9146C53.6871 56.36 54.2871 56.6102 54.9128 56.6102C55.5384 56.6102 56.1384 56.36 56.5808 55.9146C57.0232 55.4692 57.2717 54.8651 57.2717 54.2352V37.6103C57.2717 36.9804 57.0232 36.3763 56.5808 35.931C56.1384 35.4856 55.5384 35.2353 54.9128 35.2353ZM36.0414 67.2976H31.3235C30.3851 67.2976 29.4851 66.9223 28.8215 66.2542C28.1579 65.5861 27.7852 64.68 27.7852 63.7352C27.7852 62.7903 28.1579 61.8842 28.8215 61.2161C29.4851 60.548 30.3851 60.1727 31.3235 60.1727H36.0414C36.9798 60.1727 37.8798 60.548 38.5434 61.2161C39.207 61.8842 39.5798 62.7903 39.5798 63.7352C39.5798 64.68 39.207 65.5861 38.5434 66.2542C37.8798 66.9223 36.9798 67.2976 36.0414 67.2976ZM31.3235 62.5477C31.0107 62.5477 30.7107 62.6728 30.4895 62.8955C30.2683 63.1182 30.1441 63.4202 30.1441 63.7352C30.1441 64.0501 30.2683 64.3521 30.4895 64.5748C30.7107 64.7975 31.0107 64.9226 31.3235 64.9226H36.0414C36.3542 64.9226 36.6542 64.7975 36.8754 64.5748C37.0966 64.3521 37.2208 64.0501 37.2208 63.7352C37.2208 63.4202 37.0966 63.1182 36.8754 62.8955C36.6542 62.6728 36.3542 62.5477 36.0414 62.5477H31.3235Z" fill="#161725"/>
<path d="M54.9124 64.9226H38.3999C38.0871 64.9226 37.7871 64.7975 37.5659 64.5748C37.3447 64.3521 37.2205 64.05 37.2205 63.7351C37.2205 63.4201 37.3447 63.1181 37.5659 62.8954C37.7871 62.6727 38.0871 62.5476 38.3999 62.5476H54.9124C56.4764 62.5476 57.9764 61.922 59.0824 60.8085C60.1884 59.6951 60.8097 58.1848 60.8097 56.6101V54.2351C60.8097 53.9202 60.9339 53.6182 61.1551 53.3955C61.3763 53.1728 61.6763 53.0477 61.9891 53.0477C62.302 53.0477 62.602 53.1728 62.8231 53.3955C63.0443 53.6182 63.1686 53.9202 63.1686 54.2351V56.6101C63.1686 58.8147 62.2988 60.929 60.7504 62.4879C59.2021 64.0468 57.1021 64.9226 54.9124 64.9226ZM60.8097 38.7977C60.4969 38.7977 60.1969 38.6726 59.9757 38.4499C59.7545 38.2272 59.6302 37.9252 59.6302 37.6103V29.2978C59.6316 28.158 59.5567 27.0194 59.4061 25.8897C59.386 25.7338 59.3966 25.5753 59.4372 25.4235C59.4779 25.2717 59.5479 25.1294 59.6432 25.0048C59.7384 24.8802 59.8572 24.7757 59.9926 24.6973C60.128 24.6189 60.2774 24.5681 60.4323 24.5478C60.5871 24.5276 60.7445 24.5382 60.8953 24.5791C61.0461 24.6201 61.1874 24.6906 61.3112 24.7865C61.4349 24.8824 61.5387 25.002 61.6166 25.1383C61.6945 25.2746 61.7449 25.425 61.765 25.581C61.9218 26.8135 61.9967 28.0552 61.9891 29.2978V37.6103C61.9891 37.9252 61.8649 38.2272 61.6437 38.4499C61.4225 38.6726 61.1225 38.7977 60.8097 38.7977ZM6.55446 38.7977C6.24165 38.7977 5.94165 38.6726 5.72046 38.4499C5.49926 38.2272 5.375 37.9252 5.375 37.6103V29.2978C5.37528 28.0547 5.45803 26.813 5.62269 25.581C5.64282 25.425 5.69327 25.2746 5.77114 25.1383C5.84902 25.002 5.9528 24.8824 6.07656 24.7865C6.20032 24.6906 6.34164 24.6201 6.49245 24.5791C6.64325 24.5382 6.80059 24.5276 6.95548 24.5478C7.11037 24.5681 7.25977 24.6189 7.39517 24.6973C7.53056 24.7757 7.64929 24.8802 7.74457 25.0048C7.83986 25.1294 7.90983 25.2717 7.9505 25.4235C7.99118 25.5753 8.00174 25.7338 7.98161 25.8897C7.82315 27.0188 7.7404 28.1575 7.73392 29.2978V37.6103C7.73392 37.9252 7.60966 38.2272 7.38847 38.4499C7.16727 38.6726 6.86727 38.7977 6.55446 38.7977Z" fill="#161725"/>
<path d="M60.5725 26.923C58.7485 26.8968 56.9712 26.3389 55.4556 25.3167C53.9401 24.2946 52.7513 22.852 52.0332 21.1637C50.4567 17.5626 47.8692 14.504 44.5889 12.364C41.3086 10.2241 37.4785 9.09606 33.5699 9.11877C29.6612 9.14148 25.8444 10.3139 22.5888 12.4919C19.3332 14.6698 16.7809 17.7583 15.2458 21.3774C14.5835 23.0019 13.4608 24.394 12.0177 25.3802C10.5747 26.3664 8.87512 26.903 7.13113 26.923H6.78909C6.62041 26.9245 6.45338 26.8895 6.29928 26.8204C6.14519 26.7513 6.0076 26.6497 5.89581 26.5226C5.78402 26.3954 5.70062 26.2455 5.65125 26.0831C5.60188 25.9207 5.58769 25.7496 5.60962 25.5812C6.51517 18.7346 9.85946 12.4521 15.0207 7.90184C20.1819 3.35159 26.8087 0.843262 33.669 0.843262C40.5293 0.843262 47.1562 3.35159 52.3173 7.90184C57.4785 12.4521 60.8228 18.7346 61.7284 25.5812C61.7503 25.7496 61.7361 25.9207 61.6868 26.0831C61.6374 26.2455 61.554 26.3954 61.4422 26.5226C61.3304 26.6497 61.1928 26.7513 61.0387 26.8204C60.8846 26.8895 60.7176 26.9245 60.5489 26.923H60.5725ZM33.6808 3.17318C27.6335 3.17273 21.7759 5.29883 17.12 9.1842C12.4642 13.0696 9.30235 18.4702 8.18085 24.453C9.26425 24.2475 10.2795 23.7727 11.1343 23.0718C11.9891 22.3708 12.6564 21.4659 13.0756 20.4393C14.5115 17.0434 16.7528 14.054 19.6032 11.7332C22.4536 9.41235 25.8259 7.83096 29.4246 7.12766C33.0232 6.42437 36.7383 6.62063 40.2441 7.69926C43.7499 8.77789 46.9393 10.7059 49.5328 13.3144C51.5121 15.29 53.1116 17.617 54.2506 20.1781C54.6953 21.221 55.3776 22.1439 56.2423 22.8721C57.107 23.6004 58.1298 24.1135 59.2279 24.3699C58.2406 19.2335 55.7517 14.5112 52.0804 10.8088C49.6701 8.37055 46.8019 6.43973 43.6429 5.12881C40.484 3.81789 37.0975 3.1531 33.6808 3.17318Z" fill="#161725"/>
<path fill-rule="evenodd" clip-rule="evenodd" d="M33.2029 43.5401C30.3383 43.4499 27.5524 42.5527 25.1641 40.946C22.6426 39.2497 20.6773 36.8387 19.5168 34.0179C18.3563 31.1971 18.0526 28.0931 18.6442 25.0986C19.2359 22.104 20.6962 19.3533 22.8405 17.1944C24.9849 15.0354 27.717 13.5651 30.6913 12.9695C33.6656 12.3738 36.7486 12.6795 39.5503 13.848C42.352 15.0164 44.7467 16.995 46.4315 19.5337C48.1163 22.0724 49.0156 25.057 49.0156 28.1103C49.0156 28.4252 48.8913 28.7272 48.6702 28.9499C48.449 29.1726 48.149 29.2978 47.8361 29.2978C47.5233 29.2978 47.2233 29.1726 47.0021 28.9499C46.7809 28.7272 46.6567 28.4252 46.6567 28.1103C46.6567 25.5268 45.8958 23.0013 44.4702 20.8532C43.0445 18.7051 41.0183 17.0308 38.6476 16.0422C36.2769 15.0535 33.6682 14.7948 31.1515 15.2988C28.6348 15.8029 26.323 17.0469 24.5086 18.8737C22.6941 20.7005 21.4584 23.028 20.9578 25.5619C20.4572 28.0958 20.7142 30.7222 21.6961 33.109C22.6781 35.4959 24.341 37.5359 26.4746 38.9713C28.4703 40.3138 30.7939 41.0708 33.1858 41.1631L31.6672 39.6408C31.4451 39.4172 31.3204 39.1139 31.3204 38.7977C31.3204 38.4815 31.4451 38.1782 31.6672 37.9546C31.8893 37.731 32.1906 37.6053 32.5047 37.6053C32.8188 37.6053 33.12 37.731 33.3421 37.9546L36.8805 41.5171C36.991 41.6275 37.0788 41.7588 37.1386 41.9035C37.1985 42.0482 37.2293 42.2034 37.2293 42.3602C37.2293 42.5169 37.1985 42.6721 37.1386 42.8169C37.0788 42.9616 36.991 43.0929 36.8805 43.2033L33.3421 46.7658C33.2319 46.8758 33.1012 46.9629 32.9575 47.022C32.8138 47.0811 32.6599 47.111 32.5047 47.1101C32.3494 47.111 32.1956 47.0811 32.0519 47.022C31.9082 46.9629 31.7775 46.8758 31.6672 46.7658C31.5567 46.6554 31.4689 46.524 31.4091 46.3793C31.3492 46.2346 31.3184 46.0794 31.3184 45.9227C31.3184 45.7659 31.3492 45.6107 31.4091 45.466C31.4689 45.3213 31.5567 45.1899 31.6672 45.0795L33.2029 43.5401ZM25.4256 34.0478H31.3229C31.6357 34.0478 31.9357 33.9227 32.1569 33.7C32.3781 33.4773 32.5023 33.1752 32.5023 32.8603C32.5023 32.5453 32.3781 32.2433 32.1569 32.0206C31.9357 31.7979 31.6357 31.6728 31.3229 31.6728H27.0886L31.429 27.3147C31.7721 26.9709 32.0436 26.5618 32.2279 26.1112C32.4122 25.6606 32.5055 25.1776 32.5023 24.6903C32.5023 23.7077 32.1146 22.7653 31.4245 22.0705C30.7344 21.3757 29.7984 20.9854 28.8224 20.9854H27.926C27.4428 20.9854 26.9643 21.0812 26.5178 21.2674C26.0713 21.4536 25.6656 21.7265 25.3239 22.0705C24.9822 22.4146 24.7112 22.823 24.5262 23.2725C24.3413 23.722 24.2461 24.2038 24.2461 24.6903V25.7353C24.2461 26.0503 24.3704 26.3523 24.5916 26.575C24.8128 26.7977 25.1128 26.9228 25.4256 26.9228C25.7384 26.9228 26.0384 26.7977 26.2596 26.575C26.4808 26.3523 26.605 26.0503 26.605 25.7353V24.6903C26.605 24.3376 26.7442 23.9993 26.9919 23.7499C27.2397 23.5005 27.5757 23.3603 27.926 23.3603H28.8224C29.083 23.3613 29.3375 23.4398 29.5539 23.586C29.7703 23.7322 29.9389 23.9395 30.0385 24.182C30.1381 24.4244 30.1643 24.6911 30.1137 24.9485C30.0631 25.2059 29.938 25.4425 29.7542 25.6284L24.5882 30.8297C24.4788 30.9406 24.3924 31.0722 24.3337 31.2169C24.275 31.3616 24.2452 31.5165 24.2461 31.6728V32.8603C24.2461 33.1752 24.3704 33.4773 24.5916 33.7C24.8128 33.9227 25.1128 34.0478 25.4256 34.0478ZM40.7598 29.2978H39.5791C38.3279 29.2978 37.1279 28.7974 36.2431 27.9066C35.3583 27.0158 34.8613 25.8076 34.8613 24.5478V22.1728C34.8613 21.8579 34.9855 21.5559 35.2067 21.3332C35.4279 21.1105 35.7279 20.9854 36.0407 20.9854C36.3535 20.9854 36.6535 21.1105 36.8747 21.3332C37.0959 21.5559 37.2202 21.8579 37.2202 22.1728V24.5478C37.2202 25.1777 37.4687 25.7818 37.9111 26.2272C38.3535 26.6726 38.9535 26.9228 39.5791 26.9228H40.7586V22.1728C40.7586 21.8579 40.8828 21.5559 41.104 21.3332C41.3252 21.1105 41.6252 20.9854 41.938 20.9854C42.2508 20.9854 42.5508 21.1105 42.772 21.3332C42.9932 21.5559 43.1175 21.8579 43.1175 22.1728V28.0437C43.1187 28.0658 43.1193 28.088 43.1193 28.1102V32.8602C43.1193 33.1751 42.995 33.4772 42.7738 33.6999C42.5525 33.9226 42.2525 34.0477 41.9396 34.0477C41.6267 34.0477 41.3266 33.9226 41.1053 33.6999C40.8841 33.4772 40.7598 33.1751 40.7598 32.8602V29.2978Z" fill="url(#paint0_linear_133_271)"/>
</g>
<defs>
<linearGradient id="paint0_linear_133_271" x1="46.9581" y1="16.1107" x2="19.2027" y2="40.8098" gradientUnits="userSpaceOnUse">
<stop stop-color="#FF37D1"/>
<stop offset="1" stop-color="#3B35FF"/>
</linearGradient>
<clipPath id="clip0_133_271">
<rect width="65.5682" height="67.0584" fill="white" transform="translate(0.378906 0.36377)"/>
</clipPath>
</defs>
</svg>
