<svg width="320" height="279" viewBox="0 0 320 279" fill="none" xmlns="http://www.w3.org/2000/svg">
<path fill-rule="evenodd" clip-rule="evenodd" d="M0.494141 -1H320.494V279H0.494141V-1ZM0.994141 -0.5H39.9941V38.5H0.994141V-0.5ZM40.9941 -0.5H79.9941V38.5H40.9941V-0.5ZM119.994 -0.5H80.9941V38.5H119.994V-0.5ZM120.994 -0.5H159.994V38.5H120.994V-0.5ZM199.994 -0.5H160.994V38.5H199.994V-0.5ZM200.994 -0.5H239.994V38.5H200.994V-0.5ZM279.994 -0.5H240.994V38.5H279.994V-0.5ZM280.994 -0.5H319.994V38.5H280.994V-0.5ZM39.9941 39.5H0.994141V78.5H39.9941V39.5ZM40.9941 39.5H79.9941V78.5H40.9941V39.5ZM119.994 39.5H80.9941V78.5H119.994V39.5ZM120.994 39.5H159.994V78.5H120.994V39.5ZM199.994 39.5H160.994V78.5H199.994V39.5ZM200.994 39.5H239.994V78.5H200.994V39.5ZM279.994 39.5H240.994V78.5H279.994V39.5ZM280.994 39.5H319.994V78.5H280.994V39.5ZM39.9941 79.5H0.994141V118.5H39.9941V79.5ZM40.9941 79.5H79.9941V118.5H40.9941V79.5ZM119.994 79.5H80.9941V118.5H119.994V79.5ZM120.994 79.5H159.994V118.5H120.994V79.5ZM199.994 79.5H160.994V118.5H199.994V79.5ZM200.994 79.5H239.994V118.5H200.994V79.5ZM279.994 79.5H240.994V118.5H279.994V79.5ZM280.994 79.5H319.994V118.5H280.994V79.5ZM39.9941 119.5H0.994141V158.5H39.9941V119.5ZM40.9941 119.5H79.9941V158.5H40.9941V119.5ZM119.994 119.5H80.9941V158.5H119.994V119.5ZM120.994 119.5H159.994V158.5H120.994V119.5ZM199.994 119.5H160.994V158.5H199.994V119.5ZM200.994 119.5H239.994V158.5H200.994V119.5ZM279.994 119.5H240.994V158.5H279.994V119.5ZM280.994 119.5H319.994V158.5H280.994V119.5ZM39.9941 159.5H0.994141V198.5H39.9941V159.5ZM40.9941 159.5H79.9941V198.5H40.9941V159.5ZM119.994 159.5H80.9941V198.5H119.994V159.5ZM120.994 159.5H159.994V198.5H120.994V159.5ZM199.994 159.5H160.994V198.5H199.994V159.5ZM200.994 159.5H239.994V198.5H200.994V159.5ZM279.994 159.5H240.994V198.5H279.994V159.5ZM280.994 159.5H319.994V198.5H280.994V159.5ZM39.9941 199.5H0.994141V238.5H39.9941V199.5ZM40.9941 199.5H79.9941V238.5H40.9941V199.5ZM119.994 199.5H80.9941V238.5H119.994V199.5ZM120.994 199.5H159.994V238.5H120.994V199.5ZM199.994 199.5H160.994V238.5H199.994V199.5ZM200.994 199.5H239.994V238.5H200.994V199.5ZM279.994 199.5H240.994V238.5H279.994V199.5ZM280.994 199.5H319.994V238.5H280.994V199.5ZM39.9941 239.5H0.994141V278.5H39.9941V239.5ZM40.9941 239.5H79.9941V278.5H40.9941V239.5ZM119.994 239.5H80.9941V278.5H119.994V239.5ZM120.994 239.5H159.994V278.5H120.994V239.5ZM199.994 239.5H160.994V278.5H199.994V239.5ZM200.994 239.5H239.994V278.5H200.994V239.5ZM279.994 239.5H240.994V278.5H279.994V239.5ZM280.994 239.5H319.994V278.5H280.994V239.5Z" fill="url(#paint0_linear_133_175)"/>
<defs>
<linearGradient id="paint0_linear_133_175" x1="320.494" y1="-1" x2="0.494141" y2="-1" gradientUnits="userSpaceOnUse">
<stop stop-color="#30324F"/>
<stop offset="1" stop-color="#232439" stop-opacity="0"/>
</linearGradient>
</defs>
</svg>
