<svg width="320" height="279" viewBox="0 0 320 279" fill="none" xmlns="http://www.w3.org/2000/svg">
<path fill-rule="evenodd" clip-rule="evenodd" d="M319.744 -1H-0.255859V279H319.744V-1ZM319.244 -0.5H280.244V38.5H319.244V-0.5ZM279.244 -0.5H240.244V38.5H279.244V-0.5ZM200.244 -0.5H239.244V38.5H200.244V-0.5ZM199.244 -0.5H160.244V38.5H199.244V-0.5ZM120.244 -0.5H159.244V38.5H120.244V-0.5ZM119.244 -0.5H80.2441V38.5H119.244V-0.5ZM40.2441 -0.5H79.2441V38.5H40.2441V-0.5ZM39.2441 -0.5H0.244141V38.5H39.2441V-0.5ZM280.244 39.5H319.244V78.5H280.244V39.5ZM279.244 39.5H240.244V78.5H279.244V39.5ZM200.244 39.5H239.244V78.5H200.244V39.5ZM199.244 39.5H160.244V78.5H199.244V39.5ZM120.244 39.5H159.244V78.5H120.244V39.5ZM119.244 39.5H80.2441V78.5H119.244V39.5ZM40.2441 39.5H79.2441V78.5H40.2441V39.5ZM39.2441 39.5H0.244141V78.5H39.2441V39.5ZM280.244 79.5H319.244V118.5H280.244V79.5ZM279.244 79.5H240.244V118.5H279.244V79.5ZM200.244 79.5H239.244V118.5H200.244V79.5ZM199.244 79.5H160.244V118.5H199.244V79.5ZM120.244 79.5H159.244V118.5H120.244V79.5ZM119.244 79.5H80.2441V118.5H119.244V79.5ZM40.2441 79.5H79.2441V118.5H40.2441V79.5ZM39.2441 79.5H0.244141V118.5H39.2441V79.5ZM280.244 119.5H319.244V158.5H280.244V119.5ZM279.244 119.5H240.244V158.5H279.244V119.5ZM200.244 119.5H239.244V158.5H200.244V119.5ZM199.244 119.5H160.244V158.5H199.244V119.5ZM120.244 119.5H159.244V158.5H120.244V119.5ZM119.244 119.5H80.2441V158.5H119.244V119.5ZM40.2441 119.5H79.2441V158.5H40.2441V119.5ZM39.2441 119.5H0.244141V158.5H39.2441V119.5ZM280.244 159.5H319.244V198.5H280.244V159.5ZM279.244 159.5H240.244V198.5H279.244V159.5ZM200.244 159.5H239.244V198.5H200.244V159.5ZM199.244 159.5H160.244V198.5H199.244V159.5ZM120.244 159.5H159.244V198.5H120.244V159.5ZM119.244 159.5H80.2441V198.5H119.244V159.5ZM40.2441 159.5H79.2441V198.5H40.2441V159.5ZM39.2441 159.5H0.244141V198.5H39.2441V159.5ZM280.244 199.5H319.244V238.5H280.244V199.5ZM279.244 199.5H240.244V238.5H279.244V199.5ZM200.244 199.5H239.244V238.5H200.244V199.5ZM199.244 199.5H160.244V238.5H199.244V199.5ZM120.244 199.5H159.244V238.5H120.244V199.5ZM119.244 199.5H80.2441V238.5H119.244V199.5ZM40.2441 199.5H79.2441V238.5H40.2441V199.5ZM39.2441 199.5H0.244141V238.5H39.2441V199.5ZM280.244 239.5H319.244V278.5H280.244V239.5ZM279.244 239.5H240.244V278.5H279.244V239.5ZM200.244 239.5H239.244V278.5H200.244V239.5ZM199.244 239.5H160.244V278.5H199.244V239.5ZM120.244 239.5H159.244V278.5H120.244V239.5ZM119.244 239.5H80.2441V278.5H119.244V239.5ZM40.2441 239.5H79.2441V278.5H40.2441V239.5ZM39.2441 239.5H0.244141V278.5H39.2441V239.5Z" fill="url(#paint0_linear_133_203)"/>
<defs>
<linearGradient id="paint0_linear_133_203" x1="-0.255859" y1="-1" x2="319.744" y2="-1" gradientUnits="userSpaceOnUse">
<stop stop-color="#30324F"/>
<stop offset="1" stop-color="#232439" stop-opacity="0"/>
</linearGradient>
</defs>
</svg>
