<svg width="624" height="144" viewBox="0 0 624 144" fill="none" xmlns="http://www.w3.org/2000/svg">
<g filter="url(#filter0_f_2016_12)">
<path d="M312.345 123.548C391.452 123.548 463.215 118.475 515.332 110.225C541.34 106.108 562.752 101.155 577.806 95.5203C585.298 92.7165 591.6 89.6051 596.147 86.0871C600.571 82.6648 604.471 77.9404 604.471 71.8373C604.471 65.7342 600.571 61.0099 596.147 57.5875C591.6 54.0695 585.298 50.9581 577.806 48.1544C562.752 42.5199 541.34 37.5669 515.332 33.4499C463.215 25.1997 391.452 20.1267 312.345 20.1267C233.239 20.1267 161.476 25.1997 109.359 33.4499C83.3511 37.5669 61.9393 42.5199 46.8845 48.1544C39.3931 50.9581 33.0912 54.0695 28.5436 57.5875C24.1197 61.0099 20.2198 65.7342 20.2198 71.8373C20.2198 77.9404 24.1197 82.6648 28.5436 86.0871C33.0912 89.6051 39.3931 92.7165 46.8845 95.5203C61.9393 101.155 83.3511 106.108 109.359 110.225C161.476 118.475 233.239 123.548 312.345 123.548Z" stroke="url(#paint0_radial_2016_12)" stroke-width="12.9902"/>
</g>
<path d="M312.345 123.548C391.452 123.548 463.215 118.475 515.332 110.225C541.34 106.108 562.752 101.155 577.806 95.5203C585.298 92.7165 591.6 89.6051 596.147 86.0871C600.571 82.6648 604.471 77.9404 604.471 71.8373C604.471 65.7342 600.571 61.0099 596.147 57.5875C591.6 54.0695 585.298 50.9581 577.806 48.1544C562.752 42.5199 541.34 37.5669 515.332 33.4499C463.215 25.1997 391.452 20.1267 312.345 20.1267C233.239 20.1267 161.476 25.1997 109.359 33.4499C83.3511 37.5669 61.9393 42.5199 46.8845 48.1544C39.3931 50.9581 33.0912 54.0695 28.5436 57.5875C24.1197 61.0099 20.2198 65.7342 20.2198 71.8373C20.2198 77.9404 24.1197 82.6648 28.5436 86.0871C33.0912 89.6051 39.3931 92.7165 46.8845 95.5203C61.9393 101.155 83.3511 106.108 109.359 110.225C161.476 118.475 233.239 123.548 312.345 123.548Z" stroke="url(#paint1_radial_2016_12)" stroke-width="12.9902"/>
<defs>
<filter id="filter0_f_2016_12" x="0.734424" y="0.641406" width="623.223" height="142.392" filterUnits="userSpaceOnUse" color-interpolation-filters="sRGB">
<feFlood flood-opacity="0" result="BackgroundImageFix"/>
<feBlend mode="normal" in="SourceGraphic" in2="BackgroundImageFix" result="shape"/>
<feGaussianBlur stdDeviation="6.49509" result="effect1_foregroundBlur_2016_12"/>
</filter>
<radialGradient id="paint0_radial_2016_12" cx="0" cy="0" r="1" gradientUnits="userSpaceOnUse" gradientTransform="translate(215.504 80.358) rotate(-9.84424) scale(404.327 1164.49)">
<stop stop-color="#FF3945"/>
<stop offset="0.338542" stop-color="#C74CE7"/>
<stop offset="0.71875" stop-color="#8442EF"/>
<stop offset="1" stop-color="#3737F9"/>
</radialGradient>
<radialGradient id="paint1_radial_2016_12" cx="0" cy="0" r="1" gradientUnits="userSpaceOnUse" gradientTransform="translate(215.504 80.358) rotate(-9.84424) scale(404.327 1164.49)">
<stop stop-color="#FF3945"/>
<stop offset="0.338542" stop-color="#C74CE7"/>
<stop offset="0.71875" stop-color="#8442EF"/>
<stop offset="1" stop-color="#3737F9"/>
</radialGradient>
</defs>
</svg>
