<svg width="114" height="34" viewBox="0 0 114 34" fill="none" xmlns="http://www.w3.org/2000/svg">
<path d="M42.6125 22.3376C41.5704 21.7724 40.7505 20.9865 40.153 19.9939C39.5555 19.0013 39.2637 17.8847 39.2637 16.6577C39.2637 15.4307 39.5555 14.314 40.153 13.3214C40.7505 12.3288 41.5704 11.543 42.6125 10.9778C43.6547 10.4126 44.822 10.123 46.1282 10.123C47.4205 10.123 48.5738 10.3988 49.616 10.9778C50.6582 11.543 51.478 12.315 52.0616 13.3077C52.6453 14.3003 52.9371 15.4169 52.9371 16.6577C52.9371 17.8984 52.6453 19.0151 52.0616 20.0077C51.478 21.0003 50.6582 21.7724 49.616 22.3376C48.5738 22.9028 47.4066 23.1785 46.1282 23.1785C44.822 23.1785 43.6547 22.9028 42.6125 22.3376ZM48.6711 20.9176C49.4214 20.4902 50.019 19.9112 50.4497 19.153C50.8805 18.4085 51.1028 17.5676 51.1028 16.6439C51.1028 15.7202 50.8805 14.8793 50.4497 14.1348C50.019 13.3904 49.4214 12.7976 48.6711 12.3702C47.9207 11.9428 47.0731 11.736 46.1282 11.736C45.1832 11.736 44.3356 11.9428 43.5574 12.3702C42.7932 12.7976 42.1957 13.3766 41.751 14.1348C41.3202 14.8793 41.0979 15.7202 41.0979 16.6439C41.0979 17.5676 41.3202 18.4085 41.751 19.153C42.1818 19.8974 42.7932 20.4902 43.5574 20.9176C44.3217 21.345 45.1832 21.5518 46.1282 21.5518C47.0592 21.5518 47.9207 21.345 48.6711 20.9176Z" fill="white"/>
<path d="M57.592 11.8598V16.3127H64.0396V17.8844H57.592V23.0404H55.7578V10.2744H64.8317V11.8598H57.592Z" fill="white"/>
<path d="M69.2639 11.8598V16.3127H75.7115V17.8844H69.2639V23.0404H67.4297V10.2744H76.5036V11.8598H69.2639Z" fill="white"/>
<path d="M88.4278 21.4412V23.0266H79.0898V10.2744H88.1777V11.8598H80.938V15.7751H87.3856V17.3191H80.938V21.4412H88.4278Z" fill="white"/>
<path d="M100.002 23.0404L97.2227 19.1251C96.8753 19.1527 96.6113 19.1665 96.4167 19.1665H93.2346V23.0541H91.4004V10.2744H96.4167C98.0842 10.2744 99.3904 10.6742 100.349 11.46C101.308 12.2458 101.781 13.3349 101.781 14.7273C101.781 15.7061 101.53 16.5471 101.044 17.2502C100.558 17.9395 99.849 18.4496 98.9458 18.7667L102.003 23.0541H100.002V23.0404ZM99.0291 16.8504C99.6406 16.3541 99.9463 15.6372 99.9463 14.7135C99.9463 13.7899 99.6406 13.0868 99.0291 12.5905C98.4177 12.0942 97.5284 11.846 96.3612 11.846H93.2346V17.5948H96.3751C97.5284 17.5948 98.4177 17.3467 99.0291 16.8504Z" fill="white"/>
<path d="M105.714 22.7374C104.811 22.4341 104.102 22.0481 103.588 21.5793L104.269 20.1594C104.755 20.6005 105.38 20.959 106.159 21.2209C106.923 21.4966 107.715 21.6345 108.521 21.6345C109.591 21.6345 110.383 21.4553 110.911 21.0968C111.439 20.7384 111.703 20.2559 111.703 19.6631C111.703 19.2219 111.564 18.8635 111.272 18.6015C110.98 18.3258 110.633 18.119 110.202 17.9674C109.771 17.8157 109.188 17.6641 108.41 17.4711C107.437 17.2367 106.659 17.0161 106.061 16.7818C105.464 16.5474 104.964 16.189 104.533 15.7202C104.116 15.2377 103.894 14.5898 103.894 13.7764C103.894 13.1009 104.074 12.4805 104.436 11.929C104.797 11.3776 105.339 10.9502 106.075 10.6193C106.812 10.2885 107.729 10.123 108.813 10.123C109.577 10.123 110.313 10.2195 111.05 10.4126C111.786 10.6056 112.412 10.8813 112.94 11.2535L112.356 12.7148C111.814 12.3702 111.244 12.122 110.633 11.9428C110.022 11.7636 109.424 11.6809 108.827 11.6809C107.784 11.6809 107.006 11.8739 106.478 12.2461C105.964 12.6183 105.7 13.1146 105.7 13.7074C105.7 14.1486 105.853 14.507 106.145 14.769C106.437 15.0447 106.798 15.2515 107.242 15.4031C107.673 15.5548 108.271 15.7202 109.021 15.8857C109.994 16.12 110.772 16.3544 111.356 16.575C111.939 16.8093 112.453 17.154 112.87 17.6365C113.287 18.119 113.509 18.7532 113.509 19.5528C113.509 20.2283 113.329 20.8349 112.954 21.3863C112.592 21.9378 112.023 22.3789 111.286 22.696C110.536 23.0131 109.619 23.1785 108.535 23.1785C107.548 23.1785 106.617 23.0269 105.714 22.7374Z" fill="white"/>
<path d="M18.4202 14.5617L21.0048 9.83301H24.2703L20.2406 16.6296L24.3537 23.5365H21.0604L18.4202 18.7389L15.7662 23.5227H12.459L16.5721 16.6158L12.5702 9.83301H15.8356L18.4202 14.5617Z" fill="white"/>
<path d="M3.24549 17.4779C3.24549 8.29636 10.7492 0.838056 20.0176 0.838056C21.1154 0.838056 22.1993 0.948345 23.2414 1.14135C21.3933 0.438258 19.3784 0.0522461 17.2663 0.0522461C7.99783 0.0660322 0.494141 7.51055 0.494141 16.7059C0.494141 24.7984 6.31645 31.5398 14.0425 33.0287C7.71992 30.6437 3.24549 24.5778 3.24549 17.4779Z" fill="#8DC63F"/>
<path d="M22.2678 1.4375C28.3541 3.73979 32.6896 9.58511 32.6896 16.4368C32.6896 25.3013 25.4499 32.4839 16.515 32.4839C15.445 32.4839 14.4167 32.3874 13.4023 32.1806C15.1949 32.8561 17.1264 33.2284 19.1552 33.2284C28.0901 33.2284 35.3298 26.0458 35.3298 17.1813C35.3298 9.37832 29.702 2.87126 22.2678 1.4375Z" fill="#ED1A37"/>
</svg>
