<svg width="587" height="171" viewBox="0 0 587 171" fill="none" xmlns="http://www.w3.org/2000/svg">
<g clip-path="url(#clip0_4_44913)">
<rect x="156.002" y="1.96143" width="267.675" height="137.773" rx="6.11778" fill="#30324B"/>
<path d="M410.65 132.462C410.65 133.16 410.085 133.725 409.387 133.725L373.674 133.725C372.976 133.725 372.411 133.16 372.411 132.462C372.411 131.764 372.976 131.198 373.674 131.198L409.387 131.198C410.085 131.198 410.65 131.764 410.65 132.462Z" fill="#D5CE41"/>
<path d="M369.574 132.462C369.574 133.16 369.008 133.725 368.311 133.725L332.598 133.725C331.9 133.725 331.334 133.16 331.334 132.462C331.334 131.764 331.9 131.198 332.598 131.198L368.311 131.198C369.008 131.198 369.574 131.764 369.574 132.462Z" fill="#D5CE41"/>
<rect x="328.504" y="133.725" width="38.2398" height="2.52715" rx="1.26358" transform="rotate(180 328.504 133.725)" fill="#EA712C"/>
<rect x="287.436" y="133.725" width="38.2398" height="2.52715" rx="1.26358" transform="rotate(180 287.436 133.725)" fill="#EA712C"/>
<rect x="246.357" y="133.725" width="38.2398" height="2.52715" rx="1.26358" transform="rotate(180 246.357 133.725)" fill="#D64730"/>
<path d="M205.289 132.462C205.289 133.16 204.723 133.725 204.025 133.725L168.313 133.725C167.615 133.725 167.049 133.16 167.049 132.462C167.049 131.764 167.615 131.198 168.313 131.198L204.025 131.198C204.723 131.198 205.289 131.764 205.289 132.462Z" fill="#D64730"/>
<path d="M177.802 72.0768V92.1277H173.162V75.8005H169.152V72.0768H177.802ZM183.921 92.3568C183.138 92.3568 182.479 92.0895 181.944 91.5548C181.41 91.0201 181.142 90.3517 181.142 89.5497C181.142 88.7286 181.41 88.0698 181.944 87.5733C182.479 87.0577 183.138 86.7999 183.921 86.7999C184.704 86.7999 185.362 87.0577 185.897 87.5733C186.432 88.0698 186.699 88.7286 186.699 89.5497C186.699 90.3517 186.432 91.0201 185.897 91.5548C185.362 92.0895 184.704 92.3568 183.921 92.3568ZM196.068 72.0768V92.1277H191.428V75.8005H187.418V72.0768H196.068ZM217.913 87.917H214.647V92.1277H210.121V87.917H199.323V84.7948L208.775 72.0768H213.645L204.879 84.136H210.265V80.3836H214.647V84.136H217.913V87.917ZM226.307 72.0768V92.1277H221.667V75.8005H217.657V72.0768H226.307ZM238.384 92.4714C236.722 92.4714 235.242 92.0608 233.944 91.2397C232.645 90.4186 231.624 89.2346 230.879 87.6878C230.153 86.122 229.79 84.2601 229.79 82.1022C229.79 79.9444 230.153 78.092 230.879 76.5452C231.624 74.9794 232.645 73.7859 233.944 72.9647C235.242 72.1436 236.722 71.733 238.384 71.733C240.045 71.733 241.525 72.1436 242.823 72.9647C244.122 73.7859 245.134 74.9794 245.86 76.5452C246.604 78.092 246.977 79.9444 246.977 82.1022C246.977 84.2601 246.604 86.122 245.86 87.6878C245.134 89.2346 244.122 90.4186 242.823 91.2397C241.525 92.0608 240.045 92.4714 238.384 92.4714ZM238.384 88.5472C239.606 88.5472 240.561 88.022 241.248 86.9717C241.955 85.9214 242.308 84.2983 242.308 82.1022C242.308 79.9062 241.955 78.283 241.248 77.2327C240.561 76.1824 239.606 75.6573 238.384 75.6573C237.181 75.6573 236.226 76.1824 235.519 77.2327C234.832 78.283 234.488 79.9062 234.488 82.1022C234.488 84.2983 234.832 85.9214 235.519 86.9717C236.226 88.022 237.181 88.5472 238.384 88.5472ZM258.318 80.2403C260.075 80.5268 261.421 81.1856 262.357 82.2168C263.293 83.2289 263.761 84.4892 263.761 85.9978C263.761 87.1627 263.455 88.2416 262.844 89.2346C262.233 90.2085 261.297 90.9915 260.037 91.5834C258.796 92.1754 257.268 92.4714 255.454 92.4714C254.041 92.4714 252.647 92.29 251.272 91.9272C249.916 91.5453 248.761 91.0106 247.806 90.3231L249.611 86.7712C250.374 87.3441 251.253 87.7929 252.246 88.1175C253.258 88.423 254.289 88.5758 255.339 88.5758C256.504 88.5758 257.421 88.3562 258.089 87.917C258.758 87.4587 259.092 86.819 259.092 85.9978C259.092 84.3556 257.841 83.5344 255.339 83.5344H253.22V80.4695L257.344 75.8005H248.808V72.0768H262.844V75.0844L258.318 80.2403Z" fill="#1BC53C"/>
<path opacity="0.5" d="M195.847 120.61C195.074 120.61 194.384 120.416 193.777 120.03C193.169 119.634 192.691 119.064 192.341 118.318C191.991 117.564 191.816 116.671 191.816 115.64C191.816 114.609 191.991 113.721 192.341 112.976C192.691 112.221 193.169 111.651 193.777 111.264C194.384 110.869 195.074 110.671 195.847 110.671C196.62 110.671 197.31 110.869 197.918 111.264C198.534 111.651 199.018 112.221 199.367 112.976C199.717 113.721 199.892 114.609 199.892 115.64C199.892 116.671 199.717 117.564 199.367 118.318C199.018 119.064 198.534 119.634 197.918 120.03C197.31 120.416 196.62 120.61 195.847 120.61ZM195.847 119.05C196.537 119.05 197.08 118.765 197.476 118.194C197.881 117.623 198.083 116.772 198.083 115.64C198.083 114.508 197.881 113.657 197.476 113.086C197.08 112.516 196.537 112.231 195.847 112.231C195.166 112.231 194.623 112.516 194.218 113.086C193.823 113.657 193.625 114.508 193.625 115.64C193.625 116.772 193.823 117.623 194.218 118.194C194.623 118.765 195.166 119.05 195.847 119.05ZM204.378 110.809V120.472H202.583V112.313H200.54V110.809H204.378ZM207.371 115.309C207.058 115.309 206.792 115.203 206.571 114.991C206.35 114.771 206.239 114.494 206.239 114.163C206.239 113.823 206.345 113.547 206.557 113.335C206.778 113.123 207.049 113.017 207.371 113.017C207.693 113.017 207.96 113.123 208.172 113.335C208.393 113.547 208.503 113.823 208.503 114.163C208.503 114.494 208.393 114.771 208.172 114.991C207.951 115.203 207.684 115.309 207.371 115.309ZM207.371 120.568C207.058 120.568 206.792 120.462 206.571 120.251C206.35 120.03 206.239 119.754 206.239 119.423C206.239 119.082 206.345 118.806 206.557 118.594C206.778 118.383 207.049 118.277 207.371 118.277C207.693 118.277 207.96 118.383 208.172 118.594C208.393 118.806 208.503 119.082 208.503 119.423C208.503 119.754 208.393 120.03 208.172 120.251C207.951 120.462 207.684 120.568 207.371 120.568ZM212.688 114.55C214.05 114.55 215.058 114.817 215.711 115.35C216.364 115.875 216.691 116.593 216.691 117.504C216.691 118.084 216.549 118.608 216.263 119.077C215.978 119.547 215.55 119.92 214.979 120.196C214.409 120.472 213.705 120.61 212.867 120.61C212.177 120.61 211.51 120.513 210.866 120.32C210.222 120.117 209.679 119.841 209.237 119.492L209.996 118.097C210.355 118.392 210.783 118.627 211.28 118.801C211.786 118.967 212.306 119.05 212.84 119.05C213.475 119.05 213.972 118.921 214.331 118.663C214.699 118.396 214.883 118.033 214.883 117.573C214.883 117.076 214.685 116.703 214.289 116.455C213.903 116.197 213.235 116.068 212.288 116.068H209.955L210.452 110.809H216.125V112.313H211.97L211.763 114.55H212.688ZM221.773 114.798C222.665 114.909 223.346 115.212 223.816 115.709C224.285 116.206 224.52 116.827 224.52 117.573C224.52 118.134 224.377 118.645 224.092 119.105C223.806 119.565 223.374 119.933 222.794 120.209C222.223 120.476 221.524 120.61 220.696 120.61C220.006 120.61 219.338 120.513 218.694 120.32C218.059 120.117 217.516 119.841 217.065 119.492L217.838 118.097C218.188 118.392 218.611 118.627 219.108 118.801C219.614 118.967 220.134 119.05 220.668 119.05C221.303 119.05 221.8 118.921 222.159 118.663C222.527 118.396 222.711 118.038 222.711 117.587C222.711 117.136 222.536 116.786 222.187 116.537C221.846 116.28 221.322 116.151 220.613 116.151H219.729V114.922L221.924 112.313H217.535V110.809H224.119V112.01L221.773 114.798Z" fill="white"/>
<g opacity="0.5">
<path fill-rule="evenodd" clip-rule="evenodd" d="M175.671 107.157C170.907 107.157 167.049 110.931 167.049 115.581C167.049 120.231 170.907 124.004 175.671 124.004C180.443 124.004 184.309 120.231 184.309 115.581C184.309 110.931 180.443 107.157 175.671 107.157ZM175.682 122.318C171.867 122.318 168.777 119.302 168.777 115.579C168.777 111.856 171.867 108.84 175.682 108.84C179.496 108.84 182.586 111.856 182.586 115.579C182.586 119.302 179.496 122.318 175.682 122.318ZM174.818 111.368H176.113V115.791L179.997 118.04L179.349 119.076L174.818 116.422V111.368Z" fill="white"/>
</g>
<g opacity="0.5">
<path fill-rule="evenodd" clip-rule="evenodd" d="M271.845 107.157C267.081 107.157 263.215 110.931 263.215 115.581C263.215 120.231 267.081 124.005 271.845 124.005C276.609 124.005 280.475 120.231 280.475 115.581C280.475 110.931 276.609 107.157 271.845 107.157ZM275.504 112.009C274.494 111.024 273.174 110.527 271.845 110.527V115.581L268.186 119.153C270.205 121.124 273.485 121.124 275.513 119.153C277.532 117.181 277.532 113.98 275.504 112.009ZM264.94 115.581C264.94 119.304 268.03 122.32 271.845 122.32C275.659 122.32 278.749 119.304 278.749 115.581C278.749 111.858 275.659 108.842 271.845 108.842C268.03 108.842 264.94 111.858 264.94 115.581Z" fill="white"/>
</g>
<path opacity="0.5" d="M291.004 114.55C292.366 114.55 293.373 114.817 294.027 115.35C294.68 115.875 295.007 116.593 295.007 117.504C295.007 118.084 294.864 118.608 294.579 119.077C294.294 119.547 293.866 119.92 293.295 120.196C292.724 120.472 292.02 120.61 291.183 120.61C290.493 120.61 289.826 120.513 289.181 120.32C288.537 120.117 287.994 119.841 287.553 119.492L288.312 118.097C288.671 118.392 289.099 118.627 289.596 118.801C290.102 118.967 290.622 119.05 291.155 119.05C291.79 119.05 292.287 118.921 292.646 118.663C293.014 118.396 293.198 118.033 293.198 117.573C293.198 117.076 293.001 116.703 292.605 116.455C292.218 116.197 291.551 116.068 290.603 116.068H288.27L288.767 110.809H294.441V112.313H290.286L290.079 114.55H291.004ZM309.686 113.017C310.615 113.017 311.351 113.289 311.894 113.832C312.437 114.366 312.709 115.171 312.709 116.248V120.472H310.983V116.468C310.983 115.824 310.84 115.341 310.555 115.019C310.27 114.688 309.86 114.522 309.327 114.522C308.747 114.522 308.282 114.715 307.932 115.102C307.583 115.479 307.408 116.022 307.408 116.731V120.472H305.682V116.468C305.682 115.824 305.54 115.341 305.254 115.019C304.969 114.688 304.56 114.522 304.026 114.522C303.437 114.522 302.967 114.711 302.618 115.088C302.277 115.465 302.107 116.013 302.107 116.731V120.472H300.381V113.1H302.024V114.039C302.3 113.708 302.645 113.455 303.059 113.28C303.474 113.105 303.934 113.017 304.44 113.017C304.992 113.017 305.48 113.123 305.903 113.335C306.336 113.537 306.676 113.841 306.925 114.246C307.228 113.859 307.619 113.56 308.098 113.349C308.577 113.128 309.106 113.017 309.686 113.017ZM314.914 113.1H316.639V120.472H314.914V113.1ZM315.783 111.885C315.47 111.885 315.208 111.789 314.996 111.596C314.785 111.393 314.679 111.145 314.679 110.85C314.679 110.556 314.785 110.312 314.996 110.119C315.208 109.916 315.47 109.815 315.783 109.815C316.096 109.815 316.358 109.911 316.57 110.105C316.782 110.289 316.888 110.523 316.888 110.809C316.888 111.112 316.782 111.37 316.57 111.582C316.368 111.784 316.105 111.885 315.783 111.885ZM323.087 113.017C324.016 113.017 324.762 113.289 325.323 113.832C325.884 114.375 326.165 115.18 326.165 116.248V120.472H324.439V116.468C324.439 115.824 324.288 115.341 323.984 115.019C323.68 114.688 323.248 114.522 322.686 114.522C322.051 114.522 321.55 114.715 321.182 115.102C320.814 115.479 320.629 116.027 320.629 116.745V120.472H318.904V113.1H320.547V114.053C320.832 113.712 321.191 113.455 321.623 113.28C322.056 113.105 322.544 113.017 323.087 113.017Z" fill="white"/>
<g opacity="0.5">
<path fill-rule="evenodd" clip-rule="evenodd" d="M368.038 115.505L372.008 119.38L370.799 120.559L365.621 115.505L370.799 110.451L372.008 111.63L368.038 115.505ZM380.466 115.505L376.496 119.38L377.704 120.559L382.882 115.505L377.704 110.451L376.496 111.63L380.466 115.505Z" fill="white"/>
</g>
<path opacity="0.5" d="M398.037 120.472L398.023 114.067L394.848 119.368H394.048L390.873 114.15V120.472H389.161V110.809H390.638L394.476 117.214L398.244 110.809H399.721L399.735 120.472H398.037ZM408.612 118.236H403.781L402.828 120.472H400.978L405.327 110.809H407.094L411.456 120.472H409.578L408.612 118.236ZM408.019 116.828L406.196 112.604L404.388 116.828H408.019Z" fill="white"/>
<path d="M392.368 72.5863C393.365 70.9016 395.856 70.9016 396.853 72.5863L406.943 89.6446C407.939 91.3294 406.694 93.4354 404.701 93.4354H384.521C382.528 93.4354 381.282 91.3294 382.278 89.6446L392.368 72.5863Z" fill="#1BC53C"/>
<rect x="168.908" y="8.65283" width="66.2443" height="22.3727" fill="#30324B"/>
<rect x="365.869" y="49.9111" width="5.17819" height="6.31789" rx="2.50986" fill="white"/>
<rect x="374.938" y="47.3845" width="5.17819" height="8.84505" rx="2.50986" fill="white"/>
<rect x="383.992" y="44.8562" width="5.17819" height="11.3722" rx="2.50986" fill="white"/>
<rect x="393.053" y="42.3296" width="5.17819" height="13.8994" rx="2.50986" fill="white"/>
<rect opacity="0.2" x="402.749" y="40.4309" width="3.92326" height="15.1716" rx="1.88239" stroke="white" stroke-width="1.25493"/>
<path d="M191.266 9.48022H212.795V31.0243H191.266V9.48022Z" fill="#505662"/>
<path d="M213.623 9.48022H235.152V31.0243H213.623V9.48022Z" fill="#505662"/>
<path d="M235.975 9.48022H254.44C256.132 9.48022 257.504 10.8522 257.504 12.5445V27.96C257.504 29.6523 256.132 31.0243 254.44 31.0243H235.975V9.48022Z" fill="#505662"/>
<path d="M243.805 20.5613C243.075 20.5613 242.478 20.3149 242.013 19.8221C241.559 19.3198 241.331 18.6516 241.331 17.8177C241.331 16.9837 241.559 16.3203 242.013 15.8275C242.478 15.3252 243.075 15.0741 243.805 15.0741C244.534 15.0741 245.127 15.3252 245.582 15.8275C246.036 16.3203 246.264 16.9837 246.264 17.8177C246.264 18.6516 246.036 19.3198 245.582 19.8221C245.127 20.3149 244.534 20.5613 243.805 20.5613ZM249.732 15.1878H251.424L244.629 25.1387H242.937L249.732 15.1878ZM243.805 19.3956C244.127 19.3956 244.378 19.2629 244.558 18.9976C244.748 18.7322 244.842 18.3389 244.842 17.8177C244.842 17.2964 244.748 16.9031 244.558 16.6378C244.378 16.3724 244.127 16.2397 243.805 16.2397C243.492 16.2397 243.241 16.3772 243.051 16.652C242.862 16.9173 242.767 17.3059 242.767 17.8177C242.767 18.3294 242.862 18.7227 243.051 18.9976C243.241 19.2629 243.492 19.3956 243.805 19.3956ZM250.557 25.2524C250.083 25.2524 249.657 25.1434 249.278 24.9254C248.908 24.698 248.619 24.3758 248.41 23.9588C248.202 23.5418 248.098 23.0585 248.098 22.5088C248.098 21.9591 248.202 21.4758 248.41 21.0588C248.619 20.6418 248.908 20.3243 249.278 20.1064C249.657 19.8789 250.083 19.7652 250.557 19.7652C251.287 19.7652 251.879 20.0163 252.334 20.5186C252.798 21.0114 253.03 21.6748 253.03 22.5088C253.03 23.3428 252.798 24.0109 252.334 24.5132C251.879 25.006 251.287 25.2524 250.557 25.2524ZM250.557 24.0867C250.879 24.0867 251.13 23.954 251.31 23.6887C251.5 23.4139 251.595 23.0206 251.595 22.5088C251.595 21.997 251.5 21.6085 251.31 21.3431C251.13 21.0683 250.879 20.9309 250.557 20.9309C250.244 20.9309 249.993 21.0635 249.804 21.3289C249.614 21.5943 249.519 21.9876 249.519 22.5088C249.519 23.03 249.614 23.4233 249.804 23.6887C249.993 23.954 250.244 24.0867 250.557 24.0867Z" fill="white"/>
<path d="M223.97 14.8309C224.285 14.2856 225.072 14.2856 225.386 14.8309L230.394 23.5096C230.708 24.0547 230.315 24.7358 229.685 24.7358H219.671C219.042 24.7358 218.648 24.0547 218.963 23.5096L223.97 14.8309Z" fill="white"/>
<path fill-rule="evenodd" clip-rule="evenodd" d="M197.478 22.8271C197.852 22.6291 197.852 22.233 197.852 21.837C196.916 19.8567 197.291 17.2824 198.787 15.6982C200.844 13.5199 204.023 13.5199 206.08 15.6982C207.576 17.2824 207.95 19.8567 207.015 21.837C206.828 22.233 207.015 22.6291 207.389 22.8271C207.763 23.0251 208.137 22.8271 208.324 22.4311C209.446 19.8567 209.072 16.6883 207.015 14.7081C204.584 12.1338 200.47 12.1338 197.852 14.7081C195.981 16.6883 195.42 19.8567 196.543 22.4311C196.917 22.8271 197.291 22.8271 197.478 22.8271ZM202.527 21.4409L205.145 24.2133C203.649 25.4014 201.405 25.4014 199.722 24.2133L202.527 21.4409ZM206.641 24.8074C206.828 24.6093 206.828 24.0153 206.641 23.8172L203.088 20.0548C202.901 19.8567 202.34 19.8567 202.153 20.0548L198.6 23.8172C198.413 24.0153 198.413 24.6093 198.6 24.8074C200.657 27.1837 204.397 27.1837 206.641 24.8074Z" fill="white"/>
<path d="M168.908 12.5461C168.908 10.8528 170.281 9.48022 171.974 9.48022H190.438V31.0243H171.974C170.281 31.0243 168.908 29.6517 168.908 27.9584V12.5461Z" fill="#505662"/>
<path fill-rule="evenodd" clip-rule="evenodd" d="M181.337 26.7952C180.427 26.7952 179.972 26.2989 179.744 25.5545L177.696 14.8841L175.648 20.3434C175.421 20.5915 175.193 20.8397 174.966 20.8397H172.69C172.235 20.8397 172.008 20.3434 172.008 20.0952C172.008 19.5989 172.463 19.3508 172.69 19.3508H174.511L176.559 14.3879C176.786 13.6434 177.469 13.3953 178.151 13.3953C178.834 13.3953 179.289 13.8916 179.516 14.636L181.564 25.3063L183.612 19.8471C183.84 19.5989 184.067 19.3508 184.295 19.3508H186.57C187.025 19.3508 187.253 19.8471 187.253 20.0952C187.253 20.5915 186.798 20.8397 186.57 20.8397H184.75L182.702 25.8026C182.474 26.2989 182.019 26.7952 181.337 26.7952Z" fill="white"/>
<path d="M181.981 53.1109V55.8301H170.644V41.1882H181.709V43.9074H174.012V47.0868H180.81V49.7223H174.012V53.1109H181.981ZM190.764 56.0811C188.673 56.0811 187.041 55.5024 185.87 54.345C184.712 53.1876 184.134 51.5351 184.134 49.3876V41.1882H187.522V49.2621C187.522 51.8837 188.61 53.1945 190.785 53.1945C191.845 53.1945 192.654 52.8808 193.212 52.2533C193.769 51.6118 194.048 50.6148 194.048 49.2621V41.1882H197.395V49.3876C197.395 51.5351 196.809 53.1876 195.638 54.345C194.481 55.5024 192.856 56.0811 190.764 56.0811ZM209.654 55.8301L206.83 51.7513H206.663H203.714V55.8301H200.325V41.1882H206.663C207.96 41.1882 209.082 41.4043 210.031 41.8366C210.993 42.2689 211.732 42.8825 212.248 43.6773C212.764 44.4721 213.022 45.4134 213.022 46.5011C213.022 47.5888 212.757 48.53 212.227 49.3249C211.711 50.1058 210.972 50.7054 210.01 51.1238L213.294 55.8301H209.654ZM209.591 46.5011C209.591 45.6784 209.326 45.0509 208.797 44.6186C208.267 44.1723 207.493 43.9492 206.475 43.9492H203.714V49.053H206.475C207.493 49.053 208.267 48.8299 208.797 48.3836C209.326 47.9374 209.591 47.3099 209.591 46.5011ZM221.793 56.0811C219.702 56.0811 218.07 55.5024 216.899 54.345C215.741 53.1876 215.163 51.5351 215.163 49.3876V41.1882H218.551V49.2621C218.551 51.8837 219.639 53.1945 221.814 53.1945C222.874 53.1945 223.683 52.8808 224.241 52.2533C224.798 51.6118 225.077 50.6148 225.077 49.2621V41.1882H228.424V49.3876C228.424 51.5351 227.838 53.1876 226.667 54.345C225.51 55.5024 223.885 56.0811 221.793 56.0811ZM236.165 56.0811C235.008 56.0811 233.885 55.9277 232.798 55.6209C231.724 55.3002 230.859 54.8888 230.204 54.3868L231.354 51.8349C231.982 52.2951 232.728 52.6646 233.592 52.9435C234.457 53.2224 235.322 53.3619 236.186 53.3619C237.148 53.3619 237.859 53.2224 238.32 52.9435C238.78 52.6507 239.01 52.2672 239.01 51.7931C239.01 51.4445 238.87 51.1586 238.592 50.9355C238.327 50.6984 237.978 50.5102 237.546 50.3707C237.127 50.2313 236.556 50.0779 235.831 49.9106C234.715 49.6456 233.802 49.3807 233.09 49.1157C232.379 48.8508 231.766 48.4255 231.25 47.8398C230.748 47.2541 230.497 46.4732 230.497 45.4971C230.497 44.6465 230.727 43.8795 231.187 43.1962C231.647 42.499 232.337 41.9482 233.258 41.5438C234.192 41.1394 235.329 40.9372 236.667 40.9372C237.601 40.9372 238.515 41.0487 239.407 41.2718C240.3 41.495 241.081 41.8157 241.75 42.234L240.704 44.8068C239.352 44.0399 237.999 43.6564 236.646 43.6564C235.698 43.6564 234.994 43.8098 234.534 44.1166C234.087 44.4233 233.864 44.8277 233.864 45.3297C233.864 45.8318 234.122 46.2083 234.638 46.4593C235.168 46.6963 235.97 46.9334 237.044 47.1704C238.159 47.4354 239.073 47.7003 239.784 47.9653C240.495 48.2302 241.102 48.6486 241.604 49.2203C242.12 49.792 242.378 50.566 242.378 51.5421C242.378 52.3788 242.14 53.1457 241.666 53.843C241.206 54.5263 240.509 55.0701 239.575 55.4745C238.64 55.8789 237.504 56.0811 236.165 56.0811ZM244.275 41.1882H250.926C252.516 41.1882 253.917 41.495 255.131 42.1085C256.358 42.7081 257.306 43.5588 257.975 44.6604C258.659 45.762 259 47.0449 259 48.5091C259 49.9733 258.659 51.2562 257.975 52.3579C257.306 53.4595 256.358 54.3171 255.131 54.9306C253.917 55.5303 252.516 55.8301 250.926 55.8301H244.275V41.1882ZM250.759 53.0481C252.223 53.0481 253.387 52.6437 254.252 51.8349C255.131 51.0122 255.57 49.9036 255.57 48.5091C255.57 47.1147 255.131 46.013 254.252 45.2042C253.387 44.3815 252.223 43.9701 250.759 43.9701H247.663V53.0481H250.759Z" fill="white"/>
</g>
<path d="M516.012 10.9238C516.012 12.6458 514.668 13.7238 512.358 13.7238C510.944 13.7238 509.656 13.3038 508.704 12.2258L509.642 11.3858C510.328 12.1558 511.308 12.5198 512.442 12.5198C513.856 12.5198 514.682 11.9458 514.682 10.9798C514.682 10.0418 513.898 9.46782 512.246 9.20182C510.076 8.85182 508.984 7.89982 508.984 6.34582C508.984 4.69382 510.23 3.69982 512.386 3.69982C513.674 3.69982 514.85 4.06382 515.662 4.90382L514.724 5.71582C514.122 5.12782 513.338 4.87582 512.428 4.87582C511.084 4.87582 510.314 5.42182 510.314 6.33182C510.314 7.21382 511.028 7.73182 512.596 7.98382C514.85 8.33382 516.012 9.32782 516.012 10.9238ZM517.25 4.46982C517.25 4.00782 517.6 3.67182 518.062 3.67182C518.524 3.67182 518.86 4.00782 518.86 4.46982C518.86 4.93182 518.524 5.28182 518.062 5.28182C517.6 5.28182 517.25 4.93182 517.25 4.46982ZM518.692 6.61182V13.6118H517.432V6.61182H518.692ZM525.229 7.73182V6.61182H526.419V13.1218C526.419 15.0958 525.229 16.2438 523.143 16.2438C522.121 16.2438 521.183 15.9638 520.413 15.4738L521.001 14.5218C521.617 14.9138 522.387 15.1378 523.129 15.1378C524.459 15.1378 525.159 14.4238 525.159 13.1218V12.2538C524.725 12.9958 523.997 13.4018 523.017 13.4018C521.169 13.4018 520.119 12.1418 520.119 9.95782C520.119 7.75982 521.169 6.49982 523.003 6.49982C524.039 6.49982 524.781 6.93382 525.229 7.73182ZM521.379 9.94382C521.379 11.4558 522.037 12.2818 523.269 12.2818C524.487 12.2818 525.159 11.4558 525.159 9.94382C525.159 8.44582 524.487 7.61982 523.269 7.61982C522.037 7.61982 521.379 8.44582 521.379 9.94382ZM529.583 9.27182V13.6118H528.323V6.61182H529.513V7.47982C530.003 6.82182 530.717 6.49982 531.655 6.49982C533.279 6.49982 534.203 7.45182 534.203 9.08982V13.6118H532.943V9.20182C532.943 8.19382 532.327 7.61982 531.277 7.61982C530.213 7.61982 529.583 8.22182 529.583 9.27182ZM536.416 8.31982L535.758 7.46582C536.514 6.83582 537.424 6.49982 538.516 6.49982C540.238 6.49982 541.162 7.31182 541.162 8.80982V11.8478C541.162 12.4218 541.428 12.7858 541.89 12.8698L541.512 13.7098C540.826 13.7098 540.336 13.4298 540.084 12.9258C539.706 13.4158 538.894 13.7238 537.928 13.7238C536.374 13.7238 535.506 12.9818 535.506 11.7498C535.506 10.4338 536.472 9.60782 538.11 9.52382L539.902 9.42582V8.85182C539.902 8.05382 539.37 7.59182 538.404 7.59182C537.662 7.59182 536.962 7.84382 536.416 8.31982ZM539.902 10.3358L538.222 10.4198C537.256 10.4618 536.71 10.9098 536.71 11.6238C536.71 12.3378 537.228 12.7298 538.222 12.7298C539.286 12.7298 539.902 12.2678 539.902 11.4138V10.3358ZM544.962 12.6318C545.102 12.6318 545.242 12.6038 545.396 12.5618L545.466 13.5978C545.172 13.6678 544.92 13.6818 544.696 13.6818C543.576 13.6818 542.946 13.0938 542.946 12.0438V3.81182H544.206V11.8478C544.206 12.3658 544.458 12.6318 544.962 12.6318ZM550.932 9.81782V13.6118H549.602V3.81182H553.2C555.202 3.81182 556.462 4.95982 556.462 6.79382C556.462 8.64182 555.188 9.81782 553.2 9.81782H550.932ZM555.118 6.79382C555.118 5.63182 554.376 5.00182 553.018 5.00182H550.932V8.62782H553.032C554.376 8.62782 555.118 7.96982 555.118 6.79382ZM563.383 10.1118C563.383 12.4078 562.235 13.7238 560.219 13.7238C558.217 13.7238 557.083 12.4078 557.083 10.1118C557.083 7.81582 558.217 6.49982 560.219 6.49982C562.235 6.49982 563.383 7.81582 563.383 10.1118ZM558.343 10.1118C558.343 11.7218 559.001 12.5898 560.219 12.5898C561.451 12.5898 562.123 11.7218 562.123 10.1118C562.123 8.48782 561.451 7.61982 560.219 7.61982C559.001 7.61982 558.343 8.48782 558.343 10.1118ZM573.925 6.61182L571.811 13.6118H570.467L568.857 8.24982L567.261 13.6118H565.903L563.803 6.61182H565.119L566.631 12.0438L568.255 6.61182H569.459L571.083 12.0438L572.609 6.61182H573.925ZM577.691 13.7238C575.577 13.7238 574.345 12.4218 574.345 10.0838C574.345 7.84382 575.493 6.49982 577.425 6.49982C579.357 6.49982 580.435 7.80182 580.435 10.0698V10.4758H575.591C575.619 11.8618 576.417 12.6318 577.733 12.6318C578.447 12.6318 579.091 12.3938 579.581 11.9038L580.323 12.6878C579.637 13.3458 578.811 13.7238 577.691 13.7238ZM577.467 7.54982C576.361 7.54982 575.675 8.27782 575.591 9.56582H579.273C579.217 8.27782 578.559 7.54982 577.467 7.54982ZM581.879 13.6118V6.61182H583.069V7.77382C583.531 6.94782 584.259 6.49982 585.253 6.49982C585.659 6.49982 586.009 6.56982 586.317 6.70982L585.813 7.87182C585.589 7.73182 585.295 7.66182 584.959 7.66182C583.797 7.66182 583.139 8.51582 583.139 9.99982V13.6118H581.879Z" fill="white"/>
<path d="M418.459 45.4221L424.275 45.4221C426.486 45.4221 428.278 43.6299 428.278 41.4191L428.278 24.3336C428.278 22.1228 430.071 20.3306 432.281 20.3306L456.869 20.3306L499.918 20.3307L586.017 20.3307" stroke="#544FFF" stroke-width="1.35993"/>
<circle cx="416.595" cy="45.321" r="3.37476" fill="white" stroke="#544FFF" stroke-width="1.35993"/>
<path d="M534.426 121.347V125.743H533.096V115.943H534.426V120.157H539.186V115.943H540.516V125.743H539.186V121.347H534.426ZM545.468 125.855C543.354 125.855 542.122 124.553 542.122 122.215C542.122 119.975 543.27 118.631 545.202 118.631C547.134 118.631 548.212 119.933 548.212 122.201V122.607H543.368C543.396 123.993 544.194 124.763 545.51 124.763C546.224 124.763 546.868 124.525 547.358 124.035L548.1 124.819C547.414 125.477 546.588 125.855 545.468 125.855ZM545.244 119.681C544.138 119.681 543.452 120.409 543.368 121.697H547.05C546.994 120.409 546.336 119.681 545.244 119.681ZM550.007 120.451L549.349 119.597C550.105 118.967 551.015 118.631 552.107 118.631C553.829 118.631 554.753 119.443 554.753 120.941V123.979C554.753 124.553 555.019 124.917 555.481 125.001L555.103 125.841C554.417 125.841 553.927 125.561 553.675 125.057C553.297 125.547 552.485 125.855 551.519 125.855C549.965 125.855 549.097 125.113 549.097 123.881C549.097 122.565 550.063 121.739 551.701 121.655L553.493 121.557V120.983C553.493 120.185 552.961 119.723 551.995 119.723C551.253 119.723 550.553 119.975 550.007 120.451ZM553.493 122.467L551.813 122.551C550.847 122.593 550.301 123.041 550.301 123.755C550.301 124.469 550.819 124.861 551.813 124.861C552.877 124.861 553.493 124.399 553.493 123.545V122.467ZM555.727 118.743H556.749V116.923L558.009 116.461V118.743H559.605V119.723H558.009V123.853C558.009 124.399 558.345 124.721 558.933 124.721C559.101 124.721 559.339 124.693 559.577 124.637L559.689 125.673C559.367 125.743 559.031 125.785 558.737 125.785C557.463 125.785 556.749 125.085 556.749 123.867V119.723H555.727V118.743ZM562.121 121.403V125.743H560.861V118.743H562.051V119.583C562.457 118.981 563.185 118.631 564.025 118.631C564.949 118.631 565.705 119.051 566.069 119.821C566.503 119.065 567.301 118.631 568.337 118.631C569.877 118.631 570.801 119.583 570.801 121.221V125.743H569.541V121.333C569.541 120.325 568.981 119.751 568.015 119.751C567.021 119.751 566.461 120.353 566.461 121.403V125.743H565.201V121.333C565.201 120.325 564.641 119.751 563.675 119.751C562.681 119.751 562.121 120.353 562.121 121.403ZM573.015 120.451L572.357 119.597C573.113 118.967 574.023 118.631 575.115 118.631C576.837 118.631 577.761 119.443 577.761 120.941V123.979C577.761 124.553 578.027 124.917 578.489 125.001L578.111 125.841C577.425 125.841 576.935 125.561 576.683 125.057C576.305 125.547 575.493 125.855 574.527 125.855C572.973 125.855 572.105 125.113 572.105 123.881C572.105 122.565 573.071 121.739 574.709 121.655L576.501 121.557V120.983C576.501 120.185 575.969 119.723 575.003 119.723C574.261 119.723 573.561 119.975 573.015 120.451ZM576.501 122.467L574.821 122.551C573.855 122.593 573.309 123.041 573.309 123.755C573.309 124.469 573.827 124.861 574.821 124.861C575.885 124.861 576.501 124.399 576.501 123.545V122.467ZM580.735 119.863C581.169 119.065 581.911 118.631 582.933 118.631C584.753 118.631 585.803 119.947 585.803 122.243C585.803 124.539 584.767 125.855 582.933 125.855C581.953 125.855 581.239 125.449 580.805 124.693V128.263H579.545V118.743H580.735V119.863ZM584.543 122.243C584.543 120.633 583.885 119.751 582.681 119.751C581.463 119.751 580.805 120.619 580.805 122.243C580.805 123.853 581.463 124.721 582.681 124.721C583.885 124.721 584.543 123.853 584.543 122.243Z" fill="white"/>
<path d="M586.018 132.462L499.919 132.462L456.869 132.462L416.951 132.462" stroke="#544FFF" stroke-width="1.35993"/>
<circle cx="416.515" cy="132.462" r="3.37476" fill="white" stroke="#544FFF" stroke-width="1.35993"/>
<path d="M556.244 42.064C556.244 43.786 554.9 44.864 552.59 44.864C551.176 44.864 549.888 44.444 548.936 43.366L549.874 42.526C550.56 43.296 551.54 43.66 552.674 43.66C554.088 43.66 554.914 43.086 554.914 42.12C554.914 41.182 554.13 40.608 552.478 40.342C550.308 39.992 549.216 39.04 549.216 37.486C549.216 35.834 550.462 34.84 552.618 34.84C553.906 34.84 555.082 35.204 555.894 36.044L554.956 36.856C554.354 36.268 553.57 36.016 552.66 36.016C551.316 36.016 550.546 36.562 550.546 37.472C550.546 38.354 551.26 38.872 552.828 39.124C555.082 39.474 556.244 40.468 556.244 42.064ZM557.482 35.61C557.482 35.148 557.832 34.812 558.294 34.812C558.756 34.812 559.092 35.148 559.092 35.61C559.092 36.072 558.756 36.422 558.294 36.422C557.832 36.422 557.482 36.072 557.482 35.61ZM558.924 37.752V44.752H557.664V37.752H558.924ZM565.461 38.872V37.752H566.651V44.262C566.651 46.236 565.461 47.384 563.375 47.384C562.353 47.384 561.415 47.104 560.645 46.614L561.233 45.662C561.849 46.054 562.619 46.278 563.361 46.278C564.691 46.278 565.391 45.564 565.391 44.262V43.394C564.957 44.136 564.229 44.542 563.249 44.542C561.401 44.542 560.351 43.282 560.351 41.098C560.351 38.9 561.401 37.64 563.235 37.64C564.271 37.64 565.013 38.074 565.461 38.872ZM561.611 41.084C561.611 42.596 562.269 43.422 563.501 43.422C564.719 43.422 565.391 42.596 565.391 41.084C565.391 39.586 564.719 38.76 563.501 38.76C562.269 38.76 561.611 39.586 561.611 41.084ZM569.815 40.412V44.752H568.555V37.752H569.745V38.62C570.235 37.962 570.949 37.64 571.887 37.64C573.511 37.64 574.435 38.592 574.435 40.23V44.752H573.175V40.342C573.175 39.334 572.559 38.76 571.509 38.76C570.445 38.76 569.815 39.362 569.815 40.412ZM576.648 39.46L575.99 38.606C576.746 37.976 577.656 37.64 578.748 37.64C580.47 37.64 581.394 38.452 581.394 39.95V42.988C581.394 43.562 581.66 43.926 582.122 44.01L581.744 44.85C581.058 44.85 580.568 44.57 580.316 44.066C579.938 44.556 579.126 44.864 578.16 44.864C576.606 44.864 575.738 44.122 575.738 42.89C575.738 41.574 576.704 40.748 578.342 40.664L580.134 40.566V39.992C580.134 39.194 579.602 38.732 578.636 38.732C577.894 38.732 577.194 38.984 576.648 39.46ZM580.134 41.476L578.454 41.56C577.488 41.602 576.942 42.05 576.942 42.764C576.942 43.478 577.46 43.87 578.454 43.87C579.518 43.87 580.134 43.408 580.134 42.554V41.476ZM585.194 43.772C585.334 43.772 585.474 43.744 585.628 43.702L585.698 44.738C585.404 44.808 585.152 44.822 584.928 44.822C583.808 44.822 583.178 44.234 583.178 43.184V34.952H584.438V42.988C584.438 43.506 584.69 43.772 585.194 43.772Z" fill="white"/>
<path d="M414.902 82.2698L424.699 82.27C426.91 82.27 428.702 80.4778 428.702 78.2669L428.702 55.4737C428.702 53.2629 430.494 51.4706 432.705 51.4706L456.869 51.4706L499.919 51.4707L586.017 51.4707" stroke="#544FFF" stroke-width="1.35993"/>
<circle cx="416.595" cy="82.3791" r="3.37476" fill="white" stroke="#544FFF" stroke-width="1.35993"/>
<path d="M487.793 68.0864C487.793 69.8084 486.449 70.8864 484.139 70.8864C482.725 70.8864 481.437 70.4664 480.485 69.3884L481.423 68.5484C482.109 69.3184 483.089 69.6824 484.223 69.6824C485.637 69.6824 486.463 69.1084 486.463 68.1424C486.463 67.2044 485.679 66.6304 484.027 66.3644C481.857 66.0144 480.765 65.0624 480.765 63.5084C480.765 61.8564 482.011 60.8624 484.167 60.8624C485.455 60.8624 486.631 61.2264 487.443 62.0664L486.505 62.8784C485.903 62.2904 485.119 62.0384 484.209 62.0384C482.865 62.0384 482.095 62.5844 482.095 63.4944C482.095 64.3764 482.809 64.8944 484.377 65.1464C486.631 65.4964 487.793 66.4904 487.793 68.0864ZM489.032 61.6324C489.032 61.1704 489.382 60.8344 489.844 60.8344C490.306 60.8344 490.642 61.1704 490.642 61.6324C490.642 62.0944 490.306 62.4444 489.844 62.4444C489.382 62.4444 489.032 62.0944 489.032 61.6324ZM490.474 63.7744V70.7744H489.214V63.7744H490.474ZM497.01 64.8944V63.7744H498.2V70.2844C498.2 72.2584 497.01 73.4064 494.924 73.4064C493.902 73.4064 492.964 73.1264 492.194 72.6364L492.782 71.6844C493.398 72.0764 494.168 72.3004 494.91 72.3004C496.24 72.3004 496.94 71.5864 496.94 70.2844V69.4164C496.506 70.1584 495.778 70.5644 494.798 70.5644C492.95 70.5644 491.9 69.3044 491.9 67.1204C491.9 64.9224 492.95 63.6624 494.784 63.6624C495.82 63.6624 496.562 64.0964 497.01 64.8944ZM493.16 67.1064C493.16 68.6184 493.818 69.4444 495.05 69.4444C496.268 69.4444 496.94 68.6184 496.94 67.1064C496.94 65.6084 496.268 64.7824 495.05 64.7824C493.818 64.7824 493.16 65.6084 493.16 67.1064ZM501.364 66.4344V70.7744H500.104V63.7744H501.294V64.6424C501.784 63.9844 502.498 63.6624 503.436 63.6624C505.06 63.6624 505.984 64.6144 505.984 66.2524V70.7744H504.724V66.3644C504.724 65.3564 504.108 64.7824 503.058 64.7824C501.994 64.7824 501.364 65.3844 501.364 66.4344ZM508.198 65.4824L507.54 64.6284C508.296 63.9984 509.206 63.6624 510.298 63.6624C512.02 63.6624 512.944 64.4744 512.944 65.9724V69.0104C512.944 69.5844 513.21 69.9484 513.672 70.0324L513.294 70.8724C512.608 70.8724 512.118 70.5924 511.866 70.0884C511.488 70.5784 510.676 70.8864 509.71 70.8864C508.156 70.8864 507.288 70.1444 507.288 68.9124C507.288 67.5964 508.254 66.7704 509.892 66.6864L511.684 66.5884V66.0144C511.684 65.2164 511.152 64.7544 510.186 64.7544C509.444 64.7544 508.744 65.0064 508.198 65.4824ZM511.684 67.4984L510.004 67.5824C509.038 67.6244 508.492 68.0724 508.492 68.7864C508.492 69.5004 509.01 69.8924 510.004 69.8924C511.068 69.8924 511.684 69.4304 511.684 68.5764V67.4984ZM516.743 69.7944C516.883 69.7944 517.023 69.7664 517.177 69.7244L517.247 70.7604C516.953 70.8304 516.701 70.8444 516.477 70.8444C515.357 70.8444 514.727 70.2564 514.727 69.2064V60.9744H515.987V69.0104C515.987 69.5284 516.239 69.7944 516.743 69.7944ZM528.747 70.7744H527.893L527.781 69.0944C527.207 70.2704 526.171 70.8864 524.855 70.8864C522.307 70.8864 520.851 69.0524 520.851 65.8744C520.851 62.6824 522.321 60.8624 524.911 60.8624C526.787 60.8624 528.159 61.8284 528.719 63.5784L527.445 63.8164C527.011 62.6544 526.143 62.0524 524.939 62.0524C523.161 62.0524 522.195 63.4104 522.195 65.8744C522.195 68.3244 523.147 69.6824 524.911 69.6824C526.451 69.6824 527.361 68.6044 527.445 66.6724H524.939V65.5944H528.747V70.7744ZM533.482 70.8864C531.368 70.8864 530.136 69.5844 530.136 67.2464C530.136 65.0064 531.284 63.6624 533.216 63.6624C535.148 63.6624 536.226 64.9644 536.226 67.2324V67.6384H531.382C531.41 69.0244 532.208 69.7944 533.524 69.7944C534.238 69.7944 534.882 69.5564 535.372 69.0664L536.114 69.8504C535.428 70.5084 534.602 70.8864 533.482 70.8864ZM533.258 64.7124C532.152 64.7124 531.466 65.4404 531.382 66.7284H535.064C535.008 65.4404 534.35 64.7124 533.258 64.7124ZM538.93 66.4344V70.7744H537.67V63.7744H538.86V64.6424C539.35 63.9844 540.064 63.6624 541.002 63.6624C542.626 63.6624 543.55 64.6144 543.55 66.2524V70.7744H542.29V66.3644C542.29 65.3564 541.674 64.7824 540.624 64.7824C539.56 64.7824 538.93 65.3844 538.93 66.4344ZM548.255 70.8864C546.141 70.8864 544.909 69.5844 544.909 67.2464C544.909 65.0064 546.057 63.6624 547.989 63.6624C549.921 63.6624 550.999 64.9644 550.999 67.2324V67.6384H546.155C546.183 69.0244 546.981 69.7944 548.297 69.7944C549.011 69.7944 549.655 69.5564 550.145 69.0664L550.887 69.8504C550.201 70.5084 549.375 70.8864 548.255 70.8864ZM548.031 64.7124C546.925 64.7124 546.239 65.4404 546.155 66.7284H549.837C549.781 65.4404 549.123 64.7124 548.031 64.7124ZM552.444 70.7744V63.7744H553.634V64.9364C554.096 64.1104 554.824 63.6624 555.818 63.6624C556.224 63.6624 556.574 63.7324 556.882 63.8724L556.378 65.0344C556.154 64.8944 555.86 64.8244 555.524 64.8244C554.362 64.8244 553.704 65.6784 553.704 67.1624V70.7744H552.444ZM558.226 65.4824L557.568 64.6284C558.324 63.9984 559.234 63.6624 560.326 63.6624C562.048 63.6624 562.972 64.4744 562.972 65.9724V69.0104C562.972 69.5844 563.238 69.9484 563.7 70.0324L563.322 70.8724C562.636 70.8724 562.146 70.5924 561.894 70.0884C561.516 70.5784 560.704 70.8864 559.738 70.8864C558.184 70.8864 557.316 70.1444 557.316 68.9124C557.316 67.5964 558.282 66.7704 559.92 66.6864L561.712 66.5884V66.0144C561.712 65.2164 561.18 64.7544 560.214 64.7544C559.472 64.7544 558.772 65.0064 558.226 65.4824ZM561.712 67.4984L560.032 67.5824C559.066 67.6244 558.52 68.0724 558.52 68.7864C558.52 69.5004 559.038 69.8924 560.032 69.8924C561.096 69.8924 561.712 69.4304 561.712 68.5764V67.4984ZM563.946 63.7744H564.968V61.9544L566.228 61.4924V63.7744H567.824V64.7544H566.228V68.8844C566.228 69.4304 566.564 69.7524 567.152 69.7524C567.32 69.7524 567.558 69.7244 567.796 69.6684L567.908 70.7044C567.586 70.7744 567.25 70.8164 566.956 70.8164C565.682 70.8164 564.968 70.1164 564.968 68.8984V64.7544H563.946V63.7744ZM568.898 61.6324C568.898 61.1704 569.248 60.8344 569.71 60.8344C570.172 60.8344 570.508 61.1704 570.508 61.6324C570.508 62.0944 570.172 62.4444 569.71 62.4444C569.248 62.4444 568.898 62.0944 568.898 61.6324ZM570.34 63.7744V70.7744H569.08V63.7744H570.34ZM578.066 67.2744C578.066 69.5704 576.918 70.8864 574.902 70.8864C572.9 70.8864 571.766 69.5704 571.766 67.2744C571.766 64.9784 572.9 63.6624 574.902 63.6624C576.918 63.6624 578.066 64.9784 578.066 67.2744ZM573.026 67.2744C573.026 68.8844 573.684 69.7524 574.902 69.7524C576.134 69.7524 576.806 68.8844 576.806 67.2744C576.806 65.6504 576.134 64.7824 574.902 64.7824C573.684 64.7824 573.026 65.6504 573.026 67.2744ZM580.766 66.4344V70.7744H579.506V63.7744H580.696V64.6424C581.186 63.9844 581.9 63.6624 582.838 63.6624C584.462 63.6624 585.386 64.6144 585.386 66.2524V70.7744H584.126V66.3644C584.126 65.3564 583.51 64.7824 582.46 64.7824C581.396 64.7824 580.766 65.3844 580.766 66.4344ZM533.762 87.7744L533.006 85.5764H528.89L528.148 87.7744H526.734L530.22 77.9744H531.69L535.162 87.7744H533.762ZM529.282 84.4564H532.614L530.948 79.5844L529.282 84.4564ZM538.128 86.7944C538.268 86.7944 538.408 86.7664 538.562 86.7244L538.632 87.7604C538.338 87.8304 538.086 87.8444 537.862 87.8444C536.742 87.8444 536.112 87.2564 536.112 86.2064V77.9744H537.372V86.0104C537.372 86.5284 537.624 86.7944 538.128 86.7944ZM544.305 81.8944V80.7744H545.495V87.2844C545.495 89.2584 544.305 90.4064 542.219 90.4064C541.197 90.4064 540.259 90.1264 539.489 89.6364L540.077 88.6844C540.693 89.0764 541.463 89.3004 542.205 89.3004C543.535 89.3004 544.235 88.5864 544.235 87.2844V86.4164C543.801 87.1584 543.073 87.5644 542.093 87.5644C540.245 87.5644 539.195 86.3044 539.195 84.1204C539.195 81.9224 540.245 80.6624 542.079 80.6624C543.115 80.6624 543.857 81.0964 544.305 81.8944ZM540.455 84.1064C540.455 85.6184 541.113 86.4444 542.345 86.4444C543.563 86.4444 544.235 85.6184 544.235 84.1064C544.235 82.6084 543.563 81.7824 542.345 81.7824C541.113 81.7824 540.455 82.6084 540.455 84.1064ZM553.237 84.2744C553.237 86.5704 552.089 87.8864 550.073 87.8864C548.071 87.8864 546.937 86.5704 546.937 84.2744C546.937 81.9784 548.071 80.6624 550.073 80.6624C552.089 80.6624 553.237 81.9784 553.237 84.2744ZM548.197 84.2744C548.197 85.8844 548.855 86.7524 550.073 86.7524C551.305 86.7524 551.977 85.8844 551.977 84.2744C551.977 82.6504 551.305 81.7824 550.073 81.7824C548.855 81.7824 548.197 82.6504 548.197 84.2744ZM554.676 87.7744V80.7744H555.866V81.9364C556.328 81.1104 557.056 80.6624 558.05 80.6624C558.456 80.6624 558.806 80.7324 559.114 80.8724L558.61 82.0344C558.386 81.8944 558.092 81.8244 557.756 81.8244C556.594 81.8244 555.936 82.6784 555.936 84.1624V87.7744H554.676ZM560.021 78.6324C560.021 78.1704 560.371 77.8344 560.833 77.8344C561.295 77.8344 561.631 78.1704 561.631 78.6324C561.631 79.0944 561.295 79.4444 560.833 79.4444C560.371 79.4444 560.021 79.0944 560.021 78.6324ZM561.463 80.7744V87.7744H560.203V80.7744H561.463ZM562.61 80.7744H563.632V78.9544L564.892 78.4924V80.7744H566.488V81.7544H564.892V85.8844C564.892 86.4304 565.228 86.7524 565.816 86.7524C565.984 86.7524 566.222 86.7244 566.46 86.6684L566.572 87.7044C566.25 87.7744 565.914 87.8164 565.62 87.8164C564.346 87.8164 563.632 87.1164 563.632 85.8984V81.7544H562.61V80.7744ZM569.004 83.4344V87.7744H567.744V77.9744H569.004V81.6424C569.48 80.9984 570.208 80.6624 571.132 80.6624C572.714 80.6624 573.624 81.6144 573.624 83.2524V87.7744H572.364V83.3644C572.364 82.3564 571.748 81.7824 570.698 81.7824C569.634 81.7824 569.004 82.3844 569.004 83.4344ZM576.705 83.4344V87.7744H575.445V80.7744H576.635V81.6144C577.041 81.0124 577.769 80.6624 578.609 80.6624C579.533 80.6624 580.289 81.0824 580.653 81.8524C581.087 81.0964 581.885 80.6624 582.921 80.6624C584.461 80.6624 585.385 81.6144 585.385 83.2524V87.7744H584.125V83.3644C584.125 82.3564 583.565 81.7824 582.599 81.7824C581.605 81.7824 581.045 82.3844 581.045 83.4344V87.7744H579.785V83.3644C579.785 82.3564 579.225 81.7824 578.259 81.7824C577.265 81.7824 576.705 82.3844 576.705 83.4344Z" fill="white"/>
<path d="M413.791 116.074L424.671 116.074C426.882 116.074 428.674 114.282 428.674 112.071L428.674 99.2155C428.674 97.0047 430.466 95.2125 432.677 95.2125L456.869 95.2125L499.918 95.2125L586.017 95.2124" stroke="#544FFF" stroke-width="1.35993"/>
<circle cx="2.6948" cy="2.6948" r="3.37476" transform="matrix(1 0 0 -1 413.82 118.627)" fill="white" stroke="#544FFF" stroke-width="1.35993"/>
<path d="M5.54941 3.28868C8.11141 3.28868 9.58141 5.10868 9.58141 8.30068C9.58141 9.89668 9.21741 11.1427 8.51741 11.9967L9.55341 13.1587L8.75541 13.8727L7.73341 12.7107C7.13141 13.1027 6.40341 13.3127 5.54941 13.3127C2.97341 13.3127 1.50341 11.4787 1.50341 8.30068C1.50341 5.10868 2.97341 3.28868 5.54941 3.28868ZM5.53541 10.2327L6.33341 9.53268L7.63541 11.0027C8.04141 10.3727 8.25141 9.44868 8.25141 8.28668C8.25141 5.80868 7.29941 4.47868 5.54941 4.47868C3.78541 4.47868 2.83341 5.82268 2.83341 8.30068C2.83341 10.7647 3.78541 12.1087 5.54941 12.1087C6.06741 12.1087 6.51541 11.9967 6.89341 11.7587L5.53541 10.2327ZM15.6768 10.5407V6.20068H16.9368V13.2007H15.7608V12.3327C15.2708 12.9767 14.5428 13.3127 13.5908 13.3127C11.9808 13.3127 11.0568 12.3607 11.0568 10.7087V6.20068H12.3168V10.6107C12.3168 11.6047 12.9188 12.1787 13.9688 12.1787C15.0468 12.1787 15.6768 11.5767 15.6768 10.5407ZM18.6459 4.05868C18.6459 3.59668 18.9959 3.26068 19.4579 3.26068C19.9199 3.26068 20.2559 3.59668 20.2559 4.05868C20.2559 4.52068 19.9199 4.87068 19.4579 4.87068C18.9959 4.87068 18.6459 4.52068 18.6459 4.05868ZM20.0879 6.20068V13.2007H18.8279V6.20068H20.0879ZM24.7202 7.20868C23.4882 7.20868 22.7742 8.11868 22.7742 9.70068C22.7742 11.2827 23.4882 12.1927 24.7342 12.1927C25.4622 12.1927 25.9662 11.8707 26.3862 11.1987L27.3242 11.8567C26.7082 12.8367 25.8542 13.3127 24.6642 13.3127C22.6622 13.3127 21.5142 11.9827 21.5142 9.70068C21.5142 7.40468 22.6622 6.08868 24.6642 6.08868C25.8542 6.08868 26.6942 6.55068 27.3242 7.53068L26.3862 8.20268C25.9802 7.53068 25.4622 7.20868 24.7202 7.20868ZM29.8572 11.1427V13.2007H28.5972V3.40068H29.8572V9.51868L32.8812 6.20068H34.4352L31.7892 9.09868L34.6452 13.2007H33.1752L30.9072 9.98068L29.8572 11.1427ZM42.5877 13.2007H38.8217V3.40068H42.5457C44.4357 3.40068 45.6257 4.36668 45.6257 5.92068C45.6257 6.97068 45.0657 7.78268 44.1417 8.09068C45.2897 8.46868 45.9477 9.29468 45.9477 10.4427C45.9477 12.1367 44.6457 13.2007 42.5877 13.2007ZM44.3097 6.10268C44.3097 5.13668 43.6237 4.59068 42.4477 4.59068H40.1517V7.62868H42.4477C43.6237 7.62868 44.3097 7.06868 44.3097 6.10268ZM44.6037 10.3727C44.6037 9.33668 43.8617 8.74868 42.5877 8.74868H40.1517V12.0107H42.5877C43.8617 12.0107 44.6037 11.4087 44.6037 10.3727ZM52.0806 10.5407V6.20068H53.3406V13.2007H52.1646V12.3327C51.6746 12.9767 50.9466 13.3127 49.9946 13.3127C48.3846 13.3127 47.4606 12.3607 47.4606 10.7087V6.20068H48.7206V10.6107C48.7206 11.6047 49.3226 12.1787 50.3726 12.1787C51.4506 12.1787 52.0806 11.5767 52.0806 10.5407ZM54.4897 6.20068H55.5117V4.38068L56.7717 3.91868V6.20068H58.3677V7.18068H56.7717V11.3107C56.7717 11.8567 57.1077 12.1787 57.6957 12.1787C57.8637 12.1787 58.1017 12.1507 58.3397 12.0947L58.4517 13.1307C58.1297 13.2007 57.7937 13.2427 57.4997 13.2427C56.2257 13.2427 55.5117 12.5427 55.5117 11.3247V7.18068H54.4897V6.20068ZM58.8822 6.20068H59.9042V4.38068L61.1642 3.91868V6.20068H62.7602V7.18068H61.1642V11.3107C61.1642 11.8567 61.5002 12.1787 62.0882 12.1787C62.2562 12.1787 62.4942 12.1507 62.7322 12.0947L62.8442 13.1307C62.5222 13.2007 62.1862 13.2427 61.8922 13.2427C60.6182 13.2427 59.9042 12.5427 59.9042 11.3247V7.18068H58.8822V6.20068ZM69.8137 9.70068C69.8137 11.9967 68.6657 13.3127 66.6497 13.3127C64.6477 13.3127 63.5137 11.9967 63.5137 9.70068C63.5137 7.40468 64.6477 6.08868 66.6497 6.08868C68.6657 6.08868 69.8137 7.40468 69.8137 9.70068ZM64.7737 9.70068C64.7737 11.3107 65.4317 12.1787 66.6497 12.1787C67.8817 12.1787 68.5537 11.3107 68.5537 9.70068C68.5537 8.07668 67.8817 7.20868 66.6497 7.20868C65.4317 7.20868 64.7737 8.07668 64.7737 9.70068ZM72.5129 8.86068V13.2007H71.2529V6.20068H72.4429V7.06868C72.9329 6.41068 73.6469 6.08868 74.5849 6.08868C76.2089 6.08868 77.1329 7.04068 77.1329 8.67868V13.2007H75.8729V8.79068C75.8729 7.78268 75.2569 7.20868 74.2069 7.20868C73.1429 7.20868 72.5129 7.81068 72.5129 8.86068ZM83.98 11.1007C83.98 12.4867 82.944 13.3127 81.152 13.3127C79.934 13.3127 78.968 12.9347 78.282 12.2347L79.01 11.4647C79.472 11.9547 80.27 12.2487 81.18 12.2487C82.216 12.2487 82.832 11.8427 82.832 11.1987C82.832 10.6247 82.328 10.3587 81.152 10.2187C79.276 9.99468 78.478 9.37868 78.478 8.16068C78.478 6.83068 79.416 6.08868 81.138 6.08868C82.202 6.08868 83.098 6.38268 83.7 6.94268L82.944 7.68468C82.51 7.33468 81.824 7.13868 81.11 7.13868C80.186 7.13868 79.626 7.48868 79.626 8.07668C79.626 8.62268 80.102 8.91668 81.306 9.05668C83.182 9.28068 83.98 9.86868 83.98 11.1007Z" fill="white"/>
<path d="M163.99 20.186L146.468 20.1857L0.692334 20.1857" stroke="#544FFF" stroke-width="1.35993"/>
<circle cx="161.294" cy="20.1858" r="3.37476" fill="white" stroke="#544FFF" stroke-width="1.35993"/>
<path d="M5.31141 33.7015V42.3115H3.98141V33.7015H1.01341V32.5115H8.29341V33.7015H5.31141ZM8.43341 42.3115V35.3115H9.62341V36.4735C10.0854 35.6475 10.8134 35.1995 11.8074 35.1995C12.2134 35.1995 12.5634 35.2695 12.8714 35.4095L12.3674 36.5715C12.1434 36.4315 11.8494 36.3615 11.5134 36.3615C10.3514 36.3615 9.69341 37.2155 9.69341 38.6995V42.3115H8.43341ZM14.216 37.0195L13.558 36.1655C14.314 35.5355 15.224 35.1995 16.316 35.1995C18.038 35.1995 18.962 36.0115 18.962 37.5095V40.5475C18.962 41.1215 19.228 41.4855 19.69 41.5695L19.312 42.4095C18.626 42.4095 18.136 42.1295 17.884 41.6255C17.506 42.1155 16.694 42.4235 15.728 42.4235C14.174 42.4235 13.306 41.6815 13.306 40.4495C13.306 39.1335 14.272 38.3075 15.91 38.2235L17.702 38.1255V37.5515C17.702 36.7535 17.17 36.2915 16.204 36.2915C15.462 36.2915 14.762 36.5435 14.216 37.0195ZM17.702 39.0355L16.022 39.1195C15.056 39.1615 14.51 39.6095 14.51 40.3235C14.51 41.0375 15.028 41.4295 16.022 41.4295C17.086 41.4295 17.702 40.9675 17.702 40.1135V39.0355ZM25.3518 41.1775C24.9177 41.9895 24.1757 42.4235 23.1538 42.4235C21.3337 42.4235 20.2837 41.1075 20.2837 38.8115C20.2837 36.5155 21.3197 35.1995 23.1538 35.1995C24.1338 35.1995 24.8478 35.6055 25.2817 36.3475V32.5115H26.5417V42.3115H25.3518V41.1775ZM21.5437 38.7975C21.5437 40.4215 22.2017 41.2895 23.4057 41.2895C24.6237 41.2895 25.2817 40.4215 25.2817 38.8115C25.2817 37.1875 24.6237 36.3195 23.4057 36.3195C22.2017 36.3195 21.5437 37.1875 21.5437 38.7975ZM28.2648 33.1695C28.2648 32.7075 28.6148 32.3715 29.0768 32.3715C29.5388 32.3715 29.8748 32.7075 29.8748 33.1695C29.8748 33.6315 29.5388 33.9815 29.0768 33.9815C28.6148 33.9815 28.2648 33.6315 28.2648 33.1695ZM29.7068 35.3115V42.3115H28.4468V35.3115H29.7068ZM32.8552 37.9715V42.3115H31.5952V35.3115H32.7852V36.1795C33.2752 35.5215 33.9892 35.1995 34.9272 35.1995C36.5512 35.1995 37.4752 36.1515 37.4752 37.7895V42.3115H36.2152V37.9015C36.2152 36.8935 35.5992 36.3195 34.5492 36.3195C33.4852 36.3195 32.8552 36.9215 32.8552 37.9715ZM43.9443 36.4315V35.3115H45.1343V41.8215C45.1343 43.7955 43.9443 44.9435 41.8583 44.9435C40.8363 44.9435 39.8983 44.6635 39.1283 44.1735L39.7163 43.2215C40.3323 43.6135 41.1023 43.8375 41.8443 43.8375C43.1743 43.8375 43.8743 43.1235 43.8743 41.8215V40.9535C43.4403 41.6955 42.7123 42.1015 41.7323 42.1015C39.8843 42.1015 38.8343 40.8415 38.8343 38.6575C38.8343 36.4595 39.8843 35.1995 41.7183 35.1995C42.7543 35.1995 43.4963 35.6335 43.9443 36.4315ZM40.0943 38.6435C40.0943 40.1555 40.7523 40.9815 41.9843 40.9815C43.2023 40.9815 43.8743 40.1555 43.8743 38.6435C43.8743 37.1455 43.2023 36.3195 41.9843 36.3195C40.7523 36.3195 40.0943 37.1455 40.0943 38.6435ZM55.5655 42.3115L54.8095 40.1135H50.6935L49.9515 42.3115H48.5375L52.0235 32.5115H53.4935L56.9655 42.3115H55.5655ZM51.0855 38.9935H54.4175L52.7515 34.1215L51.0855 38.9935ZM62.9412 40.2115C62.9412 41.5975 61.9052 42.4235 60.1132 42.4235C58.8952 42.4235 57.9292 42.0455 57.2432 41.3455L57.9712 40.5755C58.4332 41.0655 59.2312 41.3595 60.1412 41.3595C61.1772 41.3595 61.7932 40.9535 61.7932 40.3095C61.7932 39.7355 61.2892 39.4695 60.1132 39.3295C58.2372 39.1055 57.4392 38.4895 57.4392 37.2715C57.4392 35.9415 58.3772 35.1995 60.0992 35.1995C61.1632 35.1995 62.0592 35.4935 62.6612 36.0535L61.9052 36.7955C61.4712 36.4455 60.7852 36.2495 60.0712 36.2495C59.1472 36.2495 58.5872 36.5995 58.5872 37.1875C58.5872 37.7335 59.0632 38.0275 60.2672 38.1675C62.1432 38.3915 62.9412 38.9795 62.9412 40.2115ZM69.1931 40.2115C69.1931 41.5975 68.1571 42.4235 66.3651 42.4235C65.1471 42.4235 64.1811 42.0455 63.4951 41.3455L64.2231 40.5755C64.6851 41.0655 65.4831 41.3595 66.3931 41.3595C67.4291 41.3595 68.0451 40.9535 68.0451 40.3095C68.0451 39.7355 67.5411 39.4695 66.3651 39.3295C64.4891 39.1055 63.6911 38.4895 63.6911 37.2715C63.6911 35.9415 64.6291 35.1995 66.3511 35.1995C67.4151 35.1995 68.3111 35.4935 68.9131 36.0535L68.1571 36.7955C67.7231 36.4455 67.0371 36.2495 66.3231 36.2495C65.3991 36.2495 64.8391 36.5995 64.8391 37.1875C64.8391 37.7335 65.3151 38.0275 66.5191 38.1675C68.3951 38.3915 69.1931 38.9795 69.1931 40.2115ZM73.2619 42.4235C71.1479 42.4235 69.9159 41.1215 69.9159 38.7835C69.9159 36.5435 71.0639 35.1995 72.9959 35.1995C74.9279 35.1995 76.0059 36.5015 76.0059 38.7695V39.1755H71.1619C71.1899 40.5615 71.9879 41.3315 73.3039 41.3315C74.0179 41.3315 74.6619 41.0935 75.1519 40.6035L75.8939 41.3875C75.2079 42.0455 74.3819 42.4235 73.2619 42.4235ZM73.0379 36.2495C71.9319 36.2495 71.2459 36.9775 71.1619 38.2655H74.8439C74.7879 36.9775 74.1299 36.2495 73.0379 36.2495ZM76.6398 35.3115H77.6618V33.4915L78.9218 33.0295V35.3115H80.5178V36.2915H78.9218V40.4215C78.9218 40.9675 79.2578 41.2895 79.8458 41.2895C80.0138 41.2895 80.2518 41.2615 80.4898 41.2055L80.6018 42.2415C80.2798 42.3115 79.9438 42.3535 79.6498 42.3535C78.3758 42.3535 77.6618 41.6535 77.6618 40.4355V36.2915H76.6398V35.3115Z" fill="white"/>
<path d="M163.99 49.2971L146.468 49.2968L0.692334 49.2968" stroke="#544FFF" stroke-width="1.35993"/>
<circle cx="161.294" cy="49.2968" r="3.37476" fill="white" stroke="#544FFF" stroke-width="1.35993"/>
<path d="M3.35141 69.8847V73.6787H2.02141V63.8787H5.61941C7.62141 63.8787 8.88141 65.0267 8.88141 66.8607C8.88141 68.7087 7.60741 69.8847 5.61941 69.8847H3.35141ZM7.53741 66.8607C7.53741 65.6987 6.79541 65.0687 5.43741 65.0687H3.35141V68.6947H5.45141C6.79541 68.6947 7.53741 68.0367 7.53741 66.8607ZM10.1424 73.6787V66.6787H11.3324V67.8407C11.7944 67.0147 12.5224 66.5667 13.5164 66.5667C13.9224 66.5667 14.2724 66.6367 14.5804 66.7767L14.0764 67.9387C13.8524 67.7987 13.5584 67.7287 13.2224 67.7287C12.0604 67.7287 11.4024 68.5827 11.4024 70.0667V73.6787H10.1424ZM15.4877 64.5367C15.4877 64.0747 15.8377 63.7387 16.2997 63.7387C16.7617 63.7387 17.0977 64.0747 17.0977 64.5367C17.0977 64.9987 16.7617 65.3487 16.2997 65.3487C15.8377 65.3487 15.4877 64.9987 15.4877 64.5367ZM16.9297 66.6787V73.6787H15.6697V66.6787H16.9297ZM21.562 67.6867C20.33 67.6867 19.616 68.5967 19.616 70.1787C19.616 71.7607 20.33 72.6707 21.576 72.6707C22.304 72.6707 22.808 72.3487 23.228 71.6767L24.166 72.3347C23.55 73.3147 22.696 73.7907 21.506 73.7907C19.504 73.7907 18.356 72.4607 18.356 70.1787C18.356 67.8827 19.504 66.5667 21.506 66.5667C22.696 66.5667 23.536 67.0287 24.166 68.0087L23.228 68.6807C22.822 68.0087 22.304 67.6867 21.562 67.6867ZM28.2547 73.7907C26.1407 73.7907 24.9087 72.4887 24.9087 70.1507C24.9087 67.9107 26.0567 66.5667 27.9887 66.5667C29.9207 66.5667 30.9987 67.8687 30.9987 70.1367V70.5427H26.1547C26.1827 71.9287 26.9807 72.6987 28.2967 72.6987C29.0107 72.6987 29.6547 72.4607 30.1447 71.9707L30.8867 72.7547C30.2007 73.4127 29.3747 73.7907 28.2547 73.7907ZM28.0307 67.6167C26.9247 67.6167 26.2387 68.3447 26.1547 69.6327H29.8367C29.7807 68.3447 29.1227 67.6167 28.0307 67.6167Z" fill="white"/>
<path d="M163.99 80.6641L146.468 80.6637L0.692334 80.6637" stroke="#544FFF" stroke-width="1.35993"/>
<circle cx="161.294" cy="80.664" r="3.37476" fill="white" stroke="#544FFF" stroke-width="1.35993"/>
<path d="M5.31141 100.841V109.451H3.98141V100.841H1.01341V99.6507H8.29341V100.841H5.31141ZM9.16742 100.309C9.16742 99.8467 9.51742 99.5107 9.97942 99.5107C10.4414 99.5107 10.7774 99.8467 10.7774 100.309C10.7774 100.771 10.4414 101.121 9.97942 101.121C9.51742 101.121 9.16742 100.771 9.16742 100.309ZM10.6094 102.451V109.451H9.34942V102.451H10.6094ZM13.7578 105.111V109.451H12.4978V102.451H13.6878V103.291C14.0938 102.689 14.8218 102.339 15.6618 102.339C16.5858 102.339 17.3418 102.759 17.7058 103.529C18.1398 102.773 18.9378 102.339 19.9738 102.339C21.5138 102.339 22.4378 103.291 22.4378 104.929V109.451H21.1778V105.041C21.1778 104.033 20.6178 103.459 19.6518 103.459C18.6578 103.459 18.0978 104.061 18.0978 105.111V109.451H16.8378V105.041C16.8378 104.033 16.2778 103.459 15.3118 103.459C14.3178 103.459 13.7578 104.061 13.7578 105.111ZM27.1434 109.563C25.0294 109.563 23.7974 108.261 23.7974 105.923C23.7974 103.683 24.9454 102.339 26.8774 102.339C28.8094 102.339 29.8874 103.641 29.8874 105.909V106.315H25.0434C25.0714 107.701 25.8694 108.471 27.1854 108.471C27.8994 108.471 28.5434 108.233 29.0334 107.743L29.7754 108.527C29.0894 109.185 28.2634 109.563 27.1434 109.563ZM26.9194 103.389C25.8134 103.389 25.1274 104.117 25.0434 105.405H28.7254C28.6694 104.117 28.0114 103.389 26.9194 103.389ZM39.3009 107.351C39.3009 108.737 38.2649 109.563 36.4729 109.563C35.2549 109.563 34.2889 109.185 33.6029 108.485L34.3309 107.715C34.7929 108.205 35.5909 108.499 36.5009 108.499C37.5369 108.499 38.1529 108.093 38.1529 107.449C38.1529 106.875 37.6489 106.609 36.4729 106.469C34.5969 106.245 33.7989 105.629 33.7989 104.411C33.7989 103.081 34.7369 102.339 36.4589 102.339C37.5229 102.339 38.4189 102.633 39.0209 103.193L38.2649 103.935C37.8309 103.585 37.1449 103.389 36.4309 103.389C35.5069 103.389 34.9469 103.739 34.9469 104.327C34.9469 104.873 35.4229 105.167 36.6269 105.307C38.5029 105.531 39.3009 106.119 39.3009 107.351ZM40.3448 100.309C40.3448 99.8467 40.6948 99.5107 41.1568 99.5107C41.6188 99.5107 41.9548 99.8467 41.9548 100.309C41.9548 100.771 41.6188 101.121 41.1568 101.121C40.6948 101.121 40.3448 100.771 40.3448 100.309ZM41.7868 102.451V109.451H40.5268V102.451H41.7868ZM44.9351 105.111V109.451H43.6751V102.451H44.8651V103.319C45.3551 102.661 46.0691 102.339 47.0071 102.339C48.6311 102.339 49.5551 103.291 49.5551 104.929V109.451H48.2951V105.041C48.2951 104.033 47.6791 103.459 46.6291 103.459C45.5651 103.459 44.9351 104.061 44.9351 105.111ZM54.1202 103.459C52.8882 103.459 52.1742 104.369 52.1742 105.951C52.1742 107.533 52.8882 108.443 54.1342 108.443C54.8622 108.443 55.3662 108.121 55.7862 107.449L56.7242 108.107C56.1082 109.087 55.2542 109.563 54.0642 109.563C52.0622 109.563 50.9142 108.233 50.9142 105.951C50.9142 103.655 52.0622 102.339 54.0642 102.339C55.2542 102.339 56.0942 102.801 56.7242 103.781L55.7862 104.453C55.3802 103.781 54.8622 103.459 54.1202 103.459ZM60.8129 109.563C58.6989 109.563 57.4669 108.261 57.4669 105.923C57.4669 103.683 58.6149 102.339 60.5469 102.339C62.4789 102.339 63.5569 103.641 63.5569 105.909V106.315H58.7129C58.7409 107.701 59.5389 108.471 60.8549 108.471C61.5689 108.471 62.2129 108.233 62.7029 107.743L63.4449 108.527C62.7589 109.185 61.9329 109.563 60.8129 109.563ZM60.5889 103.389C59.4829 103.389 58.7969 104.117 58.7129 105.405H62.3949C62.3389 104.117 61.6809 103.389 60.5889 103.389ZM74.5803 106.763C74.5803 108.485 73.2363 109.563 70.9263 109.563C69.5123 109.563 68.2243 109.143 67.2723 108.065L68.2103 107.225C68.8963 107.995 69.8763 108.359 71.0103 108.359C72.4243 108.359 73.2503 107.785 73.2503 106.819C73.2503 105.881 72.4663 105.307 70.8143 105.041C68.6443 104.691 67.5523 103.739 67.5523 102.185C67.5523 100.533 68.7983 99.5387 70.9543 99.5387C72.2423 99.5387 73.4183 99.9027 74.2303 100.743L73.2923 101.555C72.6903 100.967 71.9063 100.715 70.9963 100.715C69.6523 100.715 68.8823 101.261 68.8823 102.171C68.8823 103.053 69.5963 103.571 71.1643 103.823C73.4183 104.173 74.5803 105.167 74.5803 106.763ZM75.8189 100.309C75.8189 99.8467 76.1689 99.5107 76.6309 99.5107C77.0929 99.5107 77.4289 99.8467 77.4289 100.309C77.4289 100.771 77.0929 101.121 76.6309 101.121C76.1689 101.121 75.8189 100.771 75.8189 100.309ZM77.2609 102.451V109.451H76.0009V102.451H77.2609ZM83.7973 103.571V102.451H84.9873V108.961C84.9873 110.935 83.7973 112.083 81.7113 112.083C80.6893 112.083 79.7513 111.803 78.9813 111.313L79.5693 110.361C80.1853 110.753 80.9553 110.977 81.6973 110.977C83.0273 110.977 83.7273 110.263 83.7273 108.961V108.093C83.2933 108.835 82.5653 109.241 81.5853 109.241C79.7373 109.241 78.6873 107.981 78.6873 105.797C78.6873 103.599 79.7373 102.339 81.5713 102.339C82.6073 102.339 83.3493 102.773 83.7973 103.571ZM79.9473 105.783C79.9473 107.295 80.6053 108.121 81.8373 108.121C83.0553 108.121 83.7273 107.295 83.7273 105.783C83.7273 104.285 83.0553 103.459 81.8373 103.459C80.6053 103.459 79.9473 104.285 79.9473 105.783ZM88.1514 105.111V109.451H86.8914V102.451H88.0814V103.319C88.5714 102.661 89.2854 102.339 90.2234 102.339C91.8474 102.339 92.7714 103.291 92.7714 104.929V109.451H91.5114V105.041C91.5114 104.033 90.8954 103.459 89.8454 103.459C88.7814 103.459 88.1514 104.061 88.1514 105.111ZM94.9845 104.159L94.3265 103.305C95.0825 102.675 95.9925 102.339 97.0845 102.339C98.8065 102.339 99.7305 103.151 99.7305 104.649V107.687C99.7305 108.261 99.9965 108.625 100.458 108.709L100.08 109.549C99.3945 109.549 98.9045 109.269 98.6525 108.765C98.2745 109.255 97.4625 109.563 96.4965 109.563C94.9425 109.563 94.0745 108.821 94.0745 107.589C94.0745 106.273 95.0405 105.447 96.6785 105.363L98.4705 105.265V104.691C98.4705 103.893 97.9385 103.431 96.9725 103.431C96.2305 103.431 95.5305 103.683 94.9845 104.159ZM98.4705 106.175L96.7905 106.259C95.8245 106.301 95.2785 106.749 95.2785 107.463C95.2785 108.177 95.7965 108.569 96.7905 108.569C97.8545 108.569 98.4705 108.107 98.4705 107.253V106.175ZM103.53 108.471C103.67 108.471 103.81 108.443 103.964 108.401L104.034 109.437C103.74 109.507 103.488 109.521 103.264 109.521C102.144 109.521 101.514 108.933 101.514 107.883V99.6507H102.774V107.687C102.774 108.205 103.026 108.471 103.53 108.471Z" fill="white"/>
<path d="M160.301 115.892L151.087 115.892L146.468 115.892L0.69194 115.892" stroke="#544FFF" stroke-width="1.35993"/>
<circle cx="161.294" cy="115.892" r="3.37476" fill="white" stroke="#544FFF" stroke-width="1.35993"/>
<path d="M3.35336 141.842V145.874H2.02336V136.074H5.91536C7.77736 136.074 8.96736 137.18 8.96736 138.93C8.96736 140.344 8.23936 141.254 6.93736 141.604L9.37336 145.874H7.86136L5.60736 141.842H3.35336ZM5.63536 137.25H3.35336V140.722H5.63536C6.92336 140.722 7.63736 140.106 7.63736 139C7.63736 137.866 6.92336 137.25 5.63536 137.25ZM13.3838 145.986C11.2698 145.986 10.0378 144.684 10.0378 142.346C10.0378 140.106 11.1858 138.762 13.1178 138.762C15.0498 138.762 16.1278 140.064 16.1278 142.332V142.738H11.2838C11.3118 144.124 12.1098 144.894 13.4258 144.894C14.1398 144.894 14.7838 144.656 15.2738 144.166L16.0158 144.95C15.3298 145.608 14.5038 145.986 13.3838 145.986ZM13.1598 139.812C12.0538 139.812 11.3678 140.54 11.2838 141.828H14.9658C14.9098 140.54 14.2518 139.812 13.1598 139.812ZM20.316 139.882C19.084 139.882 18.37 140.792 18.37 142.374C18.37 143.956 19.084 144.866 20.33 144.866C21.058 144.866 21.562 144.544 21.982 143.872L22.92 144.53C22.304 145.51 21.45 145.986 20.26 145.986C18.258 145.986 17.11 144.656 17.11 142.374C17.11 140.078 18.258 138.762 20.26 138.762C21.45 138.762 22.29 139.224 22.92 140.204L21.982 140.876C21.576 140.204 21.058 139.882 20.316 139.882ZM29.9627 142.374C29.9627 144.67 28.8147 145.986 26.7987 145.986C24.7967 145.986 23.6627 144.67 23.6627 142.374C23.6627 140.078 24.7967 138.762 26.7987 138.762C28.8147 138.762 29.9627 140.078 29.9627 142.374ZM24.9227 142.374C24.9227 143.984 25.5807 144.852 26.7987 144.852C28.0307 144.852 28.7027 143.984 28.7027 142.374C28.7027 140.75 28.0307 139.882 26.7987 139.882C25.5807 139.882 24.9227 140.75 24.9227 142.374ZM32.6619 141.534V145.874H31.4019V138.874H32.5919V139.714C32.9979 139.112 33.7259 138.762 34.5659 138.762C35.4899 138.762 36.2459 139.182 36.6099 139.952C37.0439 139.196 37.8419 138.762 38.8779 138.762C40.4179 138.762 41.3419 139.714 41.3419 141.352V145.874H40.0819V141.464C40.0819 140.456 39.5219 139.882 38.5559 139.882C37.5619 139.882 37.0019 140.484 37.0019 141.534V145.874H35.7419V141.464C35.7419 140.456 35.1819 139.882 34.2159 139.882C33.2219 139.882 32.6619 140.484 32.6619 141.534ZM44.4236 141.534V145.874H43.1636V138.874H44.3536V139.714C44.7596 139.112 45.4876 138.762 46.3276 138.762C47.2516 138.762 48.0076 139.182 48.3716 139.952C48.8056 139.196 49.6036 138.762 50.6396 138.762C52.1796 138.762 53.1036 139.714 53.1036 141.352V145.874H51.8436V141.464C51.8436 140.456 51.2836 139.882 50.3176 139.882C49.3236 139.882 48.7636 140.484 48.7636 141.534V145.874H47.5036V141.464C47.5036 140.456 46.9436 139.882 45.9776 139.882C44.9836 139.882 44.4236 140.484 44.4236 141.534ZM57.8092 145.986C55.6952 145.986 54.4632 144.684 54.4632 142.346C54.4632 140.106 55.6112 138.762 57.5432 138.762C59.4752 138.762 60.5532 140.064 60.5532 142.332V142.738H55.7092C55.7372 144.124 56.5352 144.894 57.8512 144.894C58.5652 144.894 59.2092 144.656 59.6992 144.166L60.4412 144.95C59.7552 145.608 58.9292 145.986 57.8092 145.986ZM57.5852 139.812C56.4792 139.812 55.7932 140.54 55.7092 141.828H59.3912C59.3352 140.54 58.6772 139.812 57.5852 139.812ZM63.2574 141.534V145.874H61.9974V138.874H63.1874V139.742C63.6774 139.084 64.3914 138.762 65.3294 138.762C66.9534 138.762 67.8774 139.714 67.8774 141.352V145.874H66.6174V141.464C66.6174 140.456 66.0014 139.882 64.9514 139.882C63.8874 139.882 63.2574 140.484 63.2574 141.534ZM74.3045 144.74C73.8705 145.552 73.1285 145.986 72.1065 145.986C70.2865 145.986 69.2365 144.67 69.2365 142.374C69.2365 140.078 70.2725 138.762 72.1065 138.762C73.0865 138.762 73.8005 139.168 74.2345 139.91V136.074H75.4945V145.874H74.3045V144.74ZM70.4965 142.36C70.4965 143.984 71.1545 144.852 72.3585 144.852C73.5765 144.852 74.2345 143.984 74.2345 142.374C74.2345 140.75 73.5765 139.882 72.3585 139.882C71.1545 139.882 70.4965 140.75 70.4965 142.36ZM80.2836 145.986C78.1696 145.986 76.9376 144.684 76.9376 142.346C76.9376 140.106 78.0856 138.762 80.0176 138.762C81.9496 138.762 83.0276 140.064 83.0276 142.332V142.738H78.1836C78.2116 144.124 79.0096 144.894 80.3256 144.894C81.0396 144.894 81.6836 144.656 82.1736 144.166L82.9156 144.95C82.2296 145.608 81.4036 145.986 80.2836 145.986ZM80.0596 139.812C78.9536 139.812 78.2676 140.54 78.1836 141.828H81.8656C81.8096 140.54 81.1516 139.812 80.0596 139.812ZM89.0778 144.74C88.6438 145.552 87.9018 145.986 86.8798 145.986C85.0598 145.986 84.0098 144.67 84.0098 142.374C84.0098 140.078 85.0458 138.762 86.8798 138.762C87.8598 138.762 88.5738 139.168 89.0078 139.91V136.074H90.2678V145.874H89.0778V144.74ZM85.2698 142.36C85.2698 143.984 85.9278 144.852 87.1318 144.852C88.3498 144.852 89.0078 143.984 89.0078 142.374C89.0078 140.75 88.3498 139.882 87.1318 139.882C85.9278 139.882 85.2698 140.75 85.2698 142.36ZM8.40736 161.684V162.874H2.02336V153.074H8.33736V154.264H3.35336V157.302H7.53936V158.492H3.35336V161.684H8.40736ZM12.2656 160.242L10.4316 162.874H9.00356L11.5376 159.276L9.14356 155.874H10.5856L12.2656 158.352L13.9456 155.874H15.3876L13.0076 159.276L15.5416 162.874H14.0996L12.2656 160.242ZM17.7776 156.994C18.2116 156.196 18.9536 155.762 19.9756 155.762C21.7956 155.762 22.8456 157.078 22.8456 159.374C22.8456 161.67 21.8096 162.986 19.9756 162.986C18.9956 162.986 18.2816 162.58 17.8476 161.824V165.394H16.5876V155.874H17.7776V156.994ZM21.5856 159.374C21.5856 157.764 20.9276 156.882 19.7236 156.882C18.5056 156.882 17.8476 157.75 17.8476 159.374C17.8476 160.984 18.5056 161.852 19.7236 161.852C20.9276 161.852 21.5856 160.984 21.5856 159.374ZM24.1067 153.732C24.1067 153.27 24.4567 152.934 24.9187 152.934C25.3807 152.934 25.7167 153.27 25.7167 153.732C25.7167 154.194 25.3807 154.544 24.9187 154.544C24.4567 154.544 24.1067 154.194 24.1067 153.732ZM25.5487 155.874V162.874H24.2887V155.874H25.5487ZM27.4371 162.874V155.874H28.6271V157.036C29.0891 156.21 29.8171 155.762 30.8111 155.762C31.2171 155.762 31.5671 155.832 31.8751 155.972L31.3711 157.134C31.1471 156.994 30.8531 156.924 30.5171 156.924C29.3551 156.924 28.6971 157.778 28.6971 159.262V162.874H27.4371ZM33.2196 157.582L32.5616 156.728C33.3176 156.098 34.2276 155.762 35.3196 155.762C37.0416 155.762 37.9656 156.574 37.9656 158.072V161.11C37.9656 161.684 38.2316 162.048 38.6936 162.132L38.3156 162.972C37.6296 162.972 37.1396 162.692 36.8876 162.188C36.5096 162.678 35.6976 162.986 34.7316 162.986C33.1776 162.986 32.3096 162.244 32.3096 161.012C32.3096 159.696 33.2756 158.87 34.9136 158.786L36.7056 158.688V158.114C36.7056 157.316 36.1736 156.854 35.2076 156.854C34.4656 156.854 33.7656 157.106 33.2196 157.582ZM36.7056 159.598L35.0256 159.682C34.0596 159.724 33.5136 160.172 33.5136 160.886C33.5136 161.6 34.0316 161.992 35.0256 161.992C36.0896 161.992 36.7056 161.53 36.7056 160.676V159.598ZM38.9391 155.874H39.9611V154.054L41.2211 153.592V155.874H42.8171V156.854H41.2211V160.984C41.2211 161.53 41.5571 161.852 42.1451 161.852C42.3131 161.852 42.5511 161.824 42.7891 161.768L42.9011 162.804C42.5791 162.874 42.2431 162.916 41.9491 162.916C40.6751 162.916 39.9611 162.216 39.9611 160.998V156.854H38.9391V155.874ZM43.8916 153.732C43.8916 153.27 44.2416 152.934 44.7036 152.934C45.1656 152.934 45.5016 153.27 45.5016 153.732C45.5016 154.194 45.1656 154.544 44.7036 154.544C44.2416 154.544 43.8916 154.194 43.8916 153.732ZM45.3336 155.874V162.874H44.0736V155.874H45.3336ZM53.0599 159.374C53.0599 161.67 51.9119 162.986 49.8959 162.986C47.8939 162.986 46.7599 161.67 46.7599 159.374C46.7599 157.078 47.8939 155.762 49.8959 155.762C51.9119 155.762 53.0599 157.078 53.0599 159.374ZM48.0199 159.374C48.0199 160.984 48.6779 161.852 49.8959 161.852C51.1279 161.852 51.7999 160.984 51.7999 159.374C51.7999 157.75 51.1279 156.882 49.8959 156.882C48.6779 156.882 48.0199 157.75 48.0199 159.374ZM55.7592 158.534V162.874H54.4992V155.874H55.6892V156.742C56.1792 156.084 56.8932 155.762 57.8312 155.762C59.4552 155.762 60.3792 156.714 60.3792 158.352V162.874H59.1192V158.464C59.1192 157.456 58.5032 156.882 57.4532 156.882C56.3892 156.882 55.7592 157.484 55.7592 158.534ZM68.2461 154.264V162.874H66.9161V154.264H63.9481V153.074H71.2281V154.264H68.2461ZM72.1021 153.732C72.1021 153.27 72.4521 152.934 72.9141 152.934C73.3761 152.934 73.7121 153.27 73.7121 153.732C73.7121 154.194 73.3761 154.544 72.9141 154.544C72.4521 154.544 72.1021 154.194 72.1021 153.732ZM73.5441 155.874V162.874H72.2841V155.874H73.5441ZM76.6925 158.534V162.874H75.4325V155.874H76.6225V156.714C77.0285 156.112 77.7565 155.762 78.5965 155.762C79.5205 155.762 80.2765 156.182 80.6405 156.952C81.0745 156.196 81.8725 155.762 82.9085 155.762C84.4485 155.762 85.3725 156.714 85.3725 158.352V162.874H84.1125V158.464C84.1125 157.456 83.5525 156.882 82.5865 156.882C81.5925 156.882 81.0325 157.484 81.0325 158.534V162.874H79.7725V158.464C79.7725 157.456 79.2125 156.882 78.2465 156.882C77.2525 156.882 76.6925 157.484 76.6925 158.534ZM90.0781 162.986C87.9641 162.986 86.7321 161.684 86.7321 159.346C86.7321 157.106 87.8801 155.762 89.8121 155.762C91.7441 155.762 92.8221 157.064 92.8221 159.332V159.738H87.9781C88.0061 161.124 88.8041 161.894 90.1201 161.894C90.8341 161.894 91.4781 161.656 91.9681 161.166L92.7101 161.95C92.0241 162.608 91.1981 162.986 90.0781 162.986ZM89.8541 156.812C88.7481 156.812 88.0621 157.54 87.9781 158.828H91.6601C91.6041 157.54 90.9461 156.812 89.8541 156.812Z" fill="white"/>
<path d="M254.783 115.823L252.159 115.824C249.949 115.824 248.157 117.616 248.157 119.827L248.157 123.261C248.157 125.472 246.365 127.264 244.154 127.264L229.06 127.264L203.07 127.264L155.091 127.264C152.88 127.264 151.088 129.057 151.088 131.267L151.088 166.309C151.088 168.52 149.296 170.312 147.085 170.312L146.469 170.312L0.692923 170.312" stroke="#544FFF" stroke-width="1.35993"/>
<circle cx="257.228" cy="115.933" r="3.37476" fill="white" stroke="#544FFF" stroke-width="1.35993"/>
<defs>
<clipPath id="clip0_4_44913">
<rect x="155.883" y="2.15234" width="267.907" height="137.353" rx="6.1625" fill="white"/>
</clipPath>
</defs>
</svg>
