<svg display="none" xmlns="http://www.w3.org/2000/svg">

	<symbol id="mail" viewBox="0 0 25 17">
		<g>
			<path fill-rule="evenodd" clip-rule="evenodd"
				d="M23.6133 16.0291C23.3552 16.1859 23.0635 16.2688 22.7665 16.27H2.44364C2.14615 16.2728 1.85351 16.1896 1.59685 16.0291L8.37113 8.80323L10.0365 10.5796C10.3763 10.9285 10.7795 11.1993 11.2213 11.3754C11.6631 11.5515 12.134 11.629 12.6051 11.6033C13.0758 11.6263 13.546 11.5475 13.9875 11.3715C14.4289 11.1956 14.8324 10.9262 15.1736 10.5796L16.839 8.80323L23.6133 16.0291ZM24.206 15.3668L17.4317 8.14086L24.206 0.914956C24.353 1.19027 24.4307 1.5014 24.4318 1.81819V14.4635C24.4581 14.7835 24.3782 15.1032 24.206 15.3668ZM0.975874 15.3668C0.828935 15.0914 0.751153 14.7803 0.750065 14.4635V1.81819C0.747416 1.50088 0.825452 1.18873 0.975874 0.914956L7.75015 8.14086L0.975874 15.3668ZM23.6133 0.252582L14.5527 9.91722C14.2947 10.1817 13.989 10.3874 13.6542 10.522C13.3194 10.6566 12.9625 10.7171 12.6051 10.7C12.2476 10.7171 11.8907 10.6566 11.5559 10.522C11.2211 10.3874 10.9154 10.1817 10.6575 9.91722L1.59685 0.252582C1.85495 0.0958462 2.14664 0.012879 2.44364 0.0117188H22.7665C23.0635 0.0128746 23.3552 0.0958421 23.6133 0.252582Z" />
		</g>
	
	</symbol>


</svg>