<svg display="none" xmlns="http://www.w3.org/2000/svg">

	<symbol id="fb" viewBox="0 0 9 16">
		<path
			d="M2.734 8.55225C2.66315 8.55225 2.66315 8.55225 2.5923 8.55225C2.0255 8.55225 1.4587 8.55225 0.891898 8.55225C0.608497 8.55225 0.466797 8.48082 0.466797 8.12368C0.466797 7.33796 0.466797 6.62368 0.466797 5.83796C0.466797 5.55225 0.608497 5.40939 0.891898 5.40939C1.4587 5.40939 2.0255 5.40939 2.5923 5.40939C2.66315 5.40939 2.66315 5.40939 2.734 5.40939C2.734 5.33796 2.734 5.33796 2.734 5.26653C2.734 4.76653 2.734 4.26653 2.734 3.76653C2.734 3.05225 2.8757 2.33796 3.22995 1.62367C3.58421 0.980818 4.15101 0.480818 4.85951 0.266532C5.35546 0.123675 5.78056 0.0522461 6.27651 0.0522461C6.91417 0.0522461 7.48097 0.0522461 8.11862 0.0522461C8.40202 0.0522461 8.47287 0.195103 8.47287 0.409389C8.47287 1.12367 8.47287 1.83796 8.47287 2.55225C8.47287 2.83796 8.33117 2.90939 8.11862 2.90939C7.62267 2.90939 7.12672 2.90939 6.63076 2.90939C6.34736 2.98082 6.13481 3.05225 5.99311 3.33796C5.92226 3.48082 5.85141 3.62367 5.85141 3.76653C5.85141 4.33796 5.85141 4.90939 5.85141 5.48082C5.92226 5.48082 5.92226 5.48082 5.99311 5.48082C6.63076 5.48082 7.33927 5.48082 7.97692 5.48082C8.26032 5.48082 8.40202 5.55225 8.40202 5.90939C8.40202 6.6951 8.40202 7.40939 8.40202 8.1951C8.40202 8.48082 8.33117 8.62367 7.97692 8.62367C7.33927 8.62367 6.63076 8.62367 5.99311 8.62367C5.92226 8.62367 5.92226 8.62367 5.85141 8.62367C5.85141 8.6951 5.85141 8.76653 5.85141 8.76653C5.85141 10.7665 5.85141 12.6951 5.85141 14.6951C5.85141 14.9808 5.78056 15.0522 5.42631 15.0522C4.64696 15.0522 3.86761 15.0522 3.08825 15.0522C2.80485 15.0522 2.66315 14.9094 2.66315 14.6237C2.66315 12.6237 2.66315 10.6237 2.66315 8.6951C2.734 8.62368 2.734 8.62367 2.734 8.55225Z" />
	</symbol>

	<symbol id="vk" viewBox="0 0 19 11">
		<path
			d="M18.0404 0.0522461C18.3404 0.352246 18.1404 0.752246 18.2404 1.05225C18.0404 2.55225 17.1404 3.65225 16.3404 4.75225C15.4404 5.85225 15.4404 5.85225 16.4404 6.95225C16.7404 7.25225 17.0404 7.65225 17.4404 7.95225C17.8404 8.35225 18.1404 8.85225 18.2404 9.35225C18.2404 9.55225 18.2404 9.65225 18.2404 9.85225C18.1404 10.1522 17.8404 10.3522 17.5404 10.2522C16.6404 10.2522 15.7404 10.2522 14.8404 10.2522C14.0404 10.3522 13.3404 10.0522 12.7404 9.45225C12.5404 9.25225 12.3404 9.15225 12.1404 8.95225C11.4404 8.25225 11.2404 8.65225 11.0404 9.45225C10.9404 9.95225 10.8404 10.3522 10.3404 10.3522C9.84042 10.3522 9.34042 10.3522 8.84042 10.3522C7.24042 10.4522 5.84042 9.75225 4.74042 8.55225C2.94042 6.55225 1.74042 4.15225 0.740424 1.75225C0.540424 1.25225 0.240424 0.652246 0.740424 0.152246C1.74042 0.152246 2.74042 0.152246 3.74042 0.152246C4.34042 0.152246 4.54042 0.552246 4.64042 1.05225C5.04042 2.05225 5.44042 3.05225 6.04042 3.85225C6.24042 4.15225 6.44042 4.45225 6.84042 4.35225C7.24042 4.25225 7.24042 3.85225 7.24042 3.55225C7.34042 2.75225 7.34042 2.05225 6.84042 1.35225C6.64042 1.05225 6.34042 0.852246 6.54042 0.452246C6.74042 0.0522461 7.04042 0.152246 7.44042 0.152246C7.54042 0.152246 7.54042 0.152246 7.64042 0.152246C8.34042 0.152246 8.94042 0.152246 9.64042 0.152246C10.7404 0.152246 10.9404 0.452246 10.9404 1.65225C10.9404 2.35225 10.9404 3.05225 10.9404 3.75225C10.9404 4.05225 11.0404 4.35225 11.2404 4.45225C11.5404 4.55225 11.7404 4.35225 11.9404 4.15225C12.7404 3.25225 13.2404 2.25225 13.5404 1.15225C13.7404 0.652246 13.9404 0.152246 14.5404 0.152246C15.7404 0.0522461 16.9404 0.252246 18.0404 0.0522461Z" />
	</symbol>

	<symbol id="youtube" viewBox="0 0 19 14">
		<path
			d="M9.38715 0.0522461C11.219 0.134525 13.0509 0.216803 14.9624 0.299082C15.3606 0.299082 15.8385 0.38136 16.2367 0.463638C17.2721 0.628195 17.9889 1.3687 18.1482 2.5206C18.3872 4.08389 18.4668 5.64718 18.3872 7.21047C18.3872 8.28009 18.2279 9.43199 18.1482 10.5016C18.0686 11.3244 17.75 11.9826 17.0332 12.4763C16.6349 12.7231 16.1571 12.8054 15.6792 12.8877C13.8473 13.0522 11.9358 13.1345 10.104 13.1345C8.19246 13.1345 6.3606 13.0522 4.4491 12.97C3.81193 12.97 3.25441 12.8877 2.61724 12.8054C1.58184 12.6409 0.865027 11.9003 0.705735 10.8307C0.546443 9.67883 0.546443 8.60921 0.466797 7.45731C0.466797 6.05858 0.466797 4.57756 0.626089 3.09655C0.705735 2.76744 0.705735 2.43832 0.785381 2.10921C1.02432 1.12187 1.82078 0.463638 2.77653 0.38136C4.52874 0.134525 6.28096 0.134525 8.03317 0.134525C8.59069 0.134525 8.98892 0.134525 9.38715 0.0522461ZM7.71459 3.83706C7.71459 5.72946 7.71459 7.53959 7.71459 9.43199C9.30751 8.52693 10.8208 7.62187 12.4137 6.63452C10.7411 5.64718 9.22786 4.74212 7.71459 3.83706Z"/>
	</symbol>

	<symbol id="mail" viewBox="0 0 25 17">
		<g>
			<path fill-rule="evenodd" clip-rule="evenodd"
				d="M23.6133 16.0291C23.3552 16.1859 23.0635 16.2688 22.7665 16.27H2.44364C2.14615 16.2728 1.85351 16.1896 1.59685 16.0291L8.37113 8.80323L10.0365 10.5796C10.3763 10.9285 10.7795 11.1993 11.2213 11.3754C11.6631 11.5515 12.134 11.629 12.6051 11.6033C13.0758 11.6263 13.546 11.5475 13.9875 11.3715C14.4289 11.1956 14.8324 10.9262 15.1736 10.5796L16.839 8.80323L23.6133 16.0291ZM24.206 15.3668L17.4317 8.14086L24.206 0.914956C24.353 1.19027 24.4307 1.5014 24.4318 1.81819V14.4635C24.4581 14.7835 24.3782 15.1032 24.206 15.3668ZM0.975874 15.3668C0.828935 15.0914 0.751153 14.7803 0.750065 14.4635V1.81819C0.747416 1.50088 0.825452 1.18873 0.975874 0.914956L7.75015 8.14086L0.975874 15.3668ZM23.6133 0.252582L14.5527 9.91722C14.2947 10.1817 13.989 10.3874 13.6542 10.522C13.3194 10.6566 12.9625 10.7171 12.6051 10.7C12.2476 10.7171 11.8907 10.6566 11.5559 10.522C11.2211 10.3874 10.9154 10.1817 10.6575 9.91722L1.59685 0.252582C1.85495 0.0958462 2.14664 0.012879 2.44364 0.0117188H22.7665C23.0635 0.0128746 23.3552 0.0958421 23.6133 0.252582Z" />
		</g>

	</symbol>

	<symbol id="tg" viewBox="0 0 24 27">
		<path
			d="M9.41757 16.9264L9.02057 22.9758C9.58857 22.9758 9.83557 22.7114 10.1296 22.394L12.7926 19.6369L18.3106 24.0147C19.3226 24.6257 20.0356 24.3039 20.3086 23.0061L23.9306 4.61978L23.9316 4.61761C24.2526 2.99695 23.3906 2.36428 22.4046 2.76186L1.11457 11.5921C-0.338432 12.2042 -0.317432 13.0806 0.867568 13.4782L6.30957 15.3123L18.9536 6.74095C19.5496 6.31411 20.0896 6.55028 19.6446 6.97711L9.41757 16.9264Z" />
		<path
			d="M22.9556 2.64551C22.7816 2.64551 22.5956 2.68342 22.4046 2.76034L1.11457 11.5906C-0.338432 12.2027 -0.317432 13.0791 0.867568 13.4767L6.30957 15.3108L18.9536 6.74051C19.1746 6.58234 19.3876 6.51517 19.5456 6.51517C19.8146 6.51517 19.9246 6.70801 19.6446 6.97667L9.41757 16.926L23.7596 3.05609C23.5706 2.78309 23.2856 2.64551 22.9556 2.64551Z" />
	</symbol>

	<symbol id="arrow-right" viewBox="0 0 132 15">
		<path
			d="M131.234 8.23642C131.625 7.84589 131.625 7.21273 131.234 6.8222L124.87 0.45824C124.48 0.0677155 123.847 0.0677155 123.456 0.45824C123.066 0.848764 123.066 1.48193 123.456 1.87245L129.113 7.52931L123.456 13.1862C123.066 13.5767 123.066 14.2099 123.456 14.6004C123.847 14.9909 124.48 14.9909 124.87 14.6004L131.234 8.23642ZM0.240234 8.5293L130.527 8.52931L130.527 6.52931L0.240234 6.5293L0.240234 8.5293Z" />
	</symbol>

</svg>