<svg width="413" height="369" viewBox="0 0 413 369" fill="none" xmlns="http://www.w3.org/2000/svg">
<g filter="url(#filter0_f_133_670)">
<ellipse cx="206.841" cy="238.329" rx="106.394" ry="30.5968" fill="url(#paint0_linear_133_670)"/>
</g>
<path d="M292.767 238.329C292.767 250.544 283.874 261.811 269.041 270.081C254.24 278.332 233.726 283.467 211.012 283.467C188.299 283.467 167.784 278.332 152.984 270.081C138.15 261.811 129.258 250.544 129.258 238.329C129.258 226.114 138.15 214.847 152.984 206.577C167.784 198.326 188.299 193.191 211.012 193.191C233.726 193.191 254.24 198.326 269.041 206.577C283.874 214.847 292.767 226.114 292.767 238.329Z" stroke="black" stroke-opacity="0.1" stroke-width="1.99242"/>
<path d="M271.907 236.132C271.907 245.038 265.356 253.314 254.295 259.421C243.269 265.509 227.969 269.305 211.014 269.305C194.06 269.305 178.76 265.509 167.733 259.421C156.672 253.314 150.121 245.038 150.121 236.132C150.121 227.226 156.672 218.95 167.733 212.843C178.76 206.756 194.06 202.959 211.014 202.959C227.969 202.959 243.269 206.756 254.295 212.843C265.356 218.95 271.907 227.226 271.907 236.132Z" stroke="black" stroke-opacity="0.1" stroke-width="1.99242"/>
<g filter="url(#filter1_f_133_670)">
<ellipse cx="211.014" cy="243.197" rx="61.8891" ry="18.7753" fill="url(#paint1_linear_133_670)"/>
</g>
<g filter="url(#filter2_d_133_670)">
<path d="M64.9047 15.9417C64.9046 13.3188 73.2015 8.94541 75.4598 10.2494L350.79 169.225C353.048 170.529 354.879 173.713 354.88 176.336L354.885 315.644C354.885 318.267 346.896 324.456 344.638 323.152L75.4655 159.056C73.2071 157.752 71.3763 154.569 71.3762 151.946L64.9047 15.9417Z" fill="url(#paint2_linear_133_670)"/>
</g>
<path d="M65.3037 18.0266C65.3036 15.9505 66.7512 15.1133 68.5266 16.1384L343.857 175.114C345.632 176.139 347.08 178.648 347.08 180.724L347.085 320.033C347.085 322.109 345.638 322.946 343.862 321.921L68.5321 162.945C66.7568 161.92 65.309 159.411 65.3089 157.335L65.3037 18.0266Z" fill="#202134" stroke="url(#paint3_radial_133_670)" stroke-width="2"/>
<path d="M344.916 314.531C344.916 315.475 344.313 315.892 343.57 315.463L303.159 292.13C302.416 291.701 301.813 290.587 301.813 289.643C301.813 288.699 302.416 288.282 303.159 288.712L343.57 312.045C344.313 312.474 344.916 313.587 344.916 314.531Z" fill="#EA712C"/>
<path d="M298.17 287.539C298.17 288.483 297.558 288.895 296.805 288.46L255.824 264.798C255.071 264.363 254.459 263.245 254.459 262.301C254.459 261.357 255.071 260.945 255.824 261.38L296.804 285.042C297.558 285.477 298.17 286.595 298.17 287.539Z" fill="#EA712C"/>
<path d="M251.427 260.55C251.427 261.494 250.816 261.906 250.062 261.471L209.082 237.809C208.328 237.374 207.717 236.256 207.717 235.312C207.717 234.368 208.328 233.955 209.082 234.391L250.062 258.052C250.816 258.488 251.427 259.606 251.427 260.55Z" fill="#D5CE41"/>
<path d="M204.679 233.558C204.679 234.502 204.068 234.914 203.314 234.479L162.334 210.817C161.58 210.382 160.969 209.264 160.969 208.32C160.969 207.376 161.58 206.964 162.334 207.399L203.314 231.061C204.068 231.496 204.679 232.614 204.679 233.558Z" fill="#D5CE41"/>
<path d="M157.935 206.567C157.935 207.511 157.324 207.924 156.57 207.488L115.59 183.826C114.836 183.391 114.225 182.273 114.225 181.329C114.225 180.385 114.836 179.972 115.59 180.408L156.57 204.07C157.324 204.505 157.935 205.623 157.935 206.567Z" fill="#D5CE41"/>
<path d="M110.583 179.227C110.583 180.171 109.972 180.583 109.218 180.148L68.2381 156.486C67.4843 156.051 66.8731 154.933 66.8731 153.989C66.8731 153.045 67.4842 152.632 68.238 153.068L109.218 176.73C109.972 177.165 110.583 178.283 110.583 179.227Z" fill="#70D541"/>
<path fill-rule="evenodd" clip-rule="evenodd" d="M98.4295 138.368C93.4026 135.466 89.3322 137.709 89.3324 143.37C89.3326 149.031 93.4033 155.975 98.4303 158.878C103.466 161.785 107.545 159.547 107.545 153.886C107.545 148.225 103.465 141.275 98.4295 138.368ZM98.4391 156.833C94.4138 154.508 91.1539 148.954 91.1537 144.422C91.1535 139.889 94.4132 138.1 98.4385 140.424C102.463 142.748 105.724 148.302 105.724 152.835C105.724 157.367 102.464 159.156 98.4391 156.833ZM97.5276 142.975L98.8938 143.764L98.894 149.147L102.992 154.252L102.309 155.119L97.5278 149.128L97.5276 142.975Z" fill="#8C8E95"/>
<path fill-rule="evenodd" clip-rule="evenodd" d="M189.897 190.878C184.871 187.976 180.791 190.214 180.791 195.876C180.792 201.536 184.871 208.486 189.898 211.388C194.924 214.29 199.004 212.052 199.004 206.391C199.003 200.73 194.924 193.78 189.897 190.878ZM193.759 199.015C192.693 197.199 191.3 195.79 189.897 194.981L189.897 201.133L186.036 203.251C188.168 206.882 191.628 208.88 193.768 207.716C195.899 206.547 195.899 202.65 193.759 199.015ZM182.612 196.927C182.612 201.459 185.873 207.013 189.898 209.337C193.922 211.661 197.183 209.872 197.183 205.34C197.182 200.807 193.922 195.253 189.897 192.929C185.872 190.605 182.612 192.394 182.612 196.927Z" fill="#8C8E95"/>
<path fill-rule="evenodd" clip-rule="evenodd" d="M276.8 251.614L280.989 258.75L279.714 259.449L274.25 250.141L279.714 247.143L280.989 249.315L276.8 251.614ZM289.913 259.185L285.724 261.484L286.999 263.655L292.463 260.657L286.999 251.35L285.724 252.049L289.913 259.185Z" fill="#8C8E95"/>
<path d="M310.377 216.467C311.427 215.042 314.05 216.557 315.1 219.194L325.726 245.898C326.775 248.534 325.464 250.317 323.365 249.105L302.114 236.835C300.016 235.623 298.704 232.326 299.753 230.901L310.377 216.467Z" fill="#1BC53C"/>
<path d="M282.385 177.176C282.385 175.515 283.608 174.874 285.117 175.746C286.625 176.616 287.849 178.67 287.849 180.331L287.849 181.835C287.849 183.496 286.625 184.137 285.117 183.266C283.608 182.395 282.385 180.341 282.385 178.68L282.385 177.176Z" fill="white"/>
<path d="M292.098 179.483C292.098 177.757 293.321 177.064 294.83 177.935C296.338 178.806 297.561 180.912 297.561 182.638L297.562 187.326C297.562 189.052 296.339 189.745 294.83 188.874C293.321 188.002 292.098 185.897 292.098 184.171L292.098 179.483Z" fill="white"/>
<path d="M301.811 182.272C301.811 180.594 303.034 179.94 304.542 180.811C306.051 181.682 307.274 183.749 307.274 185.427L307.275 193.023C307.275 194.701 306.052 195.355 304.543 194.484C303.034 193.613 301.811 191.546 301.811 189.868L301.811 182.272Z" fill="white"/>
<path d="M310.916 184.179C310.916 182.463 312.139 181.778 313.648 182.649C315.156 183.52 316.38 185.617 316.38 187.334L316.38 198.21C316.38 199.926 315.157 200.611 313.649 199.74C312.14 198.869 310.917 196.771 310.917 195.055L310.916 184.179Z" fill="white"/>
<path d="M320.629 186.995C320.629 185.311 321.853 184.652 323.361 185.522C324.87 186.394 326.093 188.465 326.093 190.15L326.093 203.876C326.093 205.561 324.87 206.22 323.362 205.348C321.853 204.478 320.63 202.406 320.63 200.721L320.629 186.995Z" stroke="white" stroke-width="1.76946"/>
<path d="M97.9611 72.2216L97.9612 75.1047L87.6139 69.1302L87.6133 53.6053L97.7124 59.4366L97.7125 62.3198L90.6871 58.2633L90.6873 61.6344L96.8917 65.2169L96.8918 68.0113L90.6874 64.4289L90.6875 68.0218L97.9611 72.2216ZM106.36 80.2202C104.451 79.1178 102.961 77.6446 101.892 75.7999C100.836 73.9626 100.308 71.9056 100.307 69.6286L100.307 60.9347L103.4 62.7205L103.4 71.2814C103.4 74.0611 104.393 76.0241 106.379 77.1706C107.346 77.729 108.084 77.8228 108.593 77.4513C109.102 77.065 109.357 76.1549 109.357 74.7207L109.356 66.1598L112.411 67.9236L112.411 76.6175C112.411 78.8945 111.877 80.3379 110.808 80.9478C109.751 81.5652 108.269 81.3225 106.36 80.2202ZM123.983 90.1297L121.405 84.3167L121.253 84.2285L118.561 82.6742L118.561 86.999L115.468 85.2132L115.468 69.6884L121.252 73.0285C122.436 73.7119 123.46 74.5326 124.326 75.4908C125.204 76.4562 125.879 77.4964 126.35 78.6109C126.82 79.7255 127.056 80.8596 127.056 82.0129C127.056 83.1662 126.815 84.0247 126.331 84.5881C125.86 85.1443 125.185 85.3904 124.307 85.3269L127.305 92.0478L123.983 90.1297ZM123.925 80.205C123.925 79.3327 123.684 78.5278 123.2 77.7901C122.716 77.0376 122.009 76.3931 121.081 75.8568L118.56 74.4017L118.561 79.8132L121.081 81.2683C122.01 81.8047 122.716 81.976 123.2 81.7822C123.684 81.5884 123.925 81.0626 123.925 80.205ZM135.444 97.0137C133.535 95.9113 132.046 94.4381 130.977 92.5934C129.92 90.7561 129.392 88.6991 129.392 86.4222L129.392 77.7282L132.485 79.514L132.485 88.0749C132.485 90.8546 133.478 92.8176 135.463 93.9641C136.43 94.5225 137.169 94.6163 137.678 94.2448C138.187 93.8585 138.441 92.9484 138.441 91.5142L138.441 82.9533L141.496 84.7171L141.496 93.411C141.496 95.688 140.962 97.1314 139.893 97.7413C138.836 98.3587 137.354 98.116 135.444 97.0137ZM148.944 104.808C147.887 104.198 146.863 103.444 145.87 102.546C144.89 101.639 144.101 100.748 143.503 99.8701L144.553 97.7707C145.125 98.5893 145.806 99.3741 146.595 100.126C147.385 100.877 148.173 101.48 148.963 101.936C149.841 102.443 150.49 102.67 150.91 102.617C151.33 102.549 151.54 102.264 151.54 101.761C151.54 101.391 151.413 101.015 151.158 100.631C150.917 100.24 150.598 99.8566 150.204 99.4811C149.822 99.1128 149.3 98.6487 148.638 98.0893C147.62 97.2203 146.786 96.4581 146.137 95.8024C145.488 95.1467 144.928 94.3723 144.457 93.4795C143.999 92.5939 143.77 91.6336 143.77 90.5986C143.77 89.6968 143.98 89.0048 144.4 88.5228C144.82 88.026 145.45 87.8058 146.29 87.862C147.142 87.9255 148.18 88.3102 149.401 89.0157C150.254 89.5079 151.088 90.1078 151.902 90.8146C152.717 91.5214 153.43 92.2731 154.041 93.0694L153.086 95.2462C151.852 93.7203 150.617 92.6006 149.382 91.8878C148.517 91.388 147.874 91.1797 147.454 91.2624C147.047 91.3524 146.843 91.6637 146.843 92.196C146.843 92.7283 147.079 93.2636 147.55 93.8015C148.034 94.3322 148.765 95.0059 149.745 95.8232C150.764 96.6922 151.597 97.4544 152.246 98.1101C152.895 98.7658 153.449 99.529 153.907 100.4C154.378 101.278 154.614 102.235 154.614 103.27C154.614 104.157 154.397 104.845 153.965 105.334C153.545 105.816 152.908 106.025 152.056 105.962C151.203 105.899 150.166 105.514 148.944 104.808ZM156.727 93.5114L162.798 97.0168C164.249 97.8546 165.528 98.9184 166.635 100.208C167.755 101.491 168.621 102.893 169.232 104.413C169.855 105.941 170.167 107.482 170.167 109.034C170.167 110.587 169.855 111.767 169.232 112.575C168.621 113.39 167.755 113.8 166.636 113.804C165.528 113.8 164.249 113.379 162.798 112.542L156.727 109.036L156.727 93.5114ZM162.645 109.504C163.982 110.275 165.044 110.46 165.834 110.058C166.635 109.649 167.036 108.705 167.036 107.226C167.036 105.748 166.635 104.348 165.833 103.028C165.044 101.7 163.981 100.65 162.645 99.8784L159.82 98.2469L159.82 107.872L162.645 109.504Z" fill="white"/>
<path d="M97.9651 92.2924L97.9661 119.461L92.5535 116.336L92.5526 94.2127L87.8752 91.512L87.875 86.4664L97.9651 92.2924ZM105.102 123.892C104.189 123.365 103.421 122.559 102.797 121.474C102.173 120.39 101.861 119.304 101.861 118.217C101.861 117.105 102.173 116.392 102.797 116.079C103.421 115.741 104.189 115.835 105.102 116.362C106.015 116.89 106.784 117.683 107.407 118.741C108.031 119.775 108.343 120.847 108.343 121.959C108.343 123.046 108.031 123.772 107.407 124.136C106.784 124.5 106.016 124.419 105.102 123.892ZM119.271 104.594L119.272 131.763L113.859 128.638L113.858 106.515L109.181 103.814L109.181 98.7684L119.271 104.594ZM139.337 129.066C140.495 130.408 141.375 131.795 141.976 133.229C142.6 134.676 142.912 136.111 142.912 137.534C142.912 139.216 142.5 140.453 141.676 141.245C140.852 142.011 139.694 142.313 138.201 142.149C136.709 141.961 134.983 141.3 133.023 140.168C131.063 139.037 129.337 137.704 127.844 136.169C126.374 134.622 125.227 132.989 124.403 131.271C123.601 129.541 123.2 127.834 123.2 126.152C123.2 124.729 123.501 123.648 124.102 122.908C124.726 122.182 125.605 121.81 126.741 121.793C125.873 120.671 125.204 119.509 124.737 118.307C124.269 117.08 124.035 115.858 124.035 114.642C124.035 113.063 124.414 111.911 125.171 111.183C125.928 110.457 126.986 110.175 128.344 110.338C129.703 110.476 131.262 111.053 133.022 112.068C134.804 113.097 136.374 114.328 137.733 115.759C139.114 117.177 140.183 118.687 140.94 120.289C141.698 121.891 142.076 123.481 142.076 125.059C142.076 126.275 141.842 127.227 141.375 127.914C140.907 128.575 140.228 128.96 139.337 129.066ZM133.022 116.687C131.931 116.057 131.051 115.859 130.383 116.095C129.737 116.317 129.414 116.958 129.414 118.019C129.414 119.054 129.737 120.056 130.383 121.024C131.029 121.992 131.909 122.798 133.022 123.44C134.136 124.084 135.027 124.301 135.695 124.091C136.363 123.882 136.697 123.259 136.697 122.225C136.697 121.163 136.363 120.143 135.695 119.162C135.027 118.155 134.136 117.33 133.022 116.687ZM133.023 135.55C134.382 136.335 135.451 136.603 136.23 136.354C137.032 136.093 137.433 135.366 137.433 134.176C137.433 132.986 137.032 131.81 136.23 130.648C135.451 129.5 134.381 128.533 133.022 127.749C131.686 126.977 130.628 126.715 129.848 126.964C129.069 127.213 128.679 127.932 128.679 129.122C128.679 130.338 129.069 131.521 129.849 132.669C130.628 133.818 131.686 134.778 133.023 135.55ZM155.413 153.097C153.475 151.978 151.749 150.425 150.234 148.438C148.72 146.451 147.528 144.158 146.659 141.561C145.813 138.95 145.39 136.183 145.389 133.259C145.389 130.335 145.812 128.07 146.659 126.463C147.527 124.843 148.719 123.913 150.233 123.675C151.748 123.438 153.474 123.878 155.412 124.997C157.35 126.115 159.076 127.669 160.591 129.656C162.105 131.643 163.286 133.942 164.132 136.552C165.001 139.149 165.435 141.91 165.435 144.834C165.436 147.758 165.001 150.03 164.133 151.65C163.286 153.257 162.106 154.18 160.591 154.418C159.077 154.655 157.351 154.215 155.413 153.097ZM155.413 147.779C156.838 148.602 157.952 148.534 158.754 147.574C159.578 146.627 159.99 144.665 159.99 141.689C159.99 138.714 159.577 136.276 158.753 134.378C157.951 132.492 156.837 131.137 155.412 130.314C154.009 129.504 152.895 129.572 152.071 130.519C151.269 131.479 150.869 133.448 150.869 136.423C150.869 139.398 151.27 141.83 152.072 143.716C152.896 145.614 154.01 146.969 155.413 147.779ZM179.324 149.399C180.817 150.261 182.175 151.394 183.4 152.801C184.625 154.206 185.594 155.762 186.307 157.467C187.02 159.146 187.376 160.827 187.377 162.509C187.377 164.32 186.986 165.686 186.207 166.608C185.428 167.529 184.359 167.972 183 167.939C181.664 167.891 180.171 167.392 178.523 166.44C175.249 164.55 172.687 161.906 170.839 158.51C168.99 155.114 168.065 151.256 168.065 146.935C168.065 143.855 168.566 141.505 169.569 139.885C170.571 138.265 171.963 137.399 173.745 137.29C175.549 137.193 177.631 137.826 179.992 139.189C181.239 139.909 182.431 140.766 183.567 141.758C184.725 142.737 185.705 143.756 186.507 144.814L184.503 148.275C183.344 146.7 181.885 145.405 180.126 144.39C178.143 143.245 176.573 143.011 175.415 143.688C174.257 144.364 173.633 145.958 173.545 148.468C174.925 147.661 176.852 147.972 179.324 149.399ZM178.222 161.571C179.38 162.239 180.316 162.417 181.029 162.104C181.764 161.804 182.131 161.033 182.131 159.791C182.131 158.549 181.764 157.353 181.029 156.205C180.316 155.043 179.358 154.115 178.155 153.42C176.975 152.738 176.006 152.567 175.249 152.906C174.491 153.219 174.113 153.971 174.113 155.161C174.113 156.351 174.48 157.534 175.215 158.709C175.95 159.884 176.953 160.837 178.222 161.571ZM210.754 178.88L206.945 176.68L206.946 182.386L201.667 179.338L201.667 173.632L189.071 166.36L189.071 162.129L200.096 151.263L205.775 154.542L195.552 164.979L201.833 168.606L201.833 163.521L206.945 166.473L206.945 171.557L210.754 173.756L210.754 178.88Z" fill="#1BC53C"/>
<path opacity="0.5" d="M307.017 275.031C305.952 274.416 304.988 273.594 304.123 272.563C303.267 271.526 302.592 270.391 302.094 269.157C301.607 267.917 301.364 266.696 301.364 265.494C301.363 264.293 301.607 263.36 302.094 262.694C302.591 262.022 303.267 261.667 304.123 261.63C304.988 261.587 305.957 261.875 307.031 262.495C307.936 263.017 308.751 263.673 309.477 264.462C310.213 265.256 310.829 266.143 311.327 267.124L309.776 267.891C309.069 266.536 308.195 265.558 307.15 264.955C306.504 264.581 305.927 264.416 305.42 264.458C304.913 264.489 304.515 264.715 304.227 265.138C303.949 265.566 303.81 266.156 303.81 266.907C303.81 267.657 303.949 268.408 304.227 269.158C304.516 269.913 304.913 270.605 305.421 271.233C305.928 271.849 306.504 272.344 307.151 272.717C308.195 273.32 309.069 273.345 309.776 272.795L311.327 275.354C310.83 275.771 310.213 275.953 309.478 275.897C308.741 275.842 307.921 275.553 307.017 275.031ZM317.737 281.22C316.673 280.606 315.708 279.784 314.843 278.753C313.988 277.716 313.312 276.581 312.814 275.346C312.328 274.107 312.083 272.885 312.083 271.684C312.083 270.483 312.327 269.55 312.814 268.883C313.312 268.212 313.988 267.857 314.843 267.819C315.708 267.776 316.677 268.064 317.751 268.684C318.656 269.207 319.472 269.863 320.197 270.651C320.933 271.446 321.55 272.333 322.047 273.313L320.496 274.081C319.79 272.726 318.914 271.747 317.87 271.144C317.224 270.771 316.647 270.606 316.14 270.648C315.633 270.679 315.236 270.905 314.947 271.328C314.669 271.756 314.529 272.346 314.53 273.096C314.53 273.847 314.669 274.598 314.947 275.348C315.236 276.103 315.633 276.795 316.14 277.423C316.648 278.039 317.225 278.534 317.871 278.907C318.915 279.51 319.79 279.535 320.496 278.984L322.047 281.543C321.55 281.961 320.934 282.143 320.198 282.087C319.462 282.032 318.642 281.743 317.737 281.22ZM323.678 272.315L326.095 273.71L326.095 285.839L323.679 284.444L323.678 272.315Z" fill="white"/>
<path opacity="0.5" d="M209.36 211.514C210.832 212.363 211.916 213.33 212.612 214.413C213.318 215.502 213.671 216.619 213.671 217.762C213.671 218.502 213.512 219.086 213.194 219.514C212.876 219.931 212.388 220.135 211.732 220.125C211.086 220.111 210.285 219.827 209.331 219.276C208.595 218.851 207.869 218.323 207.153 217.69C206.447 217.051 205.846 216.38 205.348 215.677L206.303 214.08C206.701 214.656 207.158 215.192 207.675 215.686C208.192 216.17 208.724 216.57 209.271 216.885C209.878 217.236 210.355 217.372 210.703 217.296C211.051 217.22 211.225 216.934 211.225 216.437C211.225 215.917 211.041 215.418 210.673 214.94C210.315 214.468 209.688 213.973 208.793 213.456L206.124 211.915L206.66 205.398L213.029 209.075L213.029 211.328L208.674 208.813L208.51 211.023L209.36 211.514ZM229.644 221.337C230.648 221.917 231.443 222.722 232.03 223.754C232.627 224.78 232.925 225.981 232.925 227.355L232.925 232.692L230.598 231.348L230.598 226.427C230.598 225.688 230.464 225.062 230.195 224.549C229.937 224.03 229.564 223.63 229.077 223.349C228.53 223.033 228.098 222.991 227.779 223.223C227.461 223.443 227.302 223.958 227.302 224.767L227.302 229.445L224.975 228.102L224.975 223.181C224.975 221.713 224.468 220.687 223.454 220.102C222.917 219.792 222.49 219.753 222.171 219.985C221.853 220.205 221.694 220.72 221.694 221.529L221.694 226.207L219.367 224.863L219.367 215.542L221.589 216.825L221.589 217.899C221.888 217.678 222.251 217.588 222.678 217.627C223.116 217.672 223.593 217.843 224.11 218.142C224.677 218.469 225.189 218.898 225.646 219.427C226.104 219.946 226.472 220.533 226.75 221.191C227.078 220.895 227.491 220.758 227.988 220.779C228.495 220.807 229.047 220.992 229.644 221.337ZM235.011 224.574L237.337 225.918L237.338 235.24L235.011 233.896L235.011 224.574ZM236.174 223.946C235.746 223.699 235.398 223.354 235.13 222.91C234.861 222.466 234.727 222.031 234.727 221.604C234.727 221.176 234.861 220.896 235.13 220.762C235.398 220.628 235.746 220.685 236.174 220.932C236.602 221.179 236.949 221.518 237.218 221.95C237.486 222.383 237.621 222.807 237.621 223.222C237.621 223.673 237.486 223.971 237.218 224.116C236.95 224.25 236.602 224.193 236.174 223.946ZM244.374 229.842C245.368 230.416 246.169 231.225 246.776 232.268C247.392 233.317 247.701 234.523 247.701 235.887L247.701 241.223L245.374 239.88L245.374 234.959C245.374 234.219 245.234 233.591 244.956 233.072C244.678 232.541 244.275 232.124 243.748 231.82C243.161 231.481 242.694 231.424 242.346 231.651C241.998 231.866 241.824 232.389 241.824 233.221L241.824 237.83L239.497 236.487L239.497 227.165L241.719 228.448L241.72 229.54C242.027 229.324 242.41 229.245 242.868 229.302C243.325 229.346 243.827 229.526 244.374 229.842Z" fill="white"/>
<path opacity="0.5" d="M119.768 167.216C118.903 166.716 118.132 166.023 117.456 165.136C116.78 164.248 116.248 163.226 115.86 162.066C115.482 160.9 115.293 159.665 115.293 158.36C115.293 157.055 115.482 156.043 115.86 155.326C116.248 154.602 116.779 154.188 117.456 154.082C118.132 153.975 118.902 154.172 119.768 154.671C120.633 155.171 121.403 155.864 122.079 156.751C122.755 157.638 123.282 158.664 123.661 159.83C124.048 160.99 124.242 162.222 124.242 163.527C124.242 164.832 124.049 165.847 123.661 166.57C123.283 167.287 122.756 167.699 122.08 167.806C121.403 167.912 120.633 167.715 119.768 167.216ZM119.768 164.842C120.404 165.209 120.901 165.179 121.259 164.75C121.627 164.327 121.811 163.452 121.811 162.123C121.811 160.795 121.627 159.707 121.259 158.859C120.901 158.017 120.404 157.412 119.768 157.045C119.141 156.683 118.644 156.714 118.276 157.137C117.918 157.566 117.739 158.444 117.739 159.772C117.739 161.101 117.918 162.186 118.276 163.028C118.644 163.876 119.141 164.48 119.768 164.842ZM129.356 160.415L129.356 172.544L126.94 171.149L126.939 161.273L124.851 160.067L124.851 157.815L129.356 160.415ZM132.542 168.302C132.134 168.067 131.791 167.707 131.513 167.223C131.234 166.738 131.095 166.254 131.095 165.769C131.095 165.272 131.234 164.953 131.512 164.814C131.791 164.663 132.134 164.705 132.542 164.941C132.949 165.176 133.292 165.53 133.571 166.003C133.849 166.464 133.988 166.942 133.988 167.439C133.988 167.925 133.849 168.248 133.571 168.411C133.292 168.574 132.949 168.537 132.542 168.302ZM132.542 174.522C132.135 174.287 131.791 173.928 131.513 173.443C131.234 172.958 131.095 172.474 131.095 171.989C131.095 171.492 131.234 171.174 131.513 171.035C131.791 170.884 132.134 170.926 132.542 171.161C132.949 171.396 133.292 171.75 133.571 172.223C133.85 172.684 133.989 173.163 133.989 173.66C133.989 174.145 133.85 174.469 133.571 174.631C133.293 174.794 132.949 174.758 132.542 174.522ZM144.634 178.819L142.934 177.837L142.934 180.384L140.577 179.023L140.577 176.476L134.954 173.229L134.954 171.341L139.876 166.49L142.411 167.954L137.847 172.613L140.651 174.232L140.651 171.962L142.933 173.28L142.934 175.55L144.634 176.532L144.634 178.819ZM152.646 179.616C153.164 180.215 153.556 180.834 153.825 181.474C154.103 182.12 154.242 182.761 154.242 183.396C154.242 184.147 154.059 184.699 153.69 185.053C153.323 185.395 152.806 185.53 152.139 185.457C151.474 185.372 150.703 185.078 149.828 184.572C148.953 184.067 148.182 183.472 147.516 182.787C146.859 182.096 146.347 181.367 145.979 180.6C145.621 179.827 145.442 179.066 145.442 178.315C145.442 177.68 145.577 177.197 145.845 176.867C146.124 176.543 146.516 176.376 147.023 176.369C146.635 175.868 146.337 175.349 146.128 174.813C145.919 174.265 145.815 173.719 145.815 173.176C145.815 172.472 145.984 171.957 146.322 171.633C146.66 171.308 147.133 171.182 147.739 171.255C148.346 171.317 149.042 171.574 149.827 172.028C150.623 172.487 151.324 173.036 151.93 173.675C152.547 174.309 153.024 174.983 153.362 175.697C153.7 176.413 153.869 177.122 153.869 177.827C153.869 178.37 153.765 178.794 153.556 179.102C153.347 179.397 153.044 179.568 152.646 179.616ZM149.827 174.09C149.34 173.809 148.947 173.72 148.649 173.825C148.361 173.924 148.216 174.211 148.216 174.684C148.216 175.147 148.361 175.594 148.649 176.026C148.938 176.458 149.33 176.818 149.827 177.104C150.325 177.392 150.722 177.488 151.02 177.395C151.319 177.302 151.468 177.024 151.468 176.562C151.468 176.088 151.319 175.632 151.02 175.194C150.722 174.745 150.325 174.377 149.827 174.09ZM149.827 182.51C150.434 182.861 150.911 182.98 151.259 182.869C151.617 182.752 151.796 182.429 151.796 181.897C151.796 181.366 151.617 180.841 151.259 180.322C150.911 179.81 150.434 179.378 149.827 179.028C149.231 178.683 148.759 178.567 148.41 178.677C148.063 178.788 147.888 179.109 147.888 179.641C147.888 180.184 148.063 180.712 148.41 181.224C148.759 181.738 149.231 182.166 149.827 182.51Z" fill="white"/>
<defs>
<filter id="filter0_f_133_670" x="0.826408" y="108.111" width="412.029" height="260.435" filterUnits="userSpaceOnUse" color-interpolation-filters="sRGB">
<feFlood flood-opacity="0" result="BackgroundImageFix"/>
<feBlend mode="normal" in="SourceGraphic" in2="BackgroundImageFix" result="shape"/>
<feGaussianBlur stdDeviation="49.8104" result="effect1_foregroundBlur_133_670"/>
</filter>
<filter id="filter1_f_133_670" x="109.277" y="184.573" width="203.474" height="117.247" filterUnits="userSpaceOnUse" color-interpolation-filters="sRGB">
<feFlood flood-opacity="0" result="BackgroundImageFix"/>
<feBlend mode="normal" in="SourceGraphic" in2="BackgroundImageFix" result="shape"/>
<feGaussianBlur stdDeviation="19.9242" result="effect1_foregroundBlur_133_670"/>
</filter>
<filter id="filter2_d_133_670" x="39.9043" y="0.0120239" width="339.98" height="363.319" filterUnits="userSpaceOnUse" color-interpolation-filters="sRGB">
<feFlood flood-opacity="0" result="BackgroundImageFix"/>
<feColorMatrix in="SourceAlpha" type="matrix" values="0 0 0 0 0 0 0 0 0 0 0 0 0 0 0 0 0 0 127 0" result="hardAlpha"/>
<feOffset dy="15"/>
<feGaussianBlur stdDeviation="12.5"/>
<feColorMatrix type="matrix" values="0 0 0 0 0 0 0 0 0 0 0 0 0 0 0 0 0 0 0.15 0"/>
<feBlend mode="normal" in2="BackgroundImageFix" result="effect1_dropShadow_133_670"/>
<feBlend mode="normal" in="SourceGraphic" in2="effect1_dropShadow_133_670" result="shape"/>
</filter>
<linearGradient id="paint0_linear_133_670" x1="352.336" y1="215.891" x2="69.9625" y2="328.929" gradientUnits="userSpaceOnUse">
<stop stop-color="#FF2D2D"/>
<stop offset="1" stop-color="#1758FF"/>
</linearGradient>
<linearGradient id="paint1_linear_133_670" x1="295.649" y1="229.428" x2="129.059" y2="292.645" gradientUnits="userSpaceOnUse">
<stop stop-color="#FF2D2D"/>
<stop offset="1" stop-color="#1758FF"/>
</linearGradient>
<linearGradient id="paint2_linear_133_670" x1="5.90056" y1="120.25" x2="226.005" y2="-32.8727" gradientUnits="userSpaceOnUse">
<stop stop-color="#FF3842"/>
<stop offset="1" stop-color="#3232FF"/>
</linearGradient>
<radialGradient id="paint3_radial_133_670" cx="0" cy="0" r="1" gradientUnits="userSpaceOnUse" gradientTransform="translate(-9.72783 237.09) rotate(-9.59448) scale(360.409 3545.39)">
<stop stop-color="#FF3945"/>
<stop offset="1" stop-color="#3737F9"/>
</radialGradient>
</defs>
</svg>
