<svg width="413" height="397" viewBox="0 0 413 397" fill="none" xmlns="http://www.w3.org/2000/svg">
<g filter="url(#filter0_f_4_44913)">
<ellipse cx="206.612" cy="266.316" rx="106.394" ry="30.5968" fill="url(#paint0_linear_4_44913)"/>
</g>
<path d="M292.54 266.316C292.54 278.532 283.648 289.798 268.814 298.068C254.014 306.32 233.499 311.455 210.786 311.455C188.072 311.455 167.558 306.32 152.757 298.068C137.924 289.798 129.031 278.532 129.031 266.316C129.031 254.101 137.924 242.835 152.757 234.565C167.558 226.313 188.072 221.178 210.786 221.178C233.499 221.178 254.014 226.313 268.814 234.565C283.648 242.835 292.54 254.101 292.54 266.316Z" stroke="black" stroke-opacity="0.1" stroke-width="1.99242"/>
<path d="M271.677 264.12C271.677 273.026 265.126 281.302 254.065 287.409C243.039 293.496 227.738 297.292 210.784 297.292C193.829 297.292 178.529 293.496 167.503 287.409C156.442 281.302 149.891 273.026 149.891 264.12C149.891 255.213 156.442 246.938 167.503 240.831C178.529 234.743 193.829 230.947 210.784 230.947C227.738 230.947 243.039 234.743 254.065 240.831C265.126 246.938 271.677 255.213 271.677 264.12Z" stroke="black" stroke-opacity="0.1" stroke-width="1.99242"/>
<g filter="url(#filter1_f_4_44913)">
<ellipse cx="210.786" cy="271.184" rx="61.8891" ry="18.7753" fill="url(#paint1_linear_4_44913)"/>
</g>
<g clip-path="url(#clip0_4_44913)">
<g filter="url(#filter2_d_4_44913)">
<path d="M323.07 1.73495C320.095 0.00286961 316.43 2.07888 313.448 3.80012L89.0609 133.349C84.1268 136.961 80.5508 143.157 80.5645 150.303L81.1545 330.636C81.162 331.068 82.0614 332.858 83.5047 333.697L93.8027 339.679C92.3594 338.845 91.4601 337.05 91.4525 336.617L90.8625 156.29C90.8481 149.139 94.4242 142.943 99.3583 139.337L323.747 9.78668C326.727 8.06591 330.389 5.99282 333.367 7.71671L323.07 1.73495Z" fill="url(#paint2_linear_4_44913)"/>
</g>
<path d="M328.266 7.17605C332.087 5.73065 335.686 7.78376 335.7 14.9309L336.29 195.263C336.305 198.258 332.729 204.454 328.352 206.981L99.4448 339.141C95.0675 341.668 91.4679 339.615 91.4534 336.621L90.8633 156.288C90.8491 149.141 94.4253 142.945 99.3594 139.336L328.266 7.17605Z" fill="#202134"/>
<path d="M325.048 52.2969L102.658 180.697L102.665 324.305L325.055 195.911L325.048 52.2969Z" fill="url(#paint3_linear_4_44913)"/>
<path d="M150.789 208.981C148.686 210.196 146.995 213.125 147.002 215.502L147.078 242.323C147.085 244.738 148.786 245.671 150.89 244.456L291.98 162.998C294.083 161.784 295.774 158.893 295.767 156.477L295.691 129.657C295.684 127.279 293.982 126.309 291.879 127.523L150.789 208.981Z" fill="#202134"/>
<g filter="url(#filter3_d_4_44913)">
<path d="M272.439 150.192L272.687 154.536L269.459 153.942L268.279 156.93L271.846 156.859L268.293 160.942L269.487 162.595L272.736 158.18L272.475 162.863L274.848 161.493L274.53 157.107L277.829 157.742L279.008 154.755L275.477 154.762L279.001 150.743L277.807 149.083L274.558 153.462L274.813 148.822L272.439 150.192Z" fill="url(#paint4_linear_4_44913)"/>
</g>
<g filter="url(#filter4_d_4_44913)">
<path d="M257.516 158.809L257.763 163.159L254.535 162.559L253.355 165.547L256.922 165.476L253.363 169.559L254.556 171.211L257.805 166.797L257.551 171.48L259.924 170.11L259.606 165.723L262.905 166.359L264.084 163.371L260.553 163.378L264.07 159.36L262.877 157.707L259.628 162.079L259.889 157.438L257.516 158.809Z" fill="url(#paint5_linear_4_44913)"/>
</g>
<g filter="url(#filter5_d_4_44913)">
<path d="M242.584 167.426L242.838 171.777L239.575 171.197L238.424 174.164L241.991 174.093L238.438 178.176L239.596 179.85L242.881 175.421L242.619 180.097L244.964 178.748L244.682 174.341L247.973 174.976L249.16 171.989L245.621 172.003L249.146 167.977L247.952 166.324L244.703 170.696L244.929 166.077L242.584 167.426Z" fill="url(#paint6_linear_4_44913)"/>
</g>
<g filter="url(#filter6_d_4_44913)">
<path d="M227.66 176.043L227.907 180.393L224.644 179.814L223.5 182.781L227.067 182.71L223.514 186.793L224.672 188.467L227.957 184.038L227.695 188.714L230.04 187.365L229.751 182.957L233.049 183.593L234.229 180.605L230.697 180.619L234.222 176.593L233.028 174.941L229.779 179.313L229.998 174.693L227.66 176.043Z" fill="url(#paint7_linear_4_44913)"/>
</g>
<g filter="url(#filter7_d_4_44913)">
<path d="M212.735 184.667L212.982 189.011L209.719 188.431L208.539 191.419L212.106 191.349L208.553 195.431L209.747 197.084L213.024 192.655L212.77 197.331L215.108 195.982L214.825 191.575L218.124 192.21L219.268 189.244L215.736 189.258L219.261 185.232L218.095 183.558L214.846 187.93L215.072 183.311L212.735 184.667Z" fill="url(#paint8_linear_4_44913)"/>
</g>
<g filter="url(#filter8_d_4_44913)">
<path d="M197.805 193.284L198.059 197.627L194.796 197.048L193.645 200.015L197.183 199.965L193.659 204.034L194.817 205.708L198.101 201.272L197.847 205.948L200.185 204.599L199.902 200.198L203.201 200.827L204.345 197.861L200.814 197.875L204.331 193.849L203.173 192.175L199.924 196.554L200.15 191.927L197.805 193.284Z" fill="url(#paint9_linear_4_44913)"/>
</g>
<g filter="url(#filter9_d_4_44913)">
<path d="M182.879 201.901L183.133 206.245L179.863 205.666L178.684 208.653L182.25 208.59L178.698 212.672L179.891 214.325L183.176 209.889L182.914 214.565L185.259 213.216L184.97 208.816L188.268 209.444L189.42 206.478L185.881 206.492L189.405 202.466L188.247 200.792L184.998 205.171L185.224 200.545L182.879 201.901Z" fill="url(#paint10_linear_4_44913)"/>
</g>
<g filter="url(#filter10_d_4_44913)">
<path d="M167.955 210.518L168.202 214.862L164.939 214.29L163.76 217.27L167.327 217.207L163.774 221.289L164.968 222.942L168.245 218.506L167.991 223.182L170.328 221.833L170.046 217.433L173.344 218.061L174.489 215.095L170.957 215.109L174.482 211.083L173.316 209.409L170.067 213.788L170.293 209.169L167.955 210.518Z" fill="url(#paint11_linear_4_44913)"/>
</g>
<path d="M335.701 12.8119C335.687 7.78359 332.087 5.73154 328.266 7.17426L99.3597 139.335C94.4255 142.945 90.8491 149.139 90.8633 154.168L90.9349 174.985L335.772 33.6261L335.701 12.8119Z" fill="#202134"/>
<g filter="url(#filter11_d_4_44913)">
<path d="M302.999 31.5944C305.698 30.0363 307.916 31.2574 307.925 34.4024C307.934 37.5031 305.73 41.2776 303.031 42.8357C300.332 44.3937 298.151 43.151 298.143 40.0503C298.134 36.9053 300.301 33.1524 302.999 31.5944Z" fill="url(#paint12_linear_4_44913)"/>
</g>
<g filter="url(#filter12_d_4_44913)">
<path d="M287.781 40.3798C290.479 38.8217 292.698 40.0428 292.707 43.1878C292.715 46.2885 290.511 50.063 287.813 51.6211C285.114 53.1791 282.896 51.958 282.887 48.8573C282.878 45.7123 285.082 41.9378 287.781 40.3798Z" fill="url(#paint13_linear_4_44913)"/>
</g>
<g filter="url(#filter13_d_4_44913)">
<path d="M318.216 22.8086C320.914 21.2505 323.133 22.4716 323.142 25.6167C323.151 28.7173 320.946 32.4918 318.248 34.0499C315.549 35.6079 313.368 34.3652 313.359 31.2645C313.351 28.1195 315.517 24.3666 318.216 22.8086Z" fill="url(#paint14_linear_4_44913)"/>
</g>
</g>
<defs>
<filter id="filter0_f_4_44913" x="0.597893" y="136.099" width="412.029" height="260.435" filterUnits="userSpaceOnUse" color-interpolation-filters="sRGB">
<feFlood flood-opacity="0" result="BackgroundImageFix"/>
<feBlend mode="normal" in="SourceGraphic" in2="BackgroundImageFix" result="shape"/>
<feGaussianBlur stdDeviation="49.8104" result="effect1_foregroundBlur_4_44913"/>
</filter>
<filter id="filter1_f_4_44913" x="109.048" y="212.56" width="203.474" height="117.247" filterUnits="userSpaceOnUse" color-interpolation-filters="sRGB">
<feFlood flood-opacity="0" result="BackgroundImageFix"/>
<feBlend mode="normal" in="SourceGraphic" in2="BackgroundImageFix" result="shape"/>
<feGaussianBlur stdDeviation="19.9242" result="effect1_foregroundBlur_4_44913"/>
</filter>
<filter id="filter2_d_4_44913" x="57.6027" y="-8.10195" width="298.726" height="384.52" filterUnits="userSpaceOnUse" color-interpolation-filters="sRGB">
<feFlood flood-opacity="0" result="BackgroundImageFix"/>
<feColorMatrix in="SourceAlpha" type="matrix" values="0 0 0 0 0 0 0 0 0 0 0 0 0 0 0 0 0 0 127 0" result="hardAlpha"/>
<feOffset dy="13.7771"/>
<feGaussianBlur stdDeviation="11.4809"/>
<feColorMatrix type="matrix" values="0 0 0 0 0 0 0 0 0 0 0 0 0 0 0 0 0 0 0.15 0"/>
<feBlend mode="normal" in2="BackgroundImageFix" result="effect1_dropShadow_4_44913"/>
<feBlend mode="normal" in="SourceGraphic" in2="effect1_dropShadow_4_44913" result="shape"/>
</filter>
<filter id="filter3_d_4_44913" x="245.318" y="139.637" width="56.6521" height="59.9651" filterUnits="userSpaceOnUse" color-interpolation-filters="sRGB">
<feFlood flood-opacity="0" result="BackgroundImageFix"/>
<feColorMatrix in="SourceAlpha" type="matrix" values="0 0 0 0 0 0 0 0 0 0 0 0 0 0 0 0 0 0 127 0" result="hardAlpha"/>
<feOffset dy="13.7771"/>
<feGaussianBlur stdDeviation="11.4809"/>
<feColorMatrix type="matrix" values="0 0 0 0 0 0 0 0 0 0 0 0 0 0 0 0 0 0 0.15 0"/>
<feBlend mode="normal" in2="BackgroundImageFix" result="effect1_dropShadow_4_44913"/>
<feBlend mode="normal" in="SourceGraphic" in2="effect1_dropShadow_4_44913" result="shape"/>
</filter>
<filter id="filter4_d_4_44913" x="230.394" y="148.254" width="56.6521" height="59.9651" filterUnits="userSpaceOnUse" color-interpolation-filters="sRGB">
<feFlood flood-opacity="0" result="BackgroundImageFix"/>
<feColorMatrix in="SourceAlpha" type="matrix" values="0 0 0 0 0 0 0 0 0 0 0 0 0 0 0 0 0 0 127 0" result="hardAlpha"/>
<feOffset dy="13.7771"/>
<feGaussianBlur stdDeviation="11.4809"/>
<feColorMatrix type="matrix" values="0 0 0 0 0 0 0 0 0 0 0 0 0 0 0 0 0 0 0.15 0"/>
<feBlend mode="normal" in2="BackgroundImageFix" result="effect1_dropShadow_4_44913"/>
<feBlend mode="normal" in="SourceGraphic" in2="effect1_dropShadow_4_44913" result="shape"/>
</filter>
<filter id="filter5_d_4_44913" x="215.462" y="156.892" width="56.6599" height="59.9439" filterUnits="userSpaceOnUse" color-interpolation-filters="sRGB">
<feFlood flood-opacity="0" result="BackgroundImageFix"/>
<feColorMatrix in="SourceAlpha" type="matrix" values="0 0 0 0 0 0 0 0 0 0 0 0 0 0 0 0 0 0 127 0" result="hardAlpha"/>
<feOffset dy="13.7771"/>
<feGaussianBlur stdDeviation="11.4809"/>
<feColorMatrix type="matrix" values="0 0 0 0 0 0 0 0 0 0 0 0 0 0 0 0 0 0 0.15 0"/>
<feBlend mode="normal" in2="BackgroundImageFix" result="effect1_dropShadow_4_44913"/>
<feBlend mode="normal" in="SourceGraphic" in2="effect1_dropShadow_4_44913" result="shape"/>
</filter>
<filter id="filter6_d_4_44913" x="200.538" y="165.509" width="56.6521" height="59.9439" filterUnits="userSpaceOnUse" color-interpolation-filters="sRGB">
<feFlood flood-opacity="0" result="BackgroundImageFix"/>
<feColorMatrix in="SourceAlpha" type="matrix" values="0 0 0 0 0 0 0 0 0 0 0 0 0 0 0 0 0 0 127 0" result="hardAlpha"/>
<feOffset dy="13.7771"/>
<feGaussianBlur stdDeviation="11.4809"/>
<feColorMatrix type="matrix" values="0 0 0 0 0 0 0 0 0 0 0 0 0 0 0 0 0 0 0.15 0"/>
<feBlend mode="normal" in2="BackgroundImageFix" result="effect1_dropShadow_4_44913"/>
<feBlend mode="normal" in="SourceGraphic" in2="effect1_dropShadow_4_44913" result="shape"/>
</filter>
<filter id="filter7_d_4_44913" x="185.577" y="174.126" width="56.6521" height="59.9439" filterUnits="userSpaceOnUse" color-interpolation-filters="sRGB">
<feFlood flood-opacity="0" result="BackgroundImageFix"/>
<feColorMatrix in="SourceAlpha" type="matrix" values="0 0 0 0 0 0 0 0 0 0 0 0 0 0 0 0 0 0 127 0" result="hardAlpha"/>
<feOffset dy="13.7771"/>
<feGaussianBlur stdDeviation="11.4809"/>
<feColorMatrix type="matrix" values="0 0 0 0 0 0 0 0 0 0 0 0 0 0 0 0 0 0 0.15 0"/>
<feBlend mode="normal" in2="BackgroundImageFix" result="effect1_dropShadow_4_44913"/>
<feBlend mode="normal" in="SourceGraphic" in2="effect1_dropShadow_4_44913" result="shape"/>
</filter>
<filter id="filter8_d_4_44913" x="170.683" y="182.743" width="56.6247" height="59.9438" filterUnits="userSpaceOnUse" color-interpolation-filters="sRGB">
<feFlood flood-opacity="0" result="BackgroundImageFix"/>
<feColorMatrix in="SourceAlpha" type="matrix" values="0 0 0 0 0 0 0 0 0 0 0 0 0 0 0 0 0 0 127 0" result="hardAlpha"/>
<feOffset dy="13.7771"/>
<feGaussianBlur stdDeviation="11.4809"/>
<feColorMatrix type="matrix" values="0 0 0 0 0 0 0 0 0 0 0 0 0 0 0 0 0 0 0.15 0"/>
<feBlend mode="normal" in2="BackgroundImageFix" result="effect1_dropShadow_4_44913"/>
<feBlend mode="normal" in="SourceGraphic" in2="effect1_dropShadow_4_44913" result="shape"/>
</filter>
<filter id="filter9_d_4_44913" x="155.722" y="191.36" width="56.6599" height="59.9439" filterUnits="userSpaceOnUse" color-interpolation-filters="sRGB">
<feFlood flood-opacity="0" result="BackgroundImageFix"/>
<feColorMatrix in="SourceAlpha" type="matrix" values="0 0 0 0 0 0 0 0 0 0 0 0 0 0 0 0 0 0 127 0" result="hardAlpha"/>
<feOffset dy="13.7771"/>
<feGaussianBlur stdDeviation="11.4809"/>
<feColorMatrix type="matrix" values="0 0 0 0 0 0 0 0 0 0 0 0 0 0 0 0 0 0 0.15 0"/>
<feBlend mode="normal" in2="BackgroundImageFix" result="effect1_dropShadow_4_44913"/>
<feBlend mode="normal" in="SourceGraphic" in2="effect1_dropShadow_4_44913" result="shape"/>
</filter>
<filter id="filter10_d_4_44913" x="140.798" y="199.984" width="56.6521" height="59.9368" filterUnits="userSpaceOnUse" color-interpolation-filters="sRGB">
<feFlood flood-opacity="0" result="BackgroundImageFix"/>
<feColorMatrix in="SourceAlpha" type="matrix" values="0 0 0 0 0 0 0 0 0 0 0 0 0 0 0 0 0 0 127 0" result="hardAlpha"/>
<feOffset dy="13.7771"/>
<feGaussianBlur stdDeviation="11.4809"/>
<feColorMatrix type="matrix" values="0 0 0 0 0 0 0 0 0 0 0 0 0 0 0 0 0 0 0.15 0"/>
<feBlend mode="normal" in2="BackgroundImageFix" result="effect1_dropShadow_4_44913"/>
<feBlend mode="normal" in="SourceGraphic" in2="effect1_dropShadow_4_44913" result="shape"/>
</filter>
<filter id="filter11_d_4_44913" x="275.181" y="21.7344" width="55.7068" height="58.5121" filterUnits="userSpaceOnUse" color-interpolation-filters="sRGB">
<feFlood flood-opacity="0" result="BackgroundImageFix"/>
<feColorMatrix in="SourceAlpha" type="matrix" values="0 0 0 0 0 0 0 0 0 0 0 0 0 0 0 0 0 0 127 0" result="hardAlpha"/>
<feOffset dy="13.7771"/>
<feGaussianBlur stdDeviation="11.4809"/>
<feColorMatrix type="matrix" values="0 0 0 0 0 0 0 0 0 0 0 0 0 0 0 0 0 0 0.15 0"/>
<feBlend mode="normal" in2="BackgroundImageFix" result="effect1_dropShadow_4_44913"/>
<feBlend mode="normal" in="SourceGraphic" in2="effect1_dropShadow_4_44913" result="shape"/>
</filter>
<filter id="filter12_d_4_44913" x="259.925" y="30.5198" width="55.7439" height="58.5166" filterUnits="userSpaceOnUse" color-interpolation-filters="sRGB">
<feFlood flood-opacity="0" result="BackgroundImageFix"/>
<feColorMatrix in="SourceAlpha" type="matrix" values="0 0 0 0 0 0 0 0 0 0 0 0 0 0 0 0 0 0 127 0" result="hardAlpha"/>
<feOffset dy="13.7771"/>
<feGaussianBlur stdDeviation="11.4809"/>
<feColorMatrix type="matrix" values="0 0 0 0 0 0 0 0 0 0 0 0 0 0 0 0 0 0 0.15 0"/>
<feBlend mode="normal" in2="BackgroundImageFix" result="effect1_dropShadow_4_44913"/>
<feBlend mode="normal" in="SourceGraphic" in2="effect1_dropShadow_4_44913" result="shape"/>
</filter>
<filter id="filter13_d_4_44913" x="290.398" y="12.9486" width="55.7068" height="58.5121" filterUnits="userSpaceOnUse" color-interpolation-filters="sRGB">
<feFlood flood-opacity="0" result="BackgroundImageFix"/>
<feColorMatrix in="SourceAlpha" type="matrix" values="0 0 0 0 0 0 0 0 0 0 0 0 0 0 0 0 0 0 127 0" result="hardAlpha"/>
<feOffset dy="13.7771"/>
<feGaussianBlur stdDeviation="11.4809"/>
<feColorMatrix type="matrix" values="0 0 0 0 0 0 0 0 0 0 0 0 0 0 0 0 0 0 0.15 0"/>
<feBlend mode="normal" in2="BackgroundImageFix" result="effect1_dropShadow_4_44913"/>
<feBlend mode="normal" in="SourceGraphic" in2="effect1_dropShadow_4_44913" result="shape"/>
</filter>
<linearGradient id="paint0_linear_4_44913" x1="352.108" y1="243.879" x2="69.734" y2="356.917" gradientUnits="userSpaceOnUse">
<stop stop-color="#FF2D2D"/>
<stop offset="1" stop-color="#1758FF"/>
</linearGradient>
<linearGradient id="paint1_linear_4_44913" x1="295.42" y1="257.416" x2="128.831" y2="320.633" gradientUnits="userSpaceOnUse">
<stop stop-color="#FF2D2D"/>
<stop offset="1" stop-color="#1758FF"/>
</linearGradient>
<linearGradient id="paint2_linear_4_44913" x1="29.1195" y1="323.948" x2="418.52" y2="140.382" gradientUnits="userSpaceOnUse">
<stop stop-color="#FF3842"/>
<stop offset="1" stop-color="#3232FF"/>
</linearGradient>
<linearGradient id="paint3_linear_4_44913" x1="57.4009" y1="311.669" x2="387.981" y2="141" gradientUnits="userSpaceOnUse">
<stop stop-color="#FF3842"/>
<stop offset="1" stop-color="#3232FF"/>
</linearGradient>
<linearGradient id="paint4_linear_4_44913" x1="266.096" y1="162.211" x2="282.481" y2="154.306" gradientUnits="userSpaceOnUse">
<stop stop-color="#FF3842"/>
<stop offset="1" stop-color="#3232FF"/>
</linearGradient>
<linearGradient id="paint5_linear_4_44913" x1="251.172" y1="170.828" x2="267.557" y2="162.922" gradientUnits="userSpaceOnUse">
<stop stop-color="#FF3842"/>
<stop offset="1" stop-color="#3232FF"/>
</linearGradient>
<linearGradient id="paint6_linear_4_44913" x1="236.239" y1="179.446" x2="252.621" y2="171.525" gradientUnits="userSpaceOnUse">
<stop stop-color="#FF3842"/>
<stop offset="1" stop-color="#3232FF"/>
</linearGradient>
<linearGradient id="paint7_linear_4_44913" x1="221.317" y1="188.062" x2="237.692" y2="180.15" gradientUnits="userSpaceOnUse">
<stop stop-color="#FF3842"/>
<stop offset="1" stop-color="#3232FF"/>
</linearGradient>
<linearGradient id="paint8_linear_4_44913" x1="206.356" y1="196.68" x2="222.731" y2="188.767" gradientUnits="userSpaceOnUse">
<stop stop-color="#FF3842"/>
<stop offset="1" stop-color="#3232FF"/>
</linearGradient>
<linearGradient id="paint9_linear_4_44913" x1="191.467" y1="205.296" x2="207.815" y2="197.418" gradientUnits="userSpaceOnUse">
<stop stop-color="#FF3842"/>
<stop offset="1" stop-color="#3232FF"/>
</linearGradient>
<linearGradient id="paint10_linear_4_44913" x1="176.499" y1="213.914" x2="192.881" y2="205.993" gradientUnits="userSpaceOnUse">
<stop stop-color="#FF3842"/>
<stop offset="1" stop-color="#3232FF"/>
</linearGradient>
<linearGradient id="paint11_linear_4_44913" x1="161.576" y1="222.531" x2="177.949" y2="214.616" gradientUnits="userSpaceOnUse">
<stop stop-color="#FF3842"/>
<stop offset="1" stop-color="#3232FF"/>
</linearGradient>
<linearGradient id="paint12_linear_4_44913" x1="296.152" y1="42.9228" x2="310.995" y2="35.6393" gradientUnits="userSpaceOnUse">
<stop stop-color="#FF3842"/>
<stop offset="1" stop-color="#3232FF"/>
</linearGradient>
<linearGradient id="paint13_linear_4_44913" x1="280.888" y1="51.7125" x2="295.768" y2="44.3858" gradientUnits="userSpaceOnUse">
<stop stop-color="#FF3842"/>
<stop offset="1" stop-color="#3232FF"/>
</linearGradient>
<linearGradient id="paint14_linear_4_44913" x1="311.369" y1="34.137" x2="326.212" y2="26.8537" gradientUnits="userSpaceOnUse">
<stop stop-color="#FF3842"/>
<stop offset="1" stop-color="#3232FF"/>
</linearGradient>
<clipPath id="clip0_4_44913">
<rect width="255.335" height="338.916" fill="white" transform="translate(80.8262 0.964478)"/>
</clipPath>
</defs>
</svg>
