<svg width="434" height="427" viewBox="0 0 434 427" fill="none" xmlns="http://www.w3.org/2000/svg">
<g filter="url(#filter0_f_133_748)">
<ellipse cx="206.612" cy="295.833" rx="106.394" ry="30.5968" fill="url(#paint0_linear_133_748)"/>
</g>
<path d="M292.54 295.833C292.54 308.048 283.648 319.315 268.814 327.585C254.014 335.836 233.499 340.971 210.786 340.971C188.072 340.971 167.558 335.836 152.757 327.585C137.924 319.315 129.031 308.048 129.031 295.833C129.031 283.618 137.924 272.351 152.757 264.081C167.558 255.83 188.072 250.695 210.786 250.695C233.499 250.695 254.014 255.83 268.814 264.081C283.648 272.351 292.54 283.618 292.54 295.833Z" stroke="black" stroke-opacity="0.1" stroke-width="1.99242"/>
<path d="M271.677 293.636C271.677 302.542 265.126 310.818 254.065 316.925C243.039 323.013 227.738 326.809 210.784 326.809C193.829 326.809 178.529 323.013 167.503 316.925C156.442 310.818 149.891 302.542 149.891 293.636C149.891 284.73 156.442 276.454 167.503 270.347C178.529 264.26 193.829 260.463 210.784 260.463C227.738 260.463 243.039 264.26 254.065 270.347C265.126 276.454 271.677 284.73 271.677 293.636Z" stroke="black" stroke-opacity="0.1" stroke-width="1.99242"/>
<g filter="url(#filter1_f_133_748)">
<ellipse cx="210.786" cy="300.701" rx="61.8891" ry="18.7753" fill="url(#paint1_linear_133_748)"/>
</g>
<path d="M75.5684 323.366V122.166L83.747 109.735L253.213 11.2614L271.533 21.0759V46.2668V165.351V230.127L267.935 247.466L122.678 333.181L92.253 345.94L79.1669 338.415L75.5684 323.366Z" fill="#212235"/>
<path d="M199.117 307.108L338.707 226.57L406.383 265.773L406.388 281.346L266.881 361.971L199.199 322.632L199.117 307.195" fill="#212235"/>
<path d="M406.383 265.778V281.335L306.395 339.108L317.173 239.016L338.734 226.592L406.383 265.778Z" fill="#212235"/>
<path d="M323.988 301.151C313.961 306.944 295.422 305.607 282.676 298.21C269.975 290.811 267.746 280.071 277.773 274.277C287.845 268.439 306.384 269.776 319.13 277.219C331.876 284.572 334.06 295.312 323.988 301.151ZM343.819 269.687C340.522 271.604 335.263 271.604 332.01 269.732C328.756 267.816 328.756 264.786 332.054 262.868C335.307 260.997 340.611 260.997 343.864 262.913C347.117 264.786 347.117 267.816 343.819 269.687ZM271.623 311.445C268.326 313.272 263.067 313.272 259.858 311.445C256.56 309.484 256.56 306.409 259.858 304.582C263.156 302.71 268.415 302.71 271.713 304.582C274.921 306.409 274.921 309.484 271.623 311.445Z" fill="url(#paint2_linear_133_748)"/>
<path d="M315.921 285.329C310.897 282.398 305.501 283.734 300.011 285.731L299.922 285.776L292.926 281.72C295.065 280.784 297.516 280.205 300.323 279.937L299.343 276.55C295.243 276.952 291.767 277.932 288.915 279.402L286.998 278.333L284.636 279.714L286.464 280.739C282.171 283.602 281.449 287.194 285.884 289.741C290.903 292.609 295.835 291.406 301.393 289.385L308.657 293.574C306.028 294.644 302.864 295.223 298.986 295.401L299.521 298.833C304.602 298.61 308.969 297.674 312.713 295.892L315.386 297.451L317.748 296.07L315.119 294.555C319.622 291.523 320.435 288.001 315.921 285.329ZM289.94 286.89C288.439 285.972 288.255 284.57 290.43 283.057L296.847 286.756C294.175 287.557 292.147 288.051 289.94 286.89ZM311.108 292.237L304.423 288.36C306.969 287.633 309.43 286.857 311.732 288.138C313.278 289.064 313.518 290.457 311.108 292.237Z" fill="#212235"/>
<path d="M282.331 326.521C282.094 326.521 281.856 326.459 281.643 326.334C275.576 322.804 264.797 322.804 258.731 326.334C258.303 326.585 257.78 326.582 257.353 326.337L235.346 313.531C234.924 313.283 234.665 312.829 234.668 312.34C234.671 311.849 234.935 311.4 235.362 311.157C238.19 309.558 239.752 307.494 239.754 305.345C239.76 303.203 238.225 301.144 235.429 299.55C235.004 299.307 234.743 298.856 234.74 298.365C234.737 297.876 234.999 297.425 235.424 297.179L322.404 246.67C322.831 246.419 323.354 246.419 323.782 246.67C329.845 250.197 340.555 250.207 346.704 246.664C347.132 246.424 347.652 246.427 348.069 246.667L370.075 259.401C370.5 259.644 370.759 260.097 370.759 260.583C370.759 261.072 370.497 261.523 370.075 261.769C367.216 263.414 365.643 265.504 365.643 267.654C365.643 269.776 367.192 271.84 370.003 273.458C370.425 273.704 370.684 274.153 370.687 274.639C370.69 275.127 370.431 275.579 370.009 275.824L325.125 302.044L283.015 326.337C282.804 326.459 282.566 326.521 282.331 326.521ZM270.188 320.86C274.695 320.86 278.967 321.824 282.318 323.584L323.752 299.679L366.749 274.561C364.257 272.609 362.909 270.212 362.909 267.654C362.909 265.072 364.279 262.645 366.81 260.669L347.366 249.417C340.606 252.942 329.808 252.936 323.112 249.422L238.689 298.448C241.162 300.384 242.494 302.779 242.489 305.35C242.483 307.929 241.127 310.332 238.622 312.273L258.061 323.581C261.409 321.824 265.681 320.86 270.188 320.86Z" fill="url(#paint3_linear_133_748)"/>
<path d="M271.876 237.367C271.945 242.093 268.629 247.684 264.488 250.165L106.9 341.159C106.848 341.159 106.848 341.159 106.848 341.159V341.108L116.733 317.488L125.265 296.937L134.63 274.358L164.077 203.706L164.441 202.822L171.673 185.445L210.172 92.9416L220.057 69.2179L271.303 41.2277H271.355L271.876 237.367Z" fill="#202134"/>
<g filter="url(#filter2_d_133_748)">
<path d="M256.271 136.442L106.909 221.895L106.844 188.642L128.979 189.512L151.241 168.508L176.658 169.295L199.504 136.305L226.173 136.239L255.79 103.506L256.271 136.442Z" fill="url(#paint4_linear_133_748)"/>
</g>
<path d="M263.835 22.109C267.938 19.7401 271.27 21.6071 271.284 26.3219L271.321 39.6324L90.7272 143.898L90.6895 130.588C90.6761 125.873 93.9591 120.187 98.0622 117.818L263.835 22.109Z" fill="#202134"/>
<path d="M257.885 41.9489C260.314 40.5721 262.217 37.2121 262.217 34.4589C262.177 31.7873 260.274 30.6131 257.845 32.0299C255.456 33.3657 253.513 36.8073 253.553 39.4789C253.553 42.1916 255.497 43.3252 257.885 41.9489Z" fill="url(#paint5_linear_133_748)"/>
<path d="M242.338 50.9363C244.767 49.5189 246.67 46.1594 246.67 43.4463C246.67 40.7747 244.726 39.5599 242.297 40.9773C239.909 42.3536 238.006 45.7542 238.006 48.4263C238.006 51.1794 239.949 52.3126 242.338 50.9363Z" fill="url(#paint6_linear_133_748)"/>
<path d="M231.125 52.3937C231.125 55.1469 229.222 58.5069 226.793 59.8832C224.404 61.26 222.461 60.1264 222.461 57.4137C222.461 54.7416 224.404 51.3411 226.753 49.9648C229.222 48.5474 231.125 49.7216 231.125 52.3937Z" fill="url(#paint7_linear_133_748)"/>
<g filter="url(#filter3_d_133_748)">
<path d="M130.561 260.642C133.889 258.722 138.049 261.116 138.06 264.958L138.159 299.613C138.164 301.404 137.21 303.061 135.659 303.957L127.788 308.501C124.46 310.422 120.299 308.028 120.288 304.185L120.19 269.528C120.185 267.736 121.139 266.079 122.691 265.183L130.561 260.642Z" fill="url(#paint8_linear_133_748)"/>
</g>
<g filter="url(#filter4_d_133_748)">
<path d="M169.138 227.415C172.466 225.493 176.628 227.888 176.639 231.731L176.77 277.318C176.775 279.11 175.821 280.767 174.27 281.663L166.4 286.206C163.072 288.127 158.911 285.733 158.9 281.89L158.774 236.301C158.769 234.51 159.722 232.853 161.273 231.958L169.138 227.415Z" fill="url(#paint9_linear_133_748)"/>
</g>
<g filter="url(#filter5_d_133_748)">
<path d="M207.725 194.24C211.053 192.32 215.213 194.715 215.224 198.557L215.383 255.029C215.388 256.82 214.434 258.478 212.882 259.374L205.012 263.915C201.684 265.835 197.524 263.44 197.513 259.598L197.354 203.126C197.349 201.335 198.303 199.677 199.855 198.782L207.725 194.24Z" fill="url(#paint10_linear_133_748)"/>
</g>
<g filter="url(#filter6_d_133_748)">
<path d="M246.302 161.014C249.63 159.092 253.792 161.486 253.803 165.329L253.994 232.735C253.999 234.526 253.046 236.184 251.494 237.079L243.624 241.623C240.296 243.544 236.135 241.149 236.125 237.307L235.938 169.9C235.933 168.109 236.886 166.452 238.437 165.556L246.302 161.014Z" fill="url(#paint11_linear_133_748)"/>
</g>
<path d="M248.052 158.476L237.461 151.951C236.375 151.318 235.652 149.87 235.652 147.88L235.471 93.4207C235.471 89.3503 237.401 83.8169 241.894 82.2938C241.894 82.2938 337.062 28.1963 338.148 28.9207L347.411 34.7761L347.443 34.8097C349.017 35.229 350.017 36.7814 350.017 39.2114L350.19 93.7377C350.19 97.7551 347.435 102.692 343.819 104.815L292.851 134.145L285.906 138.162L264.096 175.987L263.981 150.847L252.042 157.792C250.546 158.65 249.155 158.848 248.052 158.476Z" fill="url(#paint12_linear_133_748)"/>
<g clip-path="url(#clip0_133_748)">
<mask id="mask0_133_748" style="mask-type:luminance" maskUnits="userSpaceOnUse" x="280" y="16" width="123" height="113">
<path d="M402.459 16.7093L280.197 87.3031L280.196 128.727L402.457 58.1329L402.459 16.7093Z" fill="white"/>
</mask>
<g mask="url(#mask0_133_748)">
<path d="M299.59 94.2071L302.387 86.6846L305.92 84.6446L301.56 95.6535L306.01 101.713L302.446 103.771L299.59 99.426L296.718 107.061L293.14 109.127L297.591 97.928L293.261 91.954L296.794 89.9139L299.59 94.2071Z" fill="white"/>
<path d="M283.173 107.338C283.174 95.867 291.293 81.8611 301.321 76.0709C302.509 75.3851 303.681 74.8458 304.809 74.4358C302.809 74.712 300.629 75.4885 298.344 76.808C288.316 82.6154 280.197 96.6041 280.196 108.092C280.196 118.203 286.495 122.988 294.854 120.022C288.014 120.992 283.173 116.209 283.173 107.338Z" fill="#8DC63F"/>
<path d="M303.756 75.4052C310.341 74.4793 315.032 79.0738 315.031 87.6341C315.031 98.7091 307.198 112.206 297.53 117.787C296.373 118.456 295.26 118.978 294.163 119.353C296.102 119.077 298.192 118.336 300.387 117.068C310.054 111.486 317.888 97.9898 317.888 86.9148C317.888 77.166 311.8 72.5522 303.756 75.4052Z" fill="#ED1A37"/>
</g>
</g>
<path d="M407.069 264.551L339.353 225.381C338.937 225.141 338.414 225.136 337.986 225.381L198.438 305.951C198.016 306.194 197.754 306.645 197.754 307.131C197.754 307.62 198.013 308.071 198.435 308.316L265.39 347.227V361.972C265.39 362.727 266.001 363.339 266.757 363.339C266.766 363.339 266.771 363.329 266.78 363.329C266.787 363.329 266.79 363.336 266.797 363.336C267.552 363.336 268.164 362.724 268.164 361.969V347.205L407.069 266.917C407.491 266.674 407.753 266.223 407.753 265.734C407.753 265.245 407.494 264.794 407.069 264.551ZM266.759 344.859L201.847 307.136L338.67 228.142L403.654 265.734L266.759 344.859ZM272.559 237.365L272.338 161.66C271.914 162.206 271.457 162.717 270.976 163.218L271.192 237.378C271.256 241.81 268.159 247.169 264.145 249.572L106.558 340.568L98.4273 345.284L98.1683 345.414C97.9894 345.508 97.8238 345.599 97.5568 345.692C95.8921 346.477 94.6784 346.318 93.6452 345.636C90.879 343.704 92.0085 358.858 91.431 144.283L270.62 40.8277L270.697 67.2955C271.139 67.1306 271.599 66.9911 272.062 66.8536L271.987 41.2289V39.6622C271.988 39.6489 272.006 39.6428 272.006 39.6295L271.969 26.3192C271.961 23.8574 271.032 22.0644 269.55 21.1319C269.505 21.0832 269.492 21.0137 269.432 20.979L269.157 20.8208L255.222 12.8113C253.62 11.8794 251.516 12.0583 249.246 13.3319L83.4668 109.03C78.9533 111.628 75.7376 117.86 75.7797 122.391C76.1289 251.972 75.993 201.535 76.3484 333.46C76.3484 335.968 77.2456 337.871 78.877 338.819C79.4342 339.135 94.4357 347.618 93.4906 347.083C95.0761 347.843 96.6505 347.63 98.0641 346.96C98.3258 346.872 98.5581 346.755 98.8011 346.627L264.84 250.752C269.24 248.114 272.631 242.232 272.559 237.365ZM270.639 39.2076L91.4267 142.676L91.3943 130.575C91.3542 126.425 94.3543 120.746 98.4059 118.41C98.977 118.08 262.412 23.727 264.175 22.7092C264.278 22.6498 264.377 22.6198 264.48 22.5664C267.711 20.8625 270.589 22.0209 270.602 26.3245L270.639 39.2076ZM84.1504 110.216L249.922 14.5201C251.738 13.4975 253.356 13.3079 254.536 13.9941L265.937 20.5465C265.385 20.662 264.245 21.0831 263.494 21.5157C262.907 21.8545 100.245 115.759 97.7117 117.222C95.301 118.606 93.2176 121.033 91.8215 123.76L78.2642 117.554C79.4911 114.526 81.6075 111.677 84.1504 110.216ZM79.5632 337.636C78.3723 336.945 77.7155 335.46 77.7155 333.458C77.7128 332.659 77.7102 331.928 77.7102 331.26C77.5249 305.687 77.9273 411.801 77.1468 122.383C77.1364 121.234 77.3497 120.02 77.7195 118.811L91.2271 124.993C90.5702 126.564 90.0038 128.882 90.0085 130.591C90.0819 156.612 90.4414 286.179 90.5853 338.042C90.5853 338.299 90.5879 338.542 90.5879 338.766C90.5879 338.779 90.5879 338.79 90.5879 338.801C90.6573 341.181 90.4816 339.827 90.7101 342.443C90.764 343.218 90.9501 344.152 90.9617 344.189L79.5632 337.636Z" fill="url(#paint13_linear_133_748)"/>
<path d="M247.036 91.4189L238.326 87.819C237.634 87.5252 236.825 87.8643 236.54 88.5586C236.251 89.2581 236.582 90.0565 237.279 90.3448L245.638 93.7999C244.721 95.7184 244.091 97.745 244.091 99.6447L244.272 154.098C244.272 156.512 245.18 158.426 246.761 159.35C246.977 159.476 247.215 159.537 247.45 159.537C247.917 159.537 248.376 159.294 248.63 158.859C249.012 158.207 248.793 157.372 248.138 156.99C247.442 156.581 247.006 155.473 247.006 154.093L246.825 99.6394C246.825 96.1015 249.423 91.5437 252.475 89.6987L344.283 36.7805C345.412 36.1503 346.365 35.9287 347.083 36.1023C347.823 36.2758 348.557 35.8353 348.739 35.1037C348.92 34.3721 348.475 33.6298 347.74 33.4482C346.314 33.0958 344.699 33.4135 342.929 34.4041L251.084 87.3437C249.529 88.2835 248.185 89.7694 247.036 91.4189Z" fill="black" fill-opacity="0.15"/>
<g filter="url(#filter7_d_133_748)">
<path d="M407.407 264.004L339.758 224.815C339.125 224.449 338.343 224.444 337.705 224.815L198.105 305.315C197.43 305.705 197.059 306.423 197.08 307.152C197.08 307.168 197.08 307.187 197.08 307.206L197.133 322.657C197.136 323.384 197.526 324.056 198.153 324.422L265.856 363.718C266.176 363.902 266.531 363.995 266.886 363.995C267.241 363.995 267.594 363.905 267.912 363.72L407.404 283.114C408.04 282.748 408.43 282.07 408.43 281.338V265.779C408.43 265.048 408.04 264.372 407.407 264.004ZM404.328 266.962V280.155L266.889 359.574L201.229 321.466L201.184 308.274L338.727 228.959L404.328 266.962ZM274.608 237.359L274.405 162.214L287.409 139.664L344.858 106.582C349.066 104.112 352.241 98.59 352.241 93.7332L352.067 39.2103C352.067 36.0649 350.687 33.758 348.356 32.9463L339.285 27.2136C338.949 26.9893 338.519 26.8612 338.113 26.8612C337.502 26.8612 335.759 26.8879 274.133 61.699L274.037 26.2951C274.037 21.0506 270.891 19.7719 270.456 19.2248C269.87 18.8395 257.042 11.4994 256.078 10.9449C253.48 9.65414 250.663 10.102 248.188 11.5456L82.0024 107.559C77.2921 110.451 73.7305 116.808 73.7305 122.396C74.0409 239.236 74.2994 332.572 74.3019 333.463C74.3019 336.502 75.2658 339.086 77.8637 340.568L91.6039 348.434C94.3341 350.221 97.2551 349.873 100.047 348.21C325.826 217.923 249.829 261.777 265.89 252.509C270.942 249.484 274.691 242.956 274.608 237.359ZM345.934 36.1984C346.198 36.4868 346.537 36.6924 346.916 36.7912C347.891 37.0502 347.966 38.7083 347.966 39.2156L348.139 93.7385C348.139 97.0788 345.686 101.34 342.797 103.036L284.877 136.388C284.568 136.569 284.309 136.828 284.13 137.138L266.112 168.386L266.032 150.838C266.026 149.262 264.313 148.283 262.951 149.073L251.018 156.013C250.169 156.501 249.555 156.605 249.128 156.728L238.493 150.179C238.1 149.949 237.702 149.151 237.702 147.872L237.521 93.4208C237.521 89.7948 239.283 85.3438 242.909 84.0782C278.458 63.8684 332.159 33.6458 337.774 31.1039L345.934 36.1984ZM263.119 247.796C172.077 300.328 129.111 325.049 97.4487 343.401C95.0145 344.618 95.3877 344.102 94.3061 343.69L94.3114 343.676L80.2748 335.591C80.1226 335.428 79.7702 334.9 79.7702 333.46C79.7702 332.524 79.2019 123.253 79.1988 122.388C79.1988 119.091 81.2148 114.681 85.1664 111.959L250.631 16.4506C250.74 16.4052 250.847 16.3544 250.951 16.2957C251.715 15.8658 252.401 15.6388 253.111 15.6228C253.301 15.6869 253.459 15.7483 253.499 15.7617C254.055 16.0824 267.253 23.7354 267.807 24.0015C268.13 24.5494 268.568 24.7504 268.568 26.3058L268.673 64.7856C260.514 69.4015 251.447 74.5447 241.238 80.3534C235.865 82.1718 233.42 88.401 233.42 93.4288L233.601 147.88C233.601 150.547 234.632 152.678 236.386 153.698L247.392 160.416C249.096 160.992 251.093 160.701 253.071 159.564L261.947 154.403L262.045 175.995C262.051 176.925 262.676 177.731 263.57 177.969C263.746 178.017 263.923 178.038 264.096 178.038C264.817 178.038 265.501 177.659 265.872 177.013L268.962 171.654L269.14 237.407C269.196 241.116 266.475 245.786 263.119 247.796Z" fill="url(#paint14_linear_133_748)"/>
</g>
<defs>
<filter id="filter0_f_133_748" x="0.597893" y="165.615" width="412.029" height="260.435" filterUnits="userSpaceOnUse" color-interpolation-filters="sRGB">
<feFlood flood-opacity="0" result="BackgroundImageFix"/>
<feBlend mode="normal" in="SourceGraphic" in2="BackgroundImageFix" result="shape"/>
<feGaussianBlur stdDeviation="49.8104" result="effect1_foregroundBlur_133_748"/>
</filter>
<filter id="filter1_f_133_748" x="109.048" y="242.077" width="203.474" height="117.247" filterUnits="userSpaceOnUse" color-interpolation-filters="sRGB">
<feFlood flood-opacity="0" result="BackgroundImageFix"/>
<feBlend mode="normal" in="SourceGraphic" in2="BackgroundImageFix" result="shape"/>
<feGaussianBlur stdDeviation="19.9242" result="effect1_foregroundBlur_133_748"/>
</filter>
<filter id="filter2_d_133_748" x="81.8438" y="93.5059" width="199.428" height="168.389" filterUnits="userSpaceOnUse" color-interpolation-filters="sRGB">
<feFlood flood-opacity="0" result="BackgroundImageFix"/>
<feColorMatrix in="SourceAlpha" type="matrix" values="0 0 0 0 0 0 0 0 0 0 0 0 0 0 0 0 0 0 127 0" result="hardAlpha"/>
<feOffset dy="15"/>
<feGaussianBlur stdDeviation="12.5"/>
<feColorMatrix type="matrix" values="0 0 0 0 0 0 0 0 0 0 0 0 0 0 0 0 0 0 0.15 0"/>
<feBlend mode="normal" in2="BackgroundImageFix" result="effect1_dropShadow_133_748"/>
<feBlend mode="normal" in="SourceGraphic" in2="effect1_dropShadow_133_748" result="shape"/>
</filter>
<filter id="filter3_d_133_748" x="95.1895" y="249.965" width="67.9688" height="99.2128" filterUnits="userSpaceOnUse" color-interpolation-filters="sRGB">
<feFlood flood-opacity="0" result="BackgroundImageFix"/>
<feColorMatrix in="SourceAlpha" type="matrix" values="0 0 0 0 0 0 0 0 0 0 0 0 0 0 0 0 0 0 127 0" result="hardAlpha"/>
<feOffset dy="15"/>
<feGaussianBlur stdDeviation="12.5"/>
<feColorMatrix type="matrix" values="0 0 0 0 0 0 0 0 0 0 0 0 0 0 0 0 0 0 0.15 0"/>
<feBlend mode="normal" in2="BackgroundImageFix" result="effect1_dropShadow_133_748"/>
<feBlend mode="normal" in="SourceGraphic" in2="effect1_dropShadow_133_748" result="shape"/>
</filter>
<filter id="filter4_d_133_748" x="133.773" y="216.738" width="67.9961" height="110.146" filterUnits="userSpaceOnUse" color-interpolation-filters="sRGB">
<feFlood flood-opacity="0" result="BackgroundImageFix"/>
<feColorMatrix in="SourceAlpha" type="matrix" values="0 0 0 0 0 0 0 0 0 0 0 0 0 0 0 0 0 0 127 0" result="hardAlpha"/>
<feOffset dy="15"/>
<feGaussianBlur stdDeviation="12.5"/>
<feColorMatrix type="matrix" values="0 0 0 0 0 0 0 0 0 0 0 0 0 0 0 0 0 0 0.15 0"/>
<feBlend mode="normal" in2="BackgroundImageFix" result="effect1_dropShadow_133_748"/>
<feBlend mode="normal" in="SourceGraphic" in2="effect1_dropShadow_133_748" result="shape"/>
</filter>
<filter id="filter5_d_133_748" x="172.354" y="183.564" width="68.0293" height="121.028" filterUnits="userSpaceOnUse" color-interpolation-filters="sRGB">
<feFlood flood-opacity="0" result="BackgroundImageFix"/>
<feColorMatrix in="SourceAlpha" type="matrix" values="0 0 0 0 0 0 0 0 0 0 0 0 0 0 0 0 0 0 127 0" result="hardAlpha"/>
<feOffset dy="15"/>
<feGaussianBlur stdDeviation="12.5"/>
<feColorMatrix type="matrix" values="0 0 0 0 0 0 0 0 0 0 0 0 0 0 0 0 0 0 0.15 0"/>
<feBlend mode="normal" in2="BackgroundImageFix" result="effect1_dropShadow_133_748"/>
<feBlend mode="normal" in="SourceGraphic" in2="effect1_dropShadow_133_748" result="shape"/>
</filter>
<filter id="filter6_d_133_748" x="210.938" y="150.336" width="68.0566" height="131.964" filterUnits="userSpaceOnUse" color-interpolation-filters="sRGB">
<feFlood flood-opacity="0" result="BackgroundImageFix"/>
<feColorMatrix in="SourceAlpha" type="matrix" values="0 0 0 0 0 0 0 0 0 0 0 0 0 0 0 0 0 0 127 0" result="hardAlpha"/>
<feOffset dy="15"/>
<feGaussianBlur stdDeviation="12.5"/>
<feColorMatrix type="matrix" values="0 0 0 0 0 0 0 0 0 0 0 0 0 0 0 0 0 0 0.15 0"/>
<feBlend mode="normal" in2="BackgroundImageFix" result="effect1_dropShadow_133_748"/>
<feBlend mode="normal" in="SourceGraphic" in2="effect1_dropShadow_133_748" result="shape"/>
</filter>
<filter id="filter7_d_133_748" x="48.7305" y="0.1828" width="384.699" height="403.813" filterUnits="userSpaceOnUse" color-interpolation-filters="sRGB">
<feFlood flood-opacity="0" result="BackgroundImageFix"/>
<feColorMatrix in="SourceAlpha" type="matrix" values="0 0 0 0 0 0 0 0 0 0 0 0 0 0 0 0 0 0 127 0" result="hardAlpha"/>
<feOffset dy="15"/>
<feGaussianBlur stdDeviation="12.5"/>
<feColorMatrix type="matrix" values="0 0 0 0 0 0 0 0 0 0 0 0 0 0 0 0 0 0 0.15 0"/>
<feBlend mode="normal" in2="BackgroundImageFix" result="effect1_dropShadow_133_748"/>
<feBlend mode="normal" in="SourceGraphic" in2="effect1_dropShadow_133_748" result="shape"/>
</filter>
<linearGradient id="paint0_linear_133_748" x1="352.108" y1="273.395" x2="69.734" y2="386.433" gradientUnits="userSpaceOnUse">
<stop stop-color="#FF2D2D"/>
<stop offset="1" stop-color="#1758FF"/>
</linearGradient>
<linearGradient id="paint1_linear_133_748" x1="295.42" y1="286.932" x2="128.831" y2="350.149" gradientUnits="userSpaceOnUse">
<stop stop-color="#FF2D2D"/>
<stop offset="1" stop-color="#1758FF"/>
</linearGradient>
<linearGradient id="paint2_linear_133_748" x1="239.291" y1="310.43" x2="315.529" y2="227.067" gradientUnits="userSpaceOnUse">
<stop stop-color="#FF3842"/>
<stop offset="1" stop-color="#3232FF"/>
</linearGradient>
<linearGradient id="paint3_linear_133_748" x1="206.974" y1="322.803" x2="325.993" y2="195.021" gradientUnits="userSpaceOnUse">
<stop stop-color="#FF3842"/>
<stop offset="1" stop-color="#3232FF"/>
</linearGradient>
<linearGradient id="paint4_linear_133_748" x1="76.4356" y1="216.395" x2="248.475" y2="79.2824" gradientUnits="userSpaceOnUse">
<stop stop-color="#FF3842"/>
<stop offset="1" stop-color="#3232FF"/>
</linearGradient>
<linearGradient id="paint5_linear_133_748" x1="251.79" y1="42.0196" x2="264.918" y2="35.5555" gradientUnits="userSpaceOnUse">
<stop stop-color="#FF3842"/>
<stop offset="1" stop-color="#3232FF"/>
</linearGradient>
<linearGradient id="paint6_linear_133_748" x1="236.243" y1="51.0046" x2="249.385" y2="44.5521" gradientUnits="userSpaceOnUse">
<stop stop-color="#FF3842"/>
<stop offset="1" stop-color="#3232FF"/>
</linearGradient>
<linearGradient id="paint7_linear_133_748" x1="220.698" y1="59.9542" x2="233.826" y2="53.4907" gradientUnits="userSpaceOnUse">
<stop stop-color="#FF3842"/>
<stop offset="1" stop-color="#3232FF"/>
</linearGradient>
<linearGradient id="paint8_linear_133_748" x1="116.522" y1="310.193" x2="149.066" y2="303.65" gradientUnits="userSpaceOnUse">
<stop stop-color="#FF3842"/>
<stop offset="1" stop-color="#3232FF"/>
</linearGradient>
<linearGradient id="paint9_linear_133_748" x1="155.1" y1="287.39" x2="188.073" y2="281.828" gradientUnits="userSpaceOnUse">
<stop stop-color="#FF3842"/>
<stop offset="1" stop-color="#3232FF"/>
</linearGradient>
<linearGradient id="paint10_linear_133_748" x1="193.673" y1="264.591" x2="226.942" y2="259.749" gradientUnits="userSpaceOnUse">
<stop stop-color="#FF3842"/>
<stop offset="1" stop-color="#3232FF"/>
</linearGradient>
<linearGradient id="paint11_linear_133_748" x1="232.252" y1="241.793" x2="265.729" y2="237.513" gradientUnits="userSpaceOnUse">
<stop stop-color="#FF3842"/>
<stop offset="1" stop-color="#3232FF"/>
</linearGradient>
<linearGradient id="paint12_linear_133_748" x1="212.126" y1="169.155" x2="385.936" y2="83.5479" gradientUnits="userSpaceOnUse">
<stop stop-color="#FF3842"/>
<stop offset="1" stop-color="#3232FF"/>
</linearGradient>
<linearGradient id="paint13_linear_133_748" x1="8.22329" y1="347.028" x2="468.981" y2="71.9486" gradientUnits="userSpaceOnUse">
<stop stop-color="#FF3842"/>
<stop offset="1" stop-color="#3232FF"/>
</linearGradient>
<linearGradient id="paint14_linear_133_748" x1="5.61978" y1="347.559" x2="470.033" y2="70.1527" gradientUnits="userSpaceOnUse">
<stop stop-color="#FF3842"/>
<stop offset="1" stop-color="#3232FF"/>
</linearGradient>
<clipPath id="clip0_133_748">
<rect width="43.184" height="41.5231" fill="white" transform="matrix(0.866007 -0.500033 -3.7683e-05 1 280.197 87.3031)"/>
</clipPath>
</defs>
</svg>
