<svg width="413" height="363" viewBox="0 0 413 363" fill="none" xmlns="http://www.w3.org/2000/svg">
<g filter="url(#filter0_f_133_793)">
<ellipse cx="206.839" cy="232.225" rx="106.394" ry="30.5968" fill="url(#paint0_linear_133_793)"/>
</g>
<path d="M292.767 232.225C292.767 244.44 283.874 255.707 269.041 263.976C254.24 272.228 233.726 277.363 211.012 277.363C188.299 277.363 167.784 272.228 152.984 263.976C138.15 255.707 129.258 244.44 129.258 232.225C129.258 220.009 138.15 208.743 152.984 200.473C167.784 192.221 188.299 187.087 211.012 187.087C233.726 187.087 254.24 192.221 269.041 200.473C283.874 208.743 292.767 220.009 292.767 232.225Z" stroke="black" stroke-opacity="0.1" stroke-width="1.99242"/>
<path d="M271.906 230.028C271.906 238.934 265.354 247.21 254.293 253.317C243.267 259.404 227.967 263.201 211.012 263.201C194.058 263.201 178.758 259.404 167.732 253.317C156.67 247.21 150.119 238.934 150.119 230.028C150.119 221.122 156.67 212.846 167.732 206.739C178.758 200.651 194.058 196.855 211.012 196.855C227.967 196.855 243.267 200.651 254.293 206.739C265.354 212.846 271.906 221.122 271.906 230.028Z" stroke="black" stroke-opacity="0.1" stroke-width="1.99242"/>
<g filter="url(#filter1_f_133_793)">
<ellipse cx="211.012" cy="237.092" rx="61.8891" ry="18.7753" fill="url(#paint1_linear_133_793)"/>
</g>
<path d="M319.641 301.711L328.959 296.23C330.705 295.222 331.874 293.026 331.839 289.799L332.28 144.382C332.294 138.084 327.814 130.324 322.309 127.112L105.979 2.26068C103.202 0.617406 100.672 0.455565 98.848 1.50868L89.5645 6.86853C91.3922 5.8133 93.9189 5.97726 96.6953 7.62053L313.029 132.469C318.534 135.682 323.015 143.442 323 149.74L322.599 295.235C322.594 298.383 321.469 300.656 319.641 301.711Z" fill="url(#paint2_linear_133_793)"/>
<path d="M312.512 300.957C318.065 304.163 322.567 301.6 322.585 295.218L322.997 149.751C323.015 143.433 318.543 135.688 312.99 132.482L96.7073 7.61123C91.1544 4.40531 86.6528 6.96886 86.6348 13.2875L86.2225 158.754C86.2044 165.136 90.6768 172.881 96.2296 176.087L312.512 300.957Z" fill="url(#paint3_linear_133_793)"/>
<path d="M86.3736 115.113L86.2622 155.647L322.962 292.058L323.076 251.515L86.3736 115.113Z" fill="#202134"/>
<g filter="url(#filter2_d_133_793)">
<path d="M277.736 141.437C292.047 149.745 303.603 169.884 303.553 186.423C303.502 202.963 286.408 213.747 272.08 205.438C257.753 197.13 246.142 174.569 246.193 158.036C246.243 141.503 263.435 133.135 277.736 141.437Z" fill="url(#paint4_linear_133_793)"/>
</g>
<path d="M271.813 177.027C272.485 177.415 273.157 177.824 273.829 178.216L273.896 186.521C273.315 186.184 272.791 185.906 272.267 185.602C270.365 184.474 268.487 183.382 266.697 181.413C265.514 180.118 264.799 178.709 264.775 177.142C264.752 175.574 265.471 174.922 266.663 175.009C268.323 175.121 270.053 176.006 271.813 177.037M272.085 165.886C272.646 166.224 273.214 166.562 273.785 166.9C273.785 169.498 273.822 171.938 273.842 174.374C273.275 174.074 272.71 173.769 272.163 173.445C270.78 172.666 269.496 171.721 268.34 170.63C267.129 169.549 266.381 168.038 266.254 166.414C266.18 165.001 266.784 164.207 267.997 164.305C269.304 164.373 270.685 165.076 272.095 165.897M271.162 145.299C285.466 153.604 297.029 173.739 296.978 190.279C296.928 206.819 285.294 213.482 270.99 205.173C256.686 196.864 245.123 176.723 245.163 160.19C245.204 143.657 256.851 136.997 271.162 145.299Z" fill="url(#paint5_linear_133_793)"/>
<path d="M269.066 184.788C268.601 184.486 268.134 184.148 267.617 183.819L267.543 176.3C268.149 176.693 268.751 177.069 269.352 177.46C270.915 178.474 272.456 179.585 273.945 181.326C275.01 182.568 275.644 183.932 275.671 185.36C275.698 186.787 275.052 187.271 274.008 187.14C272.426 186.945 270.758 185.862 269.066 184.793M268.995 173.8C268.492 173.473 267.986 173.123 267.474 172.763L267.415 166.001C267.923 166.331 268.425 166.645 268.922 166.967C270.183 167.786 271.407 168.668 272.583 170.052C273.68 171.324 274.233 172.714 274.183 173.921C274.134 175.216 273.519 175.768 272.373 175.458C271.355 175.175 270.22 174.617 268.993 173.797M272.406 159.752L269.534 157.884C269.543 159.651 269.586 161.84 269.593 163.433L267.286 161.934C267.254 160.326 267.237 158.155 267.202 156.37L264.356 154.521C264.367 156.315 264.411 158.569 264.417 160.158C262.454 158.854 260.562 157.627 258.605 156.328C258.629 157.588 258.629 158.74 258.651 159.963C259.065 160.232 259.434 160.469 259.789 160.742C260.156 160.981 260.524 161.219 260.87 161.474C261.875 162.214 262.408 163.225 262.432 164.396C262.461 169.214 262.512 174.096 262.57 178.941C262.592 180.023 262.205 180.177 261.321 179.604L259.408 178.361C259.235 179.613 259.07 180.794 258.898 182.04L264.73 185.92C264.763 187.673 264.784 189.884 264.819 191.72L267.692 193.588C267.677 191.764 267.635 189.602 267.624 187.889L269.929 189.474C269.961 191.227 269.983 193.344 270.018 195.129L272.885 196.999C272.883 195.172 272.831 192.993 272.827 191.332C272.926 191.367 273 191.415 273.072 191.432C274.45 192.078 275.84 192.826 277.156 193.309C278.711 193.89 279.902 193.65 280.622 192.611C281.343 191.573 281.57 189.768 281.283 187.36C281.052 185.566 280.342 183.835 279.096 182.19C278.482 181.426 277.87 180.708 277.263 180.043C277.332 180.033 277.386 180.003 277.432 180.011C280.463 180.132 280.082 174.315 277.812 170.938C276.893 169.568 275.873 168.408 274.813 167.431C274.046 166.728 273.282 166.089 272.492 165.427C272.461 163.79 272.442 161.555 272.406 159.743" fill="white"/>
<path fill-rule="evenodd" clip-rule="evenodd" d="M262.71 254.995C240.847 242.216 205.281 242.216 183.274 254.995C177.66 258.256 173.471 262.034 170.706 266.064L166.829 262.091V275.92C165.72 285.021 171.106 294.329 183.008 301.286C204.878 314.068 240.45 314.072 262.458 301.286C274.226 294.449 279.732 285.341 278.965 276.393V261.165L274.751 265.483C272.032 261.67 268.019 258.098 262.71 254.995Z" fill="url(#paint6_linear_133_793)"/>
<path fill-rule="evenodd" clip-rule="evenodd" d="M262.788 239.678C240.925 226.899 205.359 226.899 183.352 239.678C177.738 242.94 173.548 246.718 170.784 250.749L166.905 246.774V260.62C165.804 269.716 171.192 279.017 183.087 285.969C204.956 298.752 240.528 298.755 262.536 285.969C274.314 279.127 279.819 270.01 279.041 261.054V245.852L274.83 250.167C272.111 246.354 268.097 242.782 262.788 239.678Z" fill="url(#paint7_linear_133_793)"/>
<path fill-rule="evenodd" clip-rule="evenodd" d="M262.788 225.271C240.925 212.492 205.359 212.492 183.352 225.271C177.738 228.532 173.548 232.31 170.783 236.341L166.905 232.366V246.212C165.804 255.308 171.192 264.609 183.087 271.562C204.956 284.344 240.528 284.348 262.536 271.562C274.314 264.719 279.819 255.602 279.041 246.646V231.444L274.83 235.76C272.111 231.946 268.097 228.374 262.788 225.271Z" fill="url(#paint8_linear_133_793)"/>
<path d="M225.861 233.745C226.899 233.144 227.964 232.552 229.009 231.944L240.048 238.246C239.158 238.763 238.392 239.259 237.589 239.726C234.619 241.415 231.737 243.074 227.756 243.966C225.136 244.558 222.717 244.433 220.611 243.25C218.504 242.067 218.222 240.618 219.24 239.087C220.658 236.948 223.161 235.313 225.861 233.745ZM211.332 224.798C212.192 224.298 213.082 223.804 213.959 223.294L223.906 228.96C223.06 229.498 222.227 230.021 221.35 230.525C219.263 231.775 217.033 232.765 214.708 233.471C212.081 234.259 209.592 234.083 207.526 233.025C205.588 232.042 205 230.613 206.061 229.058C207.167 227.369 209.155 226.058 211.332 224.794M183.352 210.208C205.359 197.429 240.925 197.429 262.788 210.208C284.651 222.987 284.543 243.713 262.536 256.499C240.528 269.284 204.956 269.281 183.087 256.499C161.217 243.716 161.345 222.993 183.352 210.208Z" fill="url(#paint9_linear_133_793)"/>
<path d="M212.897 237.192C212.205 236.79 211.553 236.361 210.774 235.918L220.294 230.481C221.198 231.005 222.115 231.515 223.009 232.036C225.34 233.387 227.497 234.8 228.72 236.644C229.596 237.962 229.314 239.195 227.537 240.233C225.76 241.27 223.634 241.361 221.373 240.851C217.939 240.081 215.453 238.638 212.89 237.195M226.895 229.262C226.146 228.826 225.421 228.373 224.692 227.91L233.272 223.024C234.027 223.463 234.793 223.889 235.536 224.318C237.414 225.41 239.127 226.531 240.081 227.994C240.995 229.346 240.491 230.566 238.818 231.414C237.034 232.326 234.891 232.478 232.623 231.799C230.618 231.19 228.695 230.336 226.895 229.258M252.947 220.517L248.668 218.03C246.41 219.304 243.689 220.895 241.653 222.044L238.213 220.047C240.212 218.878 242.97 217.31 245.191 216.013L240.948 213.55C238.66 214.844 235.858 216.482 233.822 217.628C230.933 215.908 228.112 214.273 225.229 212.56C223.66 213.475 222.176 214.303 220.65 215.192C221.269 215.55 221.819 215.868 222.296 216.205C222.841 216.523 223.392 216.841 223.869 217.162C225.256 218.094 225.192 219.034 223.738 219.885C217.597 223.362 211.422 226.893 205.311 230.4C203.968 231.187 202.869 231.144 201.549 230.38L198.697 228.724C196.681 229.555 194.773 230.339 192.768 231.167L201.344 236.279C199.16 237.553 196.359 239.152 194.074 240.486L198.354 242.973C200.672 241.655 203.36 240.084 205.543 238.847L208.866 240.905C206.682 242.179 204.005 243.71 201.784 245.007L206.047 247.494C208.399 246.18 211.086 244.592 213.219 243.395C213.404 243.46 213.515 243.524 213.66 243.564C216.035 244.578 218.309 245.669 220.748 246.541C223.619 247.578 226.702 247.88 229.718 247.42C232.734 246.959 235.589 245.752 238.025 243.906C239.799 242.524 240.377 240.996 239.597 239.317C239.154 238.523 238.653 237.763 238.099 237.043C238.27 237.063 238.435 237.063 238.532 237.087C245.433 238.381 252.044 234.046 251.113 230.714C250.74 229.363 249.86 228.123 248.651 226.998C247.771 226.187 246.817 225.423 245.832 224.632C247.868 223.443 250.707 221.828 252.958 220.51" fill="white"/>
<defs>
<filter id="filter0_f_133_793" x="0.824455" y="102.007" width="412.029" height="260.435" filterUnits="userSpaceOnUse" color-interpolation-filters="sRGB">
<feFlood flood-opacity="0" result="BackgroundImageFix"/>
<feBlend mode="normal" in="SourceGraphic" in2="BackgroundImageFix" result="shape"/>
<feGaussianBlur stdDeviation="49.8104" result="effect1_foregroundBlur_133_793"/>
</filter>
<filter id="filter1_f_133_793" x="109.275" y="178.469" width="203.474" height="117.247" filterUnits="userSpaceOnUse" color-interpolation-filters="sRGB">
<feFlood flood-opacity="0" result="BackgroundImageFix"/>
<feBlend mode="normal" in="SourceGraphic" in2="BackgroundImageFix" result="shape"/>
<feGaussianBlur stdDeviation="19.9242" result="effect1_foregroundBlur_133_793"/>
</filter>
<filter id="filter2_d_133_793" x="238.193" y="128.19" width="77.3594" height="90.1162" filterUnits="userSpaceOnUse" color-interpolation-filters="sRGB">
<feFlood flood-opacity="0" result="BackgroundImageFix"/>
<feColorMatrix in="SourceAlpha" type="matrix" values="0 0 0 0 0 0 0 0 0 0 0 0 0 0 0 0 0 0 127 0" result="hardAlpha"/>
<feOffset dx="2"/>
<feGaussianBlur stdDeviation="5"/>
<feComposite in2="hardAlpha" operator="out"/>
<feColorMatrix type="matrix" values="0 0 0 0 0 0 0 0 0 0 0 0 0 0 0 0 0 0 0.3 0"/>
<feBlend mode="normal" in2="BackgroundImageFix" result="effect1_dropShadow_133_793"/>
<feBlend mode="normal" in="SourceGraphic" in2="effect1_dropShadow_133_793" result="shape"/>
</filter>
<linearGradient id="paint0_linear_133_793" x1="352.334" y1="209.787" x2="69.9605" y2="322.825" gradientUnits="userSpaceOnUse">
<stop stop-color="#FF2D2D"/>
<stop offset="1" stop-color="#1758FF"/>
</linearGradient>
<linearGradient id="paint1_linear_133_793" x1="295.647" y1="223.324" x2="129.057" y2="286.541" gradientUnits="userSpaceOnUse">
<stop stop-color="#FF2D2D"/>
<stop offset="1" stop-color="#1758FF"/>
</linearGradient>
<linearGradient id="paint2_linear_133_793" x1="170.638" y1="-126.971" x2="-3.14868" y2="194.281" gradientUnits="userSpaceOnUse">
<stop stop-color="#D22E37"/>
<stop offset="1" stop-color="#2D2DB8"/>
</linearGradient>
<linearGradient id="paint3_linear_133_793" x1="158.536" y1="-119.944" x2="16.9442" y2="329.36" gradientUnits="userSpaceOnUse">
<stop stop-color="#FF3842"/>
<stop offset="1" stop-color="#3232FF"/>
</linearGradient>
<linearGradient id="paint4_linear_133_793" x1="314.094" y1="201.782" x2="235.328" y2="163.344" gradientUnits="userSpaceOnUse">
<stop stop-color="#D22E37"/>
<stop offset="1" stop-color="#2D2DB8"/>
</linearGradient>
<linearGradient id="paint5_linear_133_793" x1="307.523" y1="205.635" x2="228.747" y2="167.179" gradientUnits="userSpaceOnUse">
<stop stop-color="#FF3842"/>
<stop offset="1" stop-color="#3232FF"/>
</linearGradient>
<linearGradient id="paint6_linear_133_793" x1="301.898" y1="307.833" x2="204.623" y2="202.418" gradientUnits="userSpaceOnUse">
<stop stop-color="#9F252B"/>
<stop offset="1" stop-color="#212186"/>
</linearGradient>
<linearGradient id="paint7_linear_133_793" x1="301.976" y1="292.516" x2="204.701" y2="187.102" gradientUnits="userSpaceOnUse">
<stop stop-color="#B1282F"/>
<stop offset="1" stop-color="#24248E"/>
</linearGradient>
<linearGradient id="paint8_linear_133_793" x1="301.976" y1="278.109" x2="204.701" y2="172.694" gradientUnits="userSpaceOnUse">
<stop stop-color="#D22E37"/>
<stop offset="1" stop-color="#2D2DB8"/>
</linearGradient>
<linearGradient id="paint9_linear_133_793" x1="301.976" y1="263.046" x2="204.701" y2="157.631" gradientUnits="userSpaceOnUse">
<stop stop-color="#FF3842"/>
<stop offset="1" stop-color="#3232FF"/>
</linearGradient>
</defs>
</svg>
