<svg width="24" height="27" viewBox="0 0 24 27" fill="none" xmlns="http://www.w3.org/2000/svg">
<path d="M9.41757 16.9264L9.02057 22.9758C9.58857 22.9758 9.83557 22.7114 10.1296 22.394L12.7926 19.6369L18.3106 24.0147C19.3226 24.6257 20.0356 24.3039 20.3086 23.0061L23.9306 4.61978L23.9316 4.61761C24.2526 2.99695 23.3906 2.36428 22.4046 2.76186L1.11457 11.5921C-0.338432 12.2042 -0.317432 13.0806 0.867568 13.4782L6.30957 15.3123L18.9536 6.74095C19.5496 6.31411 20.0896 6.55028 19.6446 6.97711L9.41757 16.9264Z" fill="white"/>
<path d="M22.9556 2.64551C22.7816 2.64551 22.5956 2.68342 22.4046 2.76034L1.11457 11.5906C-0.338432 12.2027 -0.317432 13.0791 0.867568 13.4767L6.30957 15.3108L18.9536 6.74051C19.1746 6.58234 19.3876 6.51517 19.5456 6.51517C19.8146 6.51517 19.9246 6.70801 19.6446 6.97667L9.41757 16.926L23.7596 3.05609C23.5706 2.78309 23.2856 2.64551 22.9556 2.64551Z" fill="white"/>
</svg>
